<?xml version="1.0" encoding="utf-8"?>
<!-- Generator: Adobe Illustrator 27.4.1, SVG Export Plug-In . SVG Version: 6.00 Build 0)  -->
<svg version="1.1" id="Layer_1" xmlns="http://www.w3.org/2000/svg" xmlns:xlink="http://www.w3.org/1999/xlink" x="0px" y="0px"
	 width="1210.1px" height="585.3px" viewBox="0 0 1210.1 585.3" style="enable-background:new 0 0 1210.1 585.3;"
	 xml:space="preserve">
<style type="text/css">
	.st0{opacity:0.5;fill:#00B4CD;}
	.st1{fill:#00B4CD;}
	.st2{fill:#00AACA;}
</style>
<g>
	<g>
		<path class="st0" d="M693.1,340c0-0.4-0.1-0.8-0.1-1.1l-73.1,0.5c0.1,31.7,17.3,63.9,27.7,74.6c49.3,51,112.3,47.6,126.7,47
			c39.9-1.5,70.1-10.3,92.6-23.7c-43.5-4.5-85.9-17.4-123.1-39.3C717.3,390.1,696.2,370.2,693.1,340z"/>
		<path class="st1" d="M767.3,72.8c20.8-1.2,42.4,6.1,58.9,22c9.4,9,14.4,27,14.4,36.3c0,44.9-35.4,73.4-81.8,75.4l-0.1,19.8
			l-0.1,27.5c55.3,4.9,83.5,29.3,88.7,76.7c3.4,31.1-21.1,59-51.2,67.4c-17.5,4.9-36,4.8-52.3-0.1c37.2,21.9,79.6,34.8,123.1,39.3
			c43.5-25.9,58.1-68.9,58.1-109.4c0-91.2-72-102.2-72-102.2s58.2-29.3,56.1-102.7c-0.5-17.8-7.2-35.8-18.7-51.7
			C852.9,55.6,809.3,61.3,767.3,72.8z"/>
		<path class="st0" d="M778.9,17.1c-10,0-155.8-9.1-155.8,115.8l78,0c0-9.8,3.5-19,9-27.4C723.5,85,745,74,767.3,72.8
			c41.9-11.5,85.5-17.1,123.1-1.5C868.2,40.3,827.7,17,778.9,17.1z"/>
	</g>
	<g>
		<path class="st1" d="M622.9,259.6v6.8h-20.8v-75.5h20.8v27c4.1-4.7,9.1-8.7,18-8.7c14.2,0,26.3,11.1,26.3,29v0.2
			c0,18.2-12.2,29.3-26.2,29.3C632.1,267.7,626.8,263.8,622.9,259.6z M646.9,238.5v-0.2c0-7.5-5.5-12.7-12.2-12.7
			c-6.8,0-12.2,5.3-12.2,12.7v0.2c0,7.5,5.4,12.7,12.2,12.7C641.4,251.2,646.9,246,646.9,238.5z"/>
		<path class="st1" d="M710.4,210.4h21.4l-21.7,54.6c-5.2,13.1-10.8,18.2-22.6,18.2c-7.4,0-13.5-1.9-19-4.9l6.4-13.8
			c3.4,1.9,6.8,3,9.1,3c2.1,0,3.5-0.5,4.9-2.3l-23.3-54.9h21.7l11.9,33.7L710.4,210.4z"/>
	</g>
	<g>
		<path class="st2" d="M66.4,504.8H45.1V494h35.6v9.6l-20.4,36.5H46.1L66.4,504.8z"/>
		<path class="st2" d="M82.2,533.8l7.3-8.6c3.7,3.2,7.3,5,11.2,5c4.2,0,6.7-2.1,6.7-5.4v-0.1c0-3.4-2.8-5.3-6.8-5.3
			c-2.8,0-5.2,1-7.4,2.3l-7.6-4.3L87,494h30.9v10.6H97.1l-0.4,7c2.1-1,4.3-1.6,7.4-1.6c8.3,0,15.8,4.6,15.8,14.6v0.1
			c0,10.2-7.8,16.4-19.1,16.4C92.7,541.1,87,538.3,82.2,533.8z"/>
		<path class="st2" d="M124.7,505.9v-0.1c0-6.8,4.7-12.4,11.9-12.4c7.2,0,11.9,5.5,11.9,12.3v0.1c0,6.7-4.8,12.3-11.9,12.3
			C129.6,518.2,124.7,512.6,124.7,505.9z M165.4,494h8.9l-19.7,25.1l-16,21h-8.9l19.5-24.9L165.4,494z M132.8,505.7v0.1
			c0,2.9,1.7,5.1,3.9,5.1c2.2,0,3.8-2.2,3.8-5.1v-0.1c0-3-1.6-5.2-3.9-5.2C134.3,500.6,132.8,502.7,132.8,505.7z M155.6,528.5v-0.1
			c0-6.8,4.7-12.4,11.9-12.4c7.2,0,11.9,5.5,11.9,12.3v0.1c0,6.7-4.8,12.4-11.9,12.4C160.4,540.9,155.6,535.3,155.6,528.5z
			 M171.4,528.5v-0.1c0-3-1.6-5.2-3.9-5.2c-2.4,0-3.8,2.2-3.8,5.1v0.1c0,2.9,1.7,5.1,3.9,5.1C169.8,533.6,171.4,531.4,171.4,528.5z"
			/>
		<path class="st2" d="M202,522.5v-0.1c0-10.4,7.5-18.7,18-18.7c12.3,0,17.9,9,17.9,19.5c0,0.8,0,1.7-0.1,2.6H214
			c1,3.9,3.8,5.9,7.7,5.9c3,0,5.3-1.1,7.9-3.6l6.9,5.7c-3.4,4.4-8.4,7.3-15.4,7.3C209.9,541.1,202,533.5,202,522.5z M226.2,519.4
			c-0.5-4-2.8-6.5-6.3-6.5c-3.3,0-5.5,2.5-6.2,6.5H226.2z"/>
		<path class="st2" d="M243.3,504.5h12.5v4.9c2.3-3,5.6-5.7,10.6-5.7c4.7,0,8.4,2.1,10.3,5.8c3.1-3.6,6.7-5.8,11.9-5.8
			c7.6,0,12.2,4.7,12.2,13.1v23.4h-12.5v-19.4c0-3.9-1.9-6-4.9-6s-5.1,2.1-5.1,6v19.4h-12.5v-19.4c0-3.9-2-6-4.9-6
			c-3,0-5.1,2.1-5.1,6v19.4h-12.5V504.5z"/>
		<path class="st2" d="M307.4,492h13v9.2h-13V492z M307.7,504.5h12.5v35.7h-12.5V504.5z"/>
		<path class="st2" d="M324.6,535.6l4.7-7.5c4.1,2.7,8.5,4.1,12.2,4.1c2.2,0,3.2-0.7,3.2-1.9v-0.1c0-1.5-2-2-5.8-3.1
			c-7.1-1.8-12.7-4.2-12.7-11.3v-0.1c0-7.6,6.1-11.8,14.3-11.8c5.2,0,10.6,1.5,14.7,4.2l-4.3,7.9c-3.7-2.1-7.7-3.4-10.6-3.4
			c-1.9,0-2.9,0.7-2.9,1.8v0.1c0,1.4,2.1,2,5.8,3.2c7.1,2,12.7,4.4,12.7,11.3v0.1c0,7.8-5.9,11.9-14.6,11.9
			C335.4,541,329.5,539.2,324.6,535.6z"/>
		<path class="st2" d="M357.8,535.6l4.7-7.5c4.1,2.7,8.5,4.1,12.2,4.1c2.2,0,3.2-0.7,3.2-1.9v-0.1c0-1.5-2-2-5.8-3.1
			c-7.1-1.8-12.7-4.2-12.7-11.3v-0.1c0-7.6,6.1-11.8,14.3-11.8c5.2,0,10.6,1.5,14.7,4.2l-4.3,7.9c-3.7-2.1-7.7-3.4-10.6-3.4
			c-1.9,0-2.9,0.7-2.9,1.8v0.1c0,1.4,2.1,2,5.8,3.2c7.1,2,12.7,4.4,12.7,11.3v0.1c0,7.8-5.9,11.9-14.6,11.9
			C368.6,541,362.7,539.2,357.8,535.6z"/>
		<path class="st2" d="M394.4,492h13v9.2h-13V492z M394.7,504.5h12.5v35.7h-12.5V504.5z"/>
		<path class="st2" d="M412.8,522.5v-0.1c0-10.2,8.3-18.7,19.7-18.7c11.4,0,19.7,8.4,19.7,18.5v0.1c0,10.2-8.3,18.7-19.8,18.7
			C421.1,541.1,412.8,532.7,412.8,522.5z M440.1,522.5v-0.1c0-4.4-3.2-8.1-7.7-8.1c-4.6,0-7.5,3.6-7.5,8v0.1c0,4.4,3.2,8,7.6,8
			C437.1,530.4,440.1,526.8,440.1,522.5z"/>
		<path class="st2" d="M457.5,504.5H470v5c2.3-3,5.6-5.8,10.7-5.8c7.6,0,12.1,5,12.1,13.1v23.3h-12.5v-19.3c0-4-2-6.1-5.1-6.1
			c-3,0-5.3,2.1-5.3,6.1v19.3h-12.5V504.5z"/>
		<path class="st2" d="M496.7,535.6l4.7-7.5c4.1,2.7,8.5,4.1,12.2,4.1c2.2,0,3.2-0.7,3.2-1.9v-0.1c0-1.5-2-2-5.8-3.1
			c-7.1-1.8-12.7-4.2-12.7-11.3v-0.1c0-7.6,6.1-11.8,14.3-11.8c5.2,0,10.6,1.5,14.7,4.2l-4.3,7.9c-3.7-2.1-7.7-3.4-10.6-3.4
			c-1.9,0-2.9,0.7-2.9,1.8v0.1c0,1.4,2.1,2,5.8,3.2c7.1,2,12.7,4.4,12.7,11.3v0.1c0,7.8-5.9,11.9-14.6,11.9
			C507.5,541,501.5,539.2,496.7,535.6z"/>
		<path class="st2" d="M551.5,504.5H564v7.2c2-4.9,5.3-8,11.3-7.8v13.2h-1.1c-6.5,0-10.2,3.8-10.2,11.9v11.1h-12.5V504.5z"/>
		<path class="st2" d="M577.6,522.5v-0.1c0-10.4,7.5-18.7,18-18.7c12.3,0,17.9,9,17.9,19.5c0,0.8,0,1.7-0.1,2.6h-23.9
			c1,3.9,3.8,5.9,7.7,5.9c3,0,5.3-1.1,7.9-3.6l6.9,5.7c-3.4,4.4-8.4,7.3-15.4,7.3C585.6,541.1,577.6,533.5,577.6,522.5z
			 M601.9,519.4c-0.5-4-2.8-6.5-6.3-6.5c-3.3,0-5.5,2.5-6.2,6.5H601.9z"/>
		<path class="st2" d="M617.7,522.5v-0.1c0-11.6,7.3-18.7,15.8-18.7c5.4,0,8.6,2.4,10.9,5.1V492h12.5v48.1h-12.5v-4.7
			c-2.4,3-5.5,5.5-10.8,5.5C625,541,617.7,533.9,617.7,522.5z M644.6,522.4v-0.1c0-4.7-3.2-8.1-7.3-8.1c-4,0-7.3,3.4-7.3,8.1v0.1
			c0,4.7,3.3,8.1,7.3,8.1C641.4,530.5,644.6,527.1,644.6,522.4z"/>
		<path class="st2" d="M663.3,527.8v-23.3h12.5v19.3c0,3.9,2,6,5.1,6c3,0,5.3-2.1,5.3-6v-19.3h12.5v35.7h-12.5v-4.9
			c-2.3,3-5.6,5.7-10.7,5.7C667.9,541,663.3,535.9,663.3,527.8z"/>
		<path class="st2" d="M704,522.5v-0.1c0-10.1,7.8-18.6,19.1-18.6c7.3,0,12.2,3.2,15.2,7.9l-8.4,6.3c-1.8-2.3-3.7-3.8-6.7-3.8
			c-4.1,0-7.1,3.6-7.1,8v0.1c0,4.6,2.9,8.1,7.1,8.1c3,0,4.9-1.4,6.9-3.7l8.4,6.1c-3.3,4.9-8,8.2-15.8,8.2
			C711.9,541.1,704,532.6,704,522.5z"/>
		<path class="st2" d="M745.2,529.1v-14.6H741v-10h4.2v-9h12.5v9h8.3v10h-8.3v12.1c0,2.5,1.1,3.6,3.4,3.6c1.6,0,3.2-0.5,4.7-1.2v9.8
			c-2.2,1.3-5.2,2.1-8.7,2.1C749.6,540.9,745.2,537.6,745.2,529.1z"/>
		<path class="st2" d="M771.4,492h13v9.2h-13V492z M771.7,504.5h12.5v35.7h-12.5V504.5z"/>
		<path class="st2" d="M789.8,522.5v-0.1c0-10.2,8.3-18.7,19.7-18.7s19.7,8.4,19.7,18.5v0.1c0,10.2-8.3,18.7-19.8,18.7
			C798.1,541.1,789.8,532.7,789.8,522.5z M817.1,522.5v-0.1c0-4.4-3.2-8.1-7.7-8.1c-4.6,0-7.5,3.6-7.5,8v0.1c0,4.4,3.2,8,7.6,8
			C814.1,530.4,817.1,526.8,817.1,522.5z"/>
		<path class="st2" d="M834.5,504.5H847v5c2.3-3,5.6-5.8,10.7-5.8c7.6,0,12.1,5,12.1,13.1v23.3h-12.5v-19.3c0-4-2-6.1-5.1-6.1
			c-3,0-5.3,2.1-5.3,6.1v19.3h-12.5V504.5z"/>
		<path class="st2" d="M907.1,535.8v4.4h-12.5V492h12.5v17.2c2.4-3,5.5-5.5,10.8-5.5c8.5,0,15.8,7.1,15.8,18.5v0.1
			c0,11.6-7.3,18.7-15.8,18.7C912.6,541,909.4,538.5,907.1,535.8z M921.5,522.4v-0.1c0-4.7-3.3-8.1-7.3-8.1c-4.1,0-7.3,3.4-7.3,8.1
			v0.1c0,4.7,3.2,8.1,7.3,8.1C918.2,530.5,921.5,527.2,921.5,522.4z"/>
		<path class="st2" d="M961.8,504.5h12.9l-13.1,34.8c-3.1,8.4-6.5,11.6-13.6,11.6c-4.4,0-8.1-1.2-11.4-3.1l3.8-8.8
			c2,1.2,4.1,1.9,5.5,1.9c1.3,0,2.1-0.3,3-1.5l-14-35H948l7.1,21.5L961.8,504.5z"/>
		<path class="st2" d="M995.9,530.6l17.3-13.2c4.3-3.4,6-5.5,6-8.3c0-3-2-4.7-5.2-4.7c-3.1,0-5.5,1.8-9.2,6l-8.6-7.2
			c4.9-6.4,9.9-9.9,18.8-9.9c10.1,0,17,6,17,14.7v0.1c0,7.4-3.8,11.2-10.7,16.2l-7.9,5.5h19.1v10.4h-36.5V530.6z"/>
		<path class="st2" d="M1037.6,517.2v-0.1c0-13.1,8.3-24,21.4-24c13.1,0,21.3,10.8,21.3,23.9v0.1c0,13.1-8.2,24-21.4,24
			C1045.7,541.1,1037.6,530.3,1037.6,517.2z M1067.4,517.2v-0.1c0-7.4-3.4-12.7-8.6-12.7c-5.1,0-8.4,5.2-8.4,12.6v0.1
			c0,7.4,3.4,12.7,8.6,12.7C1064.1,529.8,1067.4,524.6,1067.4,517.2z"/>
		<path class="st2" d="M1082.9,532.9l8.1-8c3.3,3.4,6.7,5.3,11,5.3c3.6,0,5.9-1.8,5.9-4.7v-0.1c0-3-2.6-4.7-7.5-4.7h-5.4l-1.8-6.7
			l10.6-9.6h-17.6V494h33.3v9.1l-11,9.5c6.6,1.5,11.9,5.1,11.9,13v0.1c0,9.4-7.5,15.4-17.8,15.4
			C1093.6,541.1,1087.4,537.9,1082.9,532.9z"/>
		<path class="st2" d="M1123.6,533.8l7.3-8.6c3.7,3.2,7.3,5,11.2,5c4.2,0,6.7-2.1,6.7-5.4v-0.1c0-3.4-2.8-5.3-6.8-5.3
			c-2.8,0-5.2,1-7.4,2.3l-7.6-4.3l1.3-23.3h30.9v10.6h-20.8l-0.4,7c2.1-1,4.3-1.6,7.4-1.6c8.3,0,15.8,4.6,15.8,14.6v0.1
			c0,10.2-7.8,16.4-19.1,16.4C1134.1,541.1,1128.4,538.3,1123.6,533.8z"/>
	</g>
	<g>
		<path class="st0" d="M582,110.5V30.4H352.8c-0.5,0-1-0.1-1.5-0.2v80.3v148l8.7-21.1c13.5-32.7,45.7-53.8,81.1-52.9h0v-74H582z"/>
		<path class="st1" d="M441,184.5c-35.4-0.8-67.6,20.2-81.1,52.9l-8.7,21.1l0,0c10.9-5.2,54.2-9.2,69.5-9.2
			c26.6,0,47.8,6.4,63.7,19.1c15.9,12.7,23.8,30,23.8,51.8c0,22.6-7.7,40.6-23,53.9c-15.3,13.3-35.6,20-61,20
			c-19.7,0-38.5-4.5-56.4-13.6c-17.9-9.1-36.6-24.3-49.9-50.6l-48.2,52.9c17.1,29.9,42.9,48.9,68.2,60.6
			c25.4,11.8,54.3,17.7,86.9,17.7c23.3,0,44.7-3.4,64-10.3c19.3-6.8,35.9-16.5,49.7-29c13.8-12.5,24.4-27.6,32-45.3
			c7.5-17.7,11.3-37.4,11.3-59.2c0-22.5-3.8-42.2-11.3-58.9c-7.5-16.7-18.2-30.3-31.3-41.7C499.5,182.7,441,184.5,441,184.5z"/>
	</g>
	<g>
		<path class="st1" d="M310.1,30.2H30.3v80.1c0,0,100.7,0.1,181.3,0.2C237.6,78,270,49.9,310.1,30.2z"/>
		<path class="st0" d="M101.9,453.3h98.4c0.2-23.4-17.5-211.5,109.9-342.8V30.2C118.1,124.4,103.8,411.1,101.9,453.3z"/>
	</g>
	<g>
		<path class="st0" d="M1033.5,177.6L1033.5,177.6c1.8-0.2,3.6-0.4,5.4-0.4v-73.3h122.5V23.8H950.6c-0.5,0-1-0.1-1.5-0.2v80.3v148
			l4.5-11.6C966.7,206.3,997.4,182.3,1033.5,177.6z"/>
		<path class="st1" d="M1168.5,252c-7.5-16.7-18-30.6-31.3-41.7c-13.4-11.1-27.1-21.5-45.3-25.7c-17.2-4-37.5-6.3-47.3-7.2
			c-3.7-0.4-7.4-0.3-11.1,0.2l0,0c-36.1,4.7-66.8,28.7-79.9,62.7l-4.5,11.6c10.9-5.2,54.2-9.2,69.5-9.2c26.6,0,47.8,6.4,63.7,19.1
			c15.9,12.7,23.8,30,23.8,51.8c0,22.6-7.7,40.6-23,53.9c-15.3,13.3-35.6,20-61,20c-19.7,0-47.9-7.5-65.9-16.6
			c0,0-6.8,34.8-30.4,61.3c0,0,11.4,5.3,11.4,5.4c25,11.3,53.4,17,85.4,17c23.3,0,44.7-3.4,64-10.3c19.3-6.8,35.9-16.5,49.7-29
			c13.8-12.5,24.4-27.6,32-45.3c7.5-17.7,11.3-37.4,11.3-59.2C1179.8,288.3,1176,268.7,1168.5,252z"/>
	</g>
</g>
</svg>
