<?xml version="1.0" encoding="utf-8"?>
<!-- Generator: Adobe Illustrator 27.4.1, SVG Export Plug-In . SVG Version: 6.00 Build 0)  -->
<svg version="1.1" id="Layer_1" xmlns="http://www.w3.org/2000/svg" xmlns:xlink="http://www.w3.org/1999/xlink" x="0px" y="0px"
	 width="1149.3px" height="533.9px" viewBox="0 0 1149.3 533.9" style="enable-background:new 0 0 1149.3 533.9;"
	 xml:space="preserve">
<style type="text/css">
	.st0{opacity:0.5;fill:#00B4CD;enable-background:new    ;}
	.st1{fill:#00B4CD;}
	.st2{fill:#00AACA;}
</style>
<g>
	<g>
		<path class="st0" d="M662.8,323c0-0.4-0.1-0.8-0.1-1.1l-73.1,0.5c0.1,31.7,17.3,63.9,27.7,74.6c49.3,51,112.3,47.6,126.7,47
			c39.9-1.5,70.1-10.3,92.6-23.7c-43.5-4.5-85.9-17.4-123.1-39.3C687,373.1,665.9,353.2,662.8,323z"/>
		<path class="st1" d="M737,55.8c20.8-1.2,42.4,6.1,58.9,22c9.4,9,14.4,27,14.4,36.3c0,44.9-35.4,73.4-81.8,75.4l-0.1,19.8
			l-0.1,27.5c55.3,4.9,83.5,29.3,88.7,76.7c3.4,31.1-21.1,59-51.2,67.4c-17.5,4.9-36,4.8-52.3-0.1c37.2,21.9,79.6,34.8,123.1,39.3
			c43.5-25.9,58.1-68.9,58.1-109.4c0-91.2-72-102.2-72-102.2s58.2-29.3,56.1-102.7c-0.5-17.8-7.2-35.8-18.7-51.7
			C822.6,38.6,779,44.3,737,55.8z"/>
		<path class="st0" d="M748.6,0.1c-10,0-155.8-9.1-155.8,115.8h78c0-9.8,3.5-19,9-27.4C693.2,68,714.7,57,737,55.8
			c41.9-11.5,85.5-17.1,123.1-1.5C837.9,23.3,797.4,0,748.6,0.1z"/>
	</g>
	<g>
		<path class="st1" d="M592.6,242.6v6.8h-20.8v-75.5h20.8v27c4.1-4.7,9.1-8.7,18-8.7c14.2,0,26.3,11.1,26.3,29v0.2
			c0,18.2-12.2,29.3-26.2,29.3C601.8,250.7,596.5,246.8,592.6,242.6z M616.6,221.5v-0.2c0-7.5-5.5-12.7-12.2-12.7
			c-6.8,0-12.2,5.3-12.2,12.7v0.2c0,7.5,5.4,12.7,12.2,12.7C611.1,234.2,616.6,229,616.6,221.5z"/>
		<path class="st1" d="M680.1,193.4h21.4L679.8,248c-5.2,13.1-10.8,18.2-22.6,18.2c-7.4,0-13.5-1.9-19-4.9l6.4-13.8
			c3.4,1.9,6.8,3,9.1,3c2.1,0,3.5-0.5,4.9-2.3l-23.3-54.9H657l11.9,33.7L680.1,193.4z"/>
	</g>
	<g>
		<path class="st2" d="M36.1,487.8H14.8V477h35.6v9.6L30,523.1H15.8L36.1,487.8z"/>
		<path class="st2" d="M51.9,516.8l7.3-8.6c3.7,3.2,7.3,5,11.2,5c4.2,0,6.7-2.1,6.7-5.4v-0.1c0-3.4-2.8-5.3-6.8-5.3
			c-2.8,0-5.2,1-7.4,2.3l-7.6-4.3l1.4-23.4h30.9v10.6H66.8l-0.4,7c2.1-1,4.3-1.6,7.4-1.6c8.3,0,15.8,4.6,15.8,14.6v0.1
			c0,10.2-7.8,16.4-19.1,16.4C62.4,524.1,56.7,521.3,51.9,516.8z"/>
		<path class="st2" d="M94.4,488.9v-0.1c0-6.8,4.7-12.4,11.9-12.4s11.9,5.5,11.9,12.3v0.1c0,6.7-4.8,12.3-11.9,12.3
			C99.3,501.2,94.4,495.6,94.4,488.9z M135.1,477h8.9l-19.7,25.1l-16,21h-8.9l19.5-24.9L135.1,477z M102.5,488.7v0.1
			c0,2.9,1.7,5.1,3.9,5.1s3.8-2.2,3.8-5.1v-0.1c0-3-1.6-5.2-3.9-5.2C104,483.6,102.5,485.7,102.5,488.7z M125.3,511.5L125.3,511.5
			c0-6.9,4.7-12.5,11.9-12.5s11.9,5.5,11.9,12.3v0.1c0,6.7-4.8,12.4-11.9,12.4C130.1,523.9,125.3,518.3,125.3,511.5z M141.1,511.5
			L141.1,511.5c0-3.1-1.6-5.3-3.9-5.3c-2.4,0-3.8,2.2-3.8,5.1v0.1c0,2.9,1.7,5.1,3.9,5.1C139.5,516.6,141.1,514.4,141.1,511.5z"/>
		<path class="st2" d="M171.7,505.5L171.7,505.5c0-10.5,7.5-18.8,18-18.8c12.3,0,17.9,9,17.9,19.5c0,0.8,0,1.7-0.1,2.6h-23.8
			c1,3.9,3.8,5.9,7.7,5.9c3,0,5.3-1.1,7.9-3.6l6.9,5.7c-3.4,4.4-8.4,7.3-15.4,7.3C179.6,524.1,171.7,516.5,171.7,505.5z
			 M195.9,502.4c-0.5-4-2.8-6.5-6.3-6.5c-3.3,0-5.5,2.5-6.2,6.5H195.9z"/>
		<path class="st2" d="M213,487.5h12.5v4.9c2.3-3,5.6-5.7,10.6-5.7c4.7,0,8.4,2.1,10.3,5.8c3.1-3.6,6.7-5.8,11.9-5.8
			c7.6,0,12.2,4.7,12.2,13.1v23.4H258v-19.4c0-3.9-1.9-6-4.9-6c-3,0-5.1,2.1-5.1,6v19.4h-12.5v-19.4c0-3.9-2-6-4.9-6
			c-3,0-5.1,2.1-5.1,6v19.4H213L213,487.5L213,487.5z"/>
		<path class="st2" d="M277.1,475h13v9.2h-13V475z M277.4,487.5h12.5v35.7h-12.5V487.5z"/>
		<path class="st2" d="M294.3,518.6l4.7-7.5c4.1,2.7,8.5,4.1,12.2,4.1c2.2,0,3.2-0.7,3.2-1.9v-0.1c0-1.5-2-2-5.8-3.1
			c-7.1-1.8-12.7-4.2-12.7-11.3v-0.1c0-7.6,6.1-11.8,14.3-11.8c5.2,0,10.6,1.5,14.7,4.2l-4.3,7.9c-3.7-2.1-7.7-3.4-10.6-3.4
			c-1.9,0-2.9,0.7-2.9,1.8v0.1c0,1.4,2.1,2,5.8,3.2c7.1,2,12.7,4.4,12.7,11.3v0.1c0,7.8-5.9,11.9-14.6,11.9
			C305.1,524,299.2,522.2,294.3,518.6z"/>
		<path class="st2" d="M327.5,518.6l4.7-7.5c4.1,2.7,8.5,4.1,12.2,4.1c2.2,0,3.2-0.7,3.2-1.9v-0.1c0-1.5-2-2-5.8-3.1
			c-7.1-1.8-12.7-4.2-12.7-11.3v-0.1c0-7.6,6.1-11.8,14.3-11.8c5.2,0,10.6,1.5,14.7,4.2l-4.3,7.9c-3.7-2.1-7.7-3.4-10.6-3.4
			c-1.9,0-2.9,0.7-2.9,1.8v0.1c0,1.4,2.1,2,5.8,3.2c7.1,2,12.7,4.4,12.7,11.3v0.1c0,7.8-5.9,11.9-14.6,11.9
			C338.3,524,332.4,522.2,327.5,518.6z"/>
		<path class="st2" d="M364.1,475h13v9.2h-13V475z M364.4,487.5h12.5v35.7h-12.5V487.5z"/>
		<path class="st2" d="M382.5,505.5L382.5,505.5c0-10.3,8.3-18.8,19.7-18.8c11.4,0,19.7,8.4,19.7,18.5v0.1
			c0,10.2-8.3,18.7-19.8,18.7C390.8,524.1,382.5,515.7,382.5,505.5z M409.8,505.5L409.8,505.5c0-4.5-3.2-8.2-7.7-8.2
			c-4.6,0-7.5,3.6-7.5,8v0.1c0,4.4,3.2,8,7.6,8C406.8,513.4,409.8,509.8,409.8,505.5z"/>
		<path class="st2" d="M427.2,487.5h12.5v5c2.3-3,5.6-5.8,10.7-5.8c7.6,0,12.1,5,12.1,13.1v23.3H450v-19.3c0-4-2-6.1-5.1-6.1
			c-3,0-5.3,2.1-5.3,6.1v19.3h-12.5L427.2,487.5L427.2,487.5z"/>
		<path class="st2" d="M466.4,518.6l4.7-7.5c4.1,2.7,8.5,4.1,12.2,4.1c2.2,0,3.2-0.7,3.2-1.9v-0.1c0-1.5-2-2-5.8-3.1
			c-7.1-1.8-12.7-4.2-12.7-11.3v-0.1c0-7.6,6.1-11.8,14.3-11.8c5.2,0,10.6,1.5,14.7,4.2l-4.3,7.9c-3.7-2.1-7.7-3.4-10.6-3.4
			c-1.9,0-2.9,0.7-2.9,1.8v0.1c0,1.4,2.1,2,5.8,3.2c7.1,2,12.7,4.4,12.7,11.3v0.1c0,7.8-5.9,11.9-14.6,11.9
			C477.2,524,471.2,522.2,466.4,518.6z"/>
		<path class="st2" d="M521.2,487.5h12.5v7.2c2-4.9,5.3-8,11.3-7.8v13.2h-1.1c-6.5,0-10.2,3.8-10.2,11.9v11.1h-12.5V487.5z"/>
		<path class="st2" d="M547.3,505.5L547.3,505.5c0-10.5,7.5-18.8,18-18.8c12.3,0,17.9,9,17.9,19.5c0,0.8,0,1.7-0.1,2.6h-23.9
			c1,3.9,3.8,5.9,7.7,5.9c3,0,5.3-1.1,7.9-3.6l6.9,5.7c-3.4,4.4-8.4,7.3-15.4,7.3C555.3,524.1,547.3,516.5,547.3,505.5z
			 M571.6,502.4c-0.5-4-2.8-6.5-6.3-6.5c-3.3,0-5.5,2.5-6.2,6.5H571.6z"/>
		<path class="st2" d="M587.4,505.5L587.4,505.5c0-11.7,7.3-18.8,15.8-18.8c5.4,0,8.6,2.4,10.9,5.1V475h12.5v48.1h-12.5v-4.7
			c-2.4,3-5.5,5.5-10.8,5.5C594.7,524,587.4,516.9,587.4,505.5z M614.3,505.4L614.3,505.4c0-4.8-3.2-8.2-7.3-8.2
			c-4,0-7.3,3.4-7.3,8.1v0.1c0,4.7,3.3,8.1,7.3,8.1C611.1,513.5,614.3,510.1,614.3,505.4z"/>
		<path class="st2" d="M633,510.8v-23.3h12.5v19.3c0,3.9,2,6,5.1,6c3,0,5.3-2.1,5.3-6v-19.3h12.5v35.7h-12.5v-4.9
			c-2.3,3-5.6,5.7-10.7,5.7C637.6,524,633,518.9,633,510.8z"/>
		<path class="st2" d="M673.7,505.5L673.7,505.5c0-10.2,7.8-18.7,19.1-18.7c7.3,0,12.2,3.2,15.2,7.9l-8.4,6.3
			c-1.8-2.3-3.7-3.8-6.7-3.8c-4.1,0-7.1,3.6-7.1,8v0.1c0,4.6,2.9,8.1,7.1,8.1c3,0,4.9-1.4,6.9-3.7l8.4,6.1c-3.3,4.9-8,8.2-15.8,8.2
			C681.6,524.1,673.7,515.6,673.7,505.5z"/>
		<path class="st2" d="M714.9,512.1v-14.6h-4.2v-10h4.2v-9h12.5v9h8.3v10h-8.3v12.1c0,2.5,1.1,3.6,3.4,3.6c1.6,0,3.2-0.5,4.7-1.2
			v9.8c-2.2,1.3-5.2,2.1-8.7,2.1C719.3,523.9,714.9,520.6,714.9,512.1z"/>
		<path class="st2" d="M741.1,475h13v9.2h-13V475z M741.4,487.5h12.5v35.7h-12.5V487.5z"/>
		<path class="st2" d="M759.5,505.5L759.5,505.5c0-10.3,8.3-18.8,19.7-18.8s19.7,8.4,19.7,18.5v0.1c0,10.2-8.3,18.7-19.8,18.7
			C767.8,524.1,759.5,515.7,759.5,505.5z M786.8,505.5L786.8,505.5c0-4.5-3.2-8.2-7.7-8.2c-4.6,0-7.5,3.6-7.5,8v0.1
			c0,4.4,3.2,8,7.6,8C783.8,513.4,786.8,509.8,786.8,505.5z"/>
		<path class="st2" d="M804.2,487.5h12.5v5c2.3-3,5.6-5.8,10.7-5.8c7.6,0,12.1,5,12.1,13.1v23.3H827v-19.3c0-4-2-6.1-5.1-6.1
			c-3,0-5.3,2.1-5.3,6.1v19.3h-12.5L804.2,487.5L804.2,487.5z"/>
		<path class="st2" d="M876.8,518.8v4.4h-12.5V475h12.5v17.2c2.4-3,5.5-5.5,10.8-5.5c8.5,0,15.8,7.1,15.8,18.5v0.1
			c0,11.6-7.3,18.7-15.8,18.7C882.3,524,879.1,521.5,876.8,518.8z M891.2,505.4L891.2,505.4c0-4.8-3.3-8.2-7.3-8.2
			c-4.1,0-7.3,3.4-7.3,8.1v0.1c0,4.7,3.2,8.1,7.3,8.1C887.9,513.5,891.2,510.2,891.2,505.4z"/>
		<path class="st2" d="M931.5,487.5h12.9l-13.1,34.8c-3.1,8.4-6.5,11.6-13.6,11.6c-4.4,0-8.1-1.2-11.4-3.1l3.8-8.8
			c2,1.2,4.1,1.9,5.5,1.9c1.3,0,2.1-0.3,3-1.5l-14-35h13.1l7.1,21.5L931.5,487.5z"/>
		<path class="st2" d="M965.6,513.6l17.3-13.2c4.3-3.4,6-5.5,6-8.3c0-3-2-4.7-5.2-4.7c-3.1,0-5.5,1.8-9.2,6l-8.6-7.2
			c4.9-6.4,9.9-9.9,18.8-9.9c10.1,0,17,6,17,14.7v0.1c0,7.4-3.8,11.2-10.7,16.2l-7.9,5.5h19.1v10.4h-36.5L965.6,513.6L965.6,513.6z"
			/>
		<path class="st2" d="M1007.3,500.2L1007.3,500.2c0-13.2,8.3-24.1,21.4-24.1c13.1,0,21.3,10.8,21.3,23.9v0.1c0,13.1-8.2,24-21.4,24
			C1015.4,524.1,1007.3,513.3,1007.3,500.2z M1037.1,500.2L1037.1,500.2c0-7.5-3.4-12.8-8.6-12.8c-5.1,0-8.4,5.2-8.4,12.6v0.1
			c0,7.4,3.4,12.7,8.6,12.7C1033.8,512.8,1037.1,507.6,1037.1,500.2z"/>
		<path class="st2" d="M1052.6,515.9l8.1-8c3.3,3.4,6.7,5.3,11,5.3c3.6,0,5.9-1.8,5.9-4.7v-0.1c0-3-2.6-4.7-7.5-4.7h-5.4l-1.8-6.7
			l10.6-9.6h-17.6V477h33.3v9.1l-11,9.5c6.6,1.5,11.9,5.1,11.9,13v0.1c0,9.4-7.5,15.4-17.8,15.4
			C1063.3,524.1,1057.1,520.9,1052.6,515.9z"/>
		<path class="st2" d="M1093.3,516.8l7.3-8.6c3.7,3.2,7.3,5,11.2,5c4.2,0,6.7-2.1,6.7-5.4v-0.1c0-3.4-2.8-5.3-6.8-5.3
			c-2.8,0-5.2,1-7.4,2.3l-7.6-4.3l1.3-23.3h30.9v10.6h-20.8l-0.4,7c2.1-1,4.3-1.6,7.4-1.6c8.3,0,15.8,4.6,15.8,14.6v0.1
			c0,10.2-7.8,16.4-19.1,16.4C1103.8,524.1,1098.1,521.3,1093.3,516.8z"/>
	</g>
	<g>
		<path class="st0" d="M551.7,93.5V13.4H322.5c-0.5,0-1-0.1-1.5-0.2v80.3v148l8.7-21.1c13.5-32.7,45.7-53.8,81.1-52.9l0,0v-74H551.7
			z"/>
		<path class="st1" d="M410.7,167.5c-35.4-0.8-67.6,20.2-81.1,52.9l-8.7,21.1l0,0c10.9-5.2,54.2-9.2,69.5-9.2
			c26.6,0,47.8,6.4,63.7,19.1c15.9,12.7,23.8,30,23.8,51.8c0,22.6-7.7,40.6-23,53.9s-35.6,20-61,20c-19.7,0-38.5-4.5-56.4-13.6
			s-36.6-24.3-49.9-50.6l-48.2,52.9c17.1,29.9,42.9,48.9,68.2,60.6c25.4,11.8,54.3,17.7,86.9,17.7c23.3,0,44.7-3.4,64-10.3
			c19.3-6.8,35.9-16.5,49.7-29s24.4-27.6,32-45.3c7.5-17.7,11.3-37.4,11.3-59.2c0-22.5-3.8-42.2-11.3-58.9s-18.2-30.3-31.3-41.7
			C469.2,165.7,410.7,167.5,410.7,167.5z"/>
	</g>
	<g>
		<path class="st1" d="M279.8,13.2H0v80.1c0,0,100.7,0.1,181.3,0.2C207.3,61,239.7,32.9,279.8,13.2z"/>
		<path class="st0" d="M71.6,436.3H170c0.2-23.4-17.5-211.5,109.9-342.8V13.2C87.8,107.4,73.5,394.1,71.6,436.3z"/>
	</g>
	<g>
		<path class="st0" d="M1003.2,160.6L1003.2,160.6c1.8-0.2,3.6-0.4,5.4-0.4V86.9h122.5V6.8H920.3c-0.5,0-1-0.1-1.5-0.2v80.3v148
			l4.5-11.6C936.4,189.3,967.1,165.3,1003.2,160.6z"/>
		<path class="st1" d="M1138.2,235c-7.5-16.7-18-30.6-31.3-41.7c-13.4-11.1-27.1-21.5-45.3-25.7c-17.2-4-37.5-6.3-47.3-7.2
			c-3.7-0.4-7.4-0.3-11.1,0.2l0,0c-36.1,4.7-66.8,28.7-79.9,62.7l-4.5,11.6c10.9-5.2,54.2-9.2,69.5-9.2c26.6,0,47.8,6.4,63.7,19.1
			c15.9,12.7,23.8,30,23.8,51.8c0,22.6-7.7,40.6-23,53.9s-35.6,20-61,20c-19.7,0-47.9-7.5-65.9-16.6c0,0-6.8,34.8-30.4,61.3
			c0,0,11.4,5.3,11.4,5.4c25,11.3,53.4,17,85.4,17c23.3,0,44.7-3.4,64-10.3c19.3-6.8,35.9-16.5,49.7-29c13.8-12.5,24.4-27.6,32-45.3
			c7.5-17.7,11.3-37.4,11.3-59.2C1149.5,271.3,1145.7,251.7,1138.2,235z"/>
	</g>
</g>
</svg>
