<?xml version="1.0" encoding="utf-8"?>
<!-- Generator: Adobe Illustrator 27.4.1, SVG Export Plug-In . SVG Version: 6.00 Build 0)  -->
<svg version="1.1" xmlns="http://www.w3.org/2000/svg" xmlns:xlink="http://www.w3.org/1999/xlink" x="0px" y="0px"
	 width="1210.1px" height="585.3px" viewBox="0 0 1210.1 585.3" style="enable-background:new 0 0 1210.1 585.3;"
	 xml:space="preserve">
<style type="text/css">
	.st0{opacity:0.5;fill:#00B4CD;}
	.st1{fill:#00B4CD;}
	.st2{fill:#FFFFFF;}
	.st3{fill:#9BCED9;}
	.st4{opacity:0.5;fill:#FFFFFF;}
</style>
<g id="Layer_1">
	<g>
		<path class="st3" d="M693.1,340c0-0.4-0.1-0.8-0.1-1.1l-73.1,0.5c0.1,31.7,17.3,63.9,27.7,74.6c49.3,51,112.3,47.6,126.7,47
			c39.9-1.5,70.1-10.3,92.6-23.7c-43.5-4.5-85.9-17.4-123.1-39.3C717.3,390.1,696.2,370.2,693.1,340z"/>
		<path class="st1" d="M767.3,72.8c20.8-1.2,42.4,6.1,58.9,22c9.4,9,14.4,27,14.4,36.3c0,44.9-35.4,73.4-81.8,75.4l-0.1,19.8
			l-0.1,27.5c55.3,4.9,83.5,29.3,88.7,76.7c3.4,31.1-21.1,59-51.2,67.4c-17.5,4.9-36,4.8-52.3-0.1c37.2,21.9,79.6,34.8,123.1,39.3
			c43.5-25.9,58.1-68.9,58.1-109.4c0-91.2-72-102.2-72-102.2s58.2-29.3,56.1-102.7c-0.5-17.8-7.2-35.8-18.7-51.7
			C852.9,55.6,809.3,61.3,767.3,72.8z"/>
		<path class="st3" d="M778.9,17.1c-10,0-155.8-9.1-155.8,115.8l78,0c0-9.8,3.5-19,9-27.4C723.5,85,745,74,767.3,72.8
			c41.9-11.5,85.5-17.1,123.1-1.5C868.2,40.3,827.7,17,778.9,17.1z"/>
	</g>
	<path class="st1" d="M622.9,259.6v6.8h-20.8v-75.5h20.8v27c4.1-4.7,9.1-8.7,18-8.7c14.2,0,26.3,11.1,26.3,29v0.2
		c0,18.2-12.2,29.3-26.2,29.3C632.1,267.7,626.8,263.8,622.9,259.6z M646.9,238.5v-0.2c0-7.5-5.5-12.7-12.2-12.7
		c-6.8,0-12.2,5.3-12.2,12.7v0.2c0,7.5,5.4,12.7,12.2,12.7C641.4,251.2,646.9,246,646.9,238.5z"/>
	<path class="st1" d="M710.4,210.4h21.4l-21.7,54.6c-5.2,13.1-10.8,18.2-22.6,18.2c-7.4,0-13.5-1.9-19-4.9l6.4-13.8
		c3.4,1.9,6.8,3,9.1,3c2.1,0,3.5-0.5,4.9-2.3l-23.3-54.9h21.7l11.9,33.7L710.4,210.4z"/>
	<g>
		<path class="st3" d="M582,110.5V30.4H352.8c-0.5,0-1-0.1-1.5-0.2v80.3v148l8.7-21.1c13.5-32.7,45.7-53.8,81.1-52.9h0v-74H582z"/>
		<path class="st1" d="M441,184.5c-35.4-0.8-67.6,20.2-81.1,52.9l-8.7,21.1l0,0c10.9-5.2,54.2-9.2,69.5-9.2
			c26.6,0,47.8,6.4,63.7,19.1c15.9,12.7,23.8,30,23.8,51.8c0,22.6-7.7,40.6-23,53.9c-15.3,13.3-35.6,20-61,20
			c-19.7,0-38.5-4.5-56.4-13.6c-17.9-9.1-36.6-24.3-49.9-50.6l-48.2,52.9c17.1,29.9,42.9,48.9,68.2,60.6
			c25.4,11.8,54.3,17.7,86.9,17.7c23.3,0,44.7-3.4,64-10.3c19.3-6.8,35.9-16.5,49.7-29c13.8-12.5,24.4-27.6,32-45.3
			c7.5-17.7,11.3-37.4,11.3-59.2c0-22.5-3.8-42.2-11.3-58.9c-7.5-16.7-18.2-30.3-31.3-41.7C499.5,182.7,441,184.5,441,184.5z"/>
	</g>
	<g>
		<path class="st1" d="M310.1,30.2H30.3v80.1c0,0,100.7,0.1,181.3,0.2C237.6,78,270,49.9,310.1,30.2z"/>
		<path class="st3" d="M101.9,453.3h98.4c0.2-23.4-17.5-211.5,109.9-342.8V30.2C118.1,124.4,103.8,411.1,101.9,453.3z"/>
	</g>
	<path class="st3" d="M1033.5,177.6L1033.5,177.6c1.8-0.2,3.6-0.4,5.4-0.4v-73.3h122.5V23.8H950.6c-0.5,0-1-0.1-1.5-0.2v80.3v148
		l4.5-11.6C966.7,206.3,997.4,182.3,1033.5,177.6z"/>
	<path class="st1" d="M1168.5,252c-7.5-16.7-18-30.6-31.3-41.7c-13.4-11.1-27.1-21.5-45.3-25.7c-17.2-4-37.5-6.3-47.3-7.2
		c-3.7-0.4-7.4-0.3-11.1,0.2l0,0c-36.1,4.7-66.8,28.7-79.9,62.7l-4.5,11.6c10.9-5.2,54.2-9.2,69.5-9.2c26.6,0,47.8,6.4,63.7,19.1
		c15.9,12.7,23.8,30,23.8,51.8c0,22.6-7.7,40.6-23,53.9c-15.3,13.3-35.6,20-61,20c-19.7,0-47.9-7.5-65.9-16.6
		c0,0-6.8,34.8-30.4,61.3c0,0,11.4,5.3,11.4,5.4c25,11.3,53.4,17,85.4,17c23.3,0,44.7-3.4,64-10.3c19.3-6.8,35.9-16.5,49.7-29
		c13.8-12.5,24.4-27.6,32-45.3c7.5-17.7,11.3-37.4,11.3-59.2C1179.8,288.3,1176,268.7,1168.5,252z"/>
</g>
<g id="Isolation_Mode">
	<g>
		<path class="st1" d="M45.1,519.8v-0.1c0-14.8,11.3-26.5,26.8-26.5c10.4,0,17.1,4.4,21.6,10.5L82.8,512c-2.9-3.6-6.3-6-11.1-6
			c-7.1,0-12.1,6.1-12.1,13.5v0.1c0,7.6,5,13.6,12.1,13.6c5.3,0,8.4-2.5,11.5-6.2l10.6,7.6c-4.8,6.6-11.3,11.5-22.5,11.5
			C56.8,546.1,45.1,535,45.1,519.8z"/>
		<path class="st1" d="M98.8,531.4v-25.7h13.8v21.3c0,4.3,2.3,6.6,5.6,6.6c3.3,0,5.8-2.3,5.8-6.6v-21.3h13.7v39.3H124v-5.5
			c-2.5,3.3-6.2,6.3-11.8,6.3C103.9,546,98.8,540.4,98.8,531.4z"/>
		<path class="st1" d="M147.6,532.9v-16.1H143v-11h4.7v-10h13.7v10h9.2v11h-9.2v13.4c0,2.8,1.2,3.9,3.8,3.9c1.8,0,3.6-0.5,5.2-1.3
			v10.8c-2.5,1.4-5.7,2.3-9.6,2.3C152.5,545.9,147.6,542.3,147.6,532.9z"/>
		<path class="st1" d="M195.1,525.6v-0.1c0-11.5,8.2-20.6,19.8-20.6c13.5,0,19.8,10,19.8,21.5c0,0.9,0,1.9-0.1,2.8h-26.3
			c1.1,4.3,4.2,6.5,8.5,6.5c3.3,0,5.9-1.2,8.7-4l7.6,6.3c-3.8,4.8-9.2,8-17,8C203.8,546.1,195.1,537.8,195.1,525.6z M221.8,522.2
			c-0.5-4.4-3.1-7.1-6.9-7.1c-3.6,0-6.1,2.8-6.8,7.1H221.8z"/>
		<path class="st1" d="M240.7,505.8h13.8v5.4c2.5-3.3,6.2-6.3,11.7-6.3c5.2,0,9.2,2.3,11.3,6.4c3.4-3.9,7.4-6.4,13.2-6.4
			c8.4,0,13.4,5.2,13.4,14.4v25.8h-13.8v-21.4c0-4.3-2.1-6.6-5.4-6.6c-3.3,0-5.7,2.3-5.7,6.6v21.4h-13.7v-21.4
			c0-4.3-2.2-6.6-5.5-6.6c-3.3,0-5.6,2.3-5.6,6.6v21.4h-13.8V505.8z"/>
		<path class="st1" d="M311.3,492h14.3v10.2h-14.3V492z M311.6,505.8h13.7v39.3h-13.7V505.8z"/>
		<path class="st1" d="M330.2,540.1l5.2-8.3c4.5,3,9.4,4.5,13.4,4.5c2.4,0,3.6-0.7,3.6-2.1v-0.1c0-1.6-2.3-2.3-6.4-3.4
			c-7.8-2-14-4.7-14-12.5V518c0-8.4,6.7-13,15.8-13c5.7,0,11.7,1.7,16.2,4.6l-4.7,8.7c-4.1-2.3-8.5-3.7-11.6-3.7
			c-2.1,0-3.2,0.8-3.2,2v0.1c0,1.5,2.3,2.3,6.4,3.5c7.8,2.2,14,4.9,14,12.5v0.1c0,8.7-6.5,13.2-16.1,13.2
			C342.1,546,335.6,544,330.2,540.1z"/>
		<path class="st1" d="M366.9,540.1l5.2-8.3c4.5,3,9.4,4.5,13.4,4.5c2.4,0,3.6-0.7,3.6-2.1v-0.1c0-1.6-2.3-2.3-6.4-3.4
			c-7.8-2-14-4.7-14-12.5V518c0-8.4,6.7-13,15.8-13c5.7,0,11.7,1.7,16.2,4.6l-4.7,8.7c-4.1-2.3-8.5-3.7-11.6-3.7
			c-2.1,0-3.2,0.8-3.2,2v0.1c0,1.5,2.3,2.3,6.4,3.5c7.8,2.2,14,4.9,14,12.5v0.1c0,8.7-6.5,13.2-16.1,13.2
			C378.8,546,372.2,544,366.9,540.1z"/>
		<path class="st1" d="M407.2,492h14.3v10.2h-14.3V492z M407.5,505.8h13.7v39.3h-13.7V505.8z"/>
		<path class="st1" d="M427.5,525.6v-0.1c0-11.2,9.2-20.6,21.7-20.6c12.6,0,21.7,9.2,21.7,20.4v0.1c0,11.2-9.2,20.6-21.8,20.6
			C436.6,546.1,427.5,536.8,427.5,525.6z M457.5,525.6v-0.1c0-4.9-3.6-8.9-8.4-8.9c-5,0-8.2,4-8.2,8.8v0.1c0,4.8,3.5,8.9,8.4,8.9
			C454.2,534.4,457.5,530.4,457.5,525.6z"/>
		<path class="st1" d="M476.7,505.8h13.8v5.5c2.5-3.3,6.2-6.4,11.8-6.4c8.4,0,13.4,5.5,13.4,14.5v25.7h-13.7v-21.3
			c0-4.4-2.3-6.7-5.6-6.7s-5.8,2.3-5.8,6.7v21.3h-13.8V505.8z"/>
		<path class="st1" d="M519.9,540.1l5.2-8.3c4.5,3,9.4,4.5,13.4,4.5c2.4,0,3.6-0.7,3.6-2.1v-0.1c0-1.6-2.3-2.3-6.4-3.4
			c-7.8-2-14-4.7-14-12.5V518c0-8.4,6.7-13,15.8-13c5.7,0,11.7,1.7,16.2,4.6l-4.7,8.7c-4.1-2.3-8.5-3.7-11.6-3.7
			c-2.1,0-3.2,0.8-3.2,2v0.1c0,1.5,2.3,2.3,6.4,3.5c7.8,2.2,14,4.9,14,12.5v0.1c0,8.7-6.5,13.2-16.1,13.2
			C531.8,546,525.2,544,519.9,540.1z"/>
		<path class="st1" d="M594.1,540.3v4.8h-13.8V492h13.8v19c2.7-3.3,6-6.1,11.9-6.1c9.4,0,17.4,7.8,17.4,20.4v0.1
			c0,12.8-8.1,20.6-17.4,20.6C600.1,546,596.6,543.3,594.1,540.3z M609.9,525.5v-0.1c0-5.2-3.6-8.9-8.1-8.9c-4.5,0-8.1,3.7-8.1,8.9
			v0.1c0,5.2,3.6,8.9,8.1,8.9C606.3,534.4,609.9,530.8,609.9,525.5z"/>
		<path class="st1" d="M654.4,505.8h14.2l-14.4,38.4c-3.4,9.2-7.1,12.8-15,12.8c-4.9,0-8.9-1.3-12.6-3.4l4.2-9.7
			c2.3,1.3,4.5,2.1,6,2.1c1.4,0,2.3-0.4,3.3-1.6l-15.4-38.6h14.4l7.9,23.7L654.4,505.8z"/>
		<path class="st1" d="M716.4,506.1h-23.6v-11.8H732v10.6l-22.5,40.3H694L716.4,506.1z"/>
		<path class="st1" d="M733.8,538.1l8.1-9.5c4.1,3.5,8,5.5,12.4,5.5c4.7,0,7.4-2.3,7.4-6V528c0-3.7-3.1-5.9-7.5-5.9
			c-3.1,0-5.7,1.1-8.1,2.5l-8.4-4.7l1.5-25.7h34v11.6h-22.9l-0.4,7.7c2.3-1.1,4.7-1.8,8.1-1.8c9.2,0,17.4,5.1,17.4,16.1v0.1
			c0,11.3-8.7,18.1-21,18.1C745.3,546.1,739.1,543,733.8,538.1z"/>
		<path class="st1" d="M780.7,507.3v-0.1c0-7.5,5.2-13.7,13.2-13.7s13.1,6.1,13.1,13.6v0.1c0,7.4-5.3,13.6-13.2,13.6
			C786,520.8,780.7,514.7,780.7,507.3z M825.5,494.2h9.8l-21.7,27.7l-17.6,23.2h-9.8l21.4-27.4L825.5,494.2z M789.5,507.1v0.1
			c0,3.2,1.9,5.7,4.3,5.7c2.5,0,4.2-2.4,4.2-5.6v-0.1c0-3.3-1.8-5.7-4.3-5.7C791.2,501.4,789.5,503.8,789.5,507.1z M814.7,532.2
			v-0.1c0-7.5,5.2-13.7,13.2-13.7c7.9,0,13.1,6.1,13.1,13.6v0.1c0,7.4-5.3,13.7-13.2,13.7C819.9,545.8,814.7,539.7,814.7,532.2z
			 M832.1,532.2v-0.1c0-3.3-1.8-5.7-4.3-5.7c-2.6,0-4.2,2.4-4.2,5.7v0.1c0,3.2,1.9,5.7,4.3,5.7C830.3,537.8,832.1,535.4,832.1,532.2
			z"/>
		<path class="st1" d="M881.1,540.3v4.8h-13.8V492h13.8v19c2.7-3.3,6-6.1,11.9-6.1c9.4,0,17.4,7.8,17.4,20.4v0.1
			c0,12.8-8.1,20.6-17.4,20.6C887.2,546,883.7,543.3,881.1,540.3z M897,525.5v-0.1c0-5.2-3.6-8.9-8.1-8.9c-4.5,0-8.1,3.7-8.1,8.9
			v0.1c0,5.2,3.6,8.9,8.1,8.9C893.3,534.4,897,530.8,897,525.5z"/>
		<path class="st1" d="M941.5,505.8h14.2l-14.4,38.4c-3.4,9.2-7.1,12.8-15,12.8c-4.9,0-8.9-1.3-12.6-3.4l4.2-9.7
			c2.3,1.3,4.5,2.1,6,2.1c1.4,0,2.3-0.4,3.3-1.6l-15.4-38.6h14.4l7.9,23.7L941.5,505.8z"/>
		<path class="st1" d="M979,534.5l19-14.5c4.7-3.7,6.6-6.1,6.6-9.2c0-3.3-2.3-5.2-5.7-5.2c-3.4,0-6.1,2-10.1,6.6l-9.5-7.9
			c5.5-7.1,10.9-10.9,20.7-10.9c11.1,0,18.8,6.6,18.8,16.2v0.1c0,8.1-4.2,12.4-11.8,17.8l-8.7,6.1h21v11.5H979V534.5z"/>
		<path class="st1" d="M1024.9,519.8v-0.1c0-14.4,9.2-26.5,23.6-26.5s23.5,11.9,23.5,26.3v0.1c0,14.4-9.1,26.5-23.6,26.5
			C1033.9,546.1,1024.9,534.2,1024.9,519.8z M1057.8,519.8v-0.1c0-8.1-3.8-14-9.5-14c-5.6,0-9.3,5.7-9.3,13.9v0.1
			c0,8.1,3.8,14,9.5,14C1054.2,533.6,1057.8,527.9,1057.8,519.8z"/>
		<path class="st1" d="M1074.8,537.1l8.9-8.9c3.6,3.7,7.4,5.8,12.1,5.8c4,0,6.5-2,6.5-5.2v-0.1c0-3.3-2.9-5.2-8.3-5.2h-6l-2-7.3
			l11.6-10.5h-19.4v-11.4h36.7v10l-12.1,10.5c7.3,1.6,13.2,5.6,13.2,14.3v0.1c0,10.3-8.3,16.9-19.6,16.9
			C1086.7,546.1,1079.9,542.6,1074.8,537.1z"/>
		<path class="st1" d="M1119.8,538.1l8.1-9.5c4.1,3.5,8,5.5,12.4,5.5c4.7,0,7.4-2.3,7.4-6V528c0-3.7-3.1-5.9-7.5-5.9
			c-3.1,0-5.7,1.1-8.1,2.5l-8.4-4.7l1.5-25.7h34v11.6h-22.9l-0.4,7.7c2.3-1.1,4.7-1.8,8.1-1.8c9.2,0,17.4,5.1,17.4,16.1v0.1
			c0,11.3-8.7,18.1-21,18.1C1131.3,546.1,1125.1,543,1119.8,538.1z"/>
	</g>
</g>
</svg>
