<?xml version="1.0" encoding="UTF-8"?>
<svg id="Layer_1" data-name="Layer 1" xmlns="http://www.w3.org/2000/svg" width="587.4" height="272.88" viewBox="0 0 587.4 272.88">
  <defs>
    <style>
      .cls-1, .cls-2 {
        fill: #00b4cc;
      }

      .cls-3 {
        fill: #00aaca;
      }

      .cls-2 {
        opacity: .5;
      }
    </style>
  </defs>
  <g>
    <path class="cls-2" d="m338.71,165.08c-.02-.19-.04-.39-.06-.59l-37.37.24c.04,16.2,8.84,32.64,14.15,38.13,25.18,26.05,57.41,24.3,64.73,24.02,20.41-.77,35.84-5.27,47.34-12.11-22.22-2.32-43.89-8.88-62.91-20.1-13.51-3.98-24.29-14.14-25.88-29.6Z"/>
    <path class="cls-1" d="m376.64,28.53c10.63-.59,21.65,3.11,30.1,11.26,4.79,4.62,7.35,13.78,7.35,18.55,0,22.93-18.1,37.53-41.82,38.54l-.04,10.13-.05,14.05c28.26,2.51,42.67,14.99,45.31,39.19,1.73,15.87-10.8,30.13-26.16,34.46-8.94,2.52-18.37,2.43-26.75-.03,19.03,11.22,40.69,17.78,62.91,20.1,22.25-13.23,29.71-35.22,29.71-55.89,0-46.58-36.78-52.23-36.78-52.23,0,0,29.75-14.97,28.68-52.49-.26-9.11-3.67-18.28-9.54-26.42-19.22-7.97-41.5-5.1-62.93.79Z"/>
    <path class="cls-2" d="m382.55.07c-5.13,0-79.62-4.63-79.62,59.19l39.87.02c0-4.99,1.81-9.7,4.61-14.01,6.82-10.48,17.8-16.1,29.24-16.74,21.43-5.88,43.71-8.76,62.93-.79C428.17,11.94,407.5.02,382.55.07Z"/>
  </g>
  <g>
    <path class="cls-1" d="m302.86,124v3.49h-10.65v-38.6h10.65v13.8c2.07-2.38,4.65-4.44,9.2-4.44,7.23,0,13.46,5.66,13.46,14.8v.11c0,9.31-6.22,14.96-13.4,14.96-4.6,0-7.29-1.96-9.25-4.12Zm12.22-10.79v-.11c0-3.81-2.8-6.5-6.22-6.5s-6.22,2.7-6.22,6.5v.11c0,3.81,2.75,6.5,6.22,6.5s6.22-2.64,6.22-6.5Z"/>
    <path class="cls-1" d="m347.54,98.88h10.93l-11.1,27.92c-2.64,6.71-5.5,9.31-11.55,9.31-3.76,0-6.9-.95-9.7-2.49l3.25-7.03c1.74.95,3.48,1.53,4.65,1.53,1.07,0,1.79-.26,2.52-1.16l-11.89-28.08h11.1l6.06,17.24,5.72-17.24Z"/>
  </g>
  <g>
    <path class="cls-3" d="m18.48,249.29H7.56v-5.49h18.17v4.92l-10.41,18.67h-7.21l10.38-18.1Z"/>
    <path class="cls-3" d="m26.53,264.12l3.74-4.38c1.89,1.62,3.71,2.56,5.73,2.56,2.16,0,3.44-1.08,3.44-2.76v-.07c0-1.72-1.42-2.73-3.47-2.73-1.45,0-2.66.51-3.77,1.18l-3.88-2.19.67-11.93h15.77v5.39h-10.62l-.2,3.57c1.08-.51,2.19-.84,3.77-.84,4.25,0,8.09,2.36,8.09,7.48v.07c0,5.22-4.01,8.39-9.74,8.39-4.18,0-7.08-1.45-9.54-3.74Z"/>
    <path class="cls-3" d="m48.27,249.86v-.07c0-3.47,2.43-6.34,6.1-6.34s6.07,2.83,6.07,6.3v.07c0,3.44-2.46,6.3-6.1,6.3s-6.07-2.83-6.07-6.27Zm20.8-6.07h4.55l-10.04,12.84-8.16,10.75h-4.55l9.94-12.71,8.26-10.89Zm-16.68,5.97v.07c0,1.48.88,2.63,1.99,2.63s1.95-1.11,1.95-2.6v-.07c0-1.52-.84-2.66-1.99-2.66s-1.95,1.11-1.95,2.63Zm11.66,11.66v-.07c0-3.47,2.39-6.34,6.1-6.34s6.07,2.83,6.07,6.3v.07c0,3.44-2.46,6.34-6.1,6.34s-6.07-2.86-6.07-6.3Zm8.06,0v-.07c0-1.52-.84-2.66-1.99-2.66-1.21,0-1.95,1.11-1.95,2.63v.07c0,1.48.88,2.63,1.99,2.63s1.95-1.11,1.95-2.6Z"/>
    <path class="cls-3" d="m87.74,258.36v-.07c0-5.33,3.81-9.54,9.2-9.54,6.27,0,9.17,4.62,9.17,9.98,0,.4,0,.88-.03,1.31h-12.2c.51,1.99,1.95,3,3.94,3,1.55,0,2.73-.57,4.04-1.85l3.54,2.93c-1.75,2.22-4.28,3.71-7.89,3.71-5.73,0-9.77-3.84-9.77-9.47Zm12.4-1.58c-.24-2.02-1.45-3.3-3.2-3.3s-2.83,1.28-3.17,3.3h6.37Z"/>
    <path class="cls-3" d="m108.87,249.16h6.4v2.49c1.18-1.52,2.86-2.9,5.43-2.9,2.43,0,4.28,1.08,5.26,2.97,1.58-1.82,3.44-2.97,6.1-2.97,3.88,0,6.24,2.43,6.24,6.67v11.96h-6.4v-9.91c0-1.99-.98-3.07-2.49-3.07s-2.63,1.08-2.63,3.07v9.91h-6.37v-9.91c0-1.99-1.01-3.07-2.53-3.07s-2.6,1.08-2.6,3.07v9.91h-6.4v-18.23Z"/>
    <path class="cls-3" d="m141.63,242.79h6.64v4.72h-6.64v-4.72Zm.13,6.37h6.37v18.23h-6.37v-18.23Z"/>
    <path class="cls-3" d="m150.39,265.06l2.39-3.84c2.09,1.38,4.35,2.09,6.24,2.09,1.11,0,1.65-.34,1.65-.98v-.07c0-.74-1.04-1.04-2.97-1.58-3.61-.94-6.47-2.16-6.47-5.8v-.07c0-3.88,3.1-6.03,7.31-6.03,2.66,0,5.43.78,7.52,2.12l-2.19,4.04c-1.89-1.08-3.94-1.72-5.39-1.72-.98,0-1.48.37-1.48.91v.07c0,.71,1.08,1.04,2.97,1.62,3.61,1.01,6.47,2.26,6.47,5.8v.07c0,4.01-3,6.1-7.45,6.1-3.07,0-6.1-.91-8.59-2.73Z"/>
    <path class="cls-3" d="m167.38,265.06l2.39-3.84c2.09,1.38,4.35,2.09,6.24,2.09,1.11,0,1.65-.34,1.65-.98v-.07c0-.74-1.04-1.04-2.97-1.58-3.61-.94-6.47-2.16-6.47-5.8v-.07c0-3.88,3.1-6.03,7.31-6.03,2.66,0,5.43.78,7.52,2.12l-2.19,4.04c-1.89-1.08-3.94-1.72-5.39-1.72-.98,0-1.48.37-1.48.91v.07c0,.71,1.08,1.04,2.97,1.62,3.61,1.01,6.47,2.26,6.47,5.8v.07c0,4.01-3,6.1-7.45,6.1-3.07,0-6.1-.91-8.59-2.73Z"/>
    <path class="cls-3" d="m186.08,242.79h6.64v4.72h-6.64v-4.72Zm.13,6.37h6.37v18.23h-6.37v-18.23Z"/>
    <path class="cls-3" d="m195.48,258.36v-.07c0-5.19,4.25-9.54,10.08-9.54s10.04,4.28,10.04,9.47v.07c0,5.19-4.25,9.54-10.11,9.54s-10.01-4.28-10.01-9.47Zm13.92,0v-.07c0-2.26-1.65-4.15-3.91-4.15s-3.81,1.85-3.81,4.08v.07c0,2.22,1.62,4.11,3.88,4.11s3.84-1.85,3.84-4.04Z"/>
    <path class="cls-3" d="m218.3,249.16h6.4v2.56c1.18-1.52,2.86-2.97,5.46-2.97,3.88,0,6.2,2.56,6.2,6.71v11.93h-6.37v-9.88c0-2.02-1.05-3.1-2.6-3.1s-2.7,1.08-2.7,3.1v9.88h-6.4v-18.23Z"/>
    <path class="cls-3" d="m238.32,265.06l2.39-3.84c2.09,1.38,4.35,2.09,6.24,2.09,1.11,0,1.65-.34,1.65-.98v-.07c0-.74-1.04-1.04-2.97-1.58-3.61-.94-6.47-2.16-6.47-5.8v-.07c0-3.88,3.1-6.03,7.31-6.03,2.66,0,5.43.78,7.52,2.12l-2.19,4.04c-1.89-1.08-3.94-1.72-5.39-1.72-.98,0-1.48.37-1.48.91v.07c0,.71,1.08,1.04,2.97,1.62,3.61,1.01,6.47,2.26,6.47,5.8v.07c0,4.01-3,6.1-7.45,6.1-3.07,0-6.1-.91-8.59-2.73Z"/>
    <path class="cls-3" d="m266.33,249.16h6.4v3.67c1.04-2.49,2.73-4.11,5.76-3.98v6.74h-.54c-3.34,0-5.22,1.92-5.22,6.1v5.7h-6.4v-18.23Z"/>
    <path class="cls-3" d="m279.71,258.36v-.07c0-5.33,3.81-9.54,9.2-9.54,6.27,0,9.17,4.62,9.17,9.98,0,.4,0,.88-.03,1.31h-12.2c.51,1.99,1.95,3,3.94,3,1.55,0,2.73-.57,4.04-1.85l3.54,2.93c-1.75,2.22-4.28,3.71-7.89,3.71-5.73,0-9.77-3.84-9.77-9.47Zm12.4-1.58c-.24-2.02-1.45-3.3-3.2-3.3s-2.83,1.28-3.17,3.3h6.37Z"/>
    <path class="cls-3" d="m300.17,258.36v-.07c0-5.93,3.74-9.54,8.06-9.54,2.76,0,4.38,1.25,5.56,2.63v-8.59h6.4v24.6h-6.4v-2.43c-1.25,1.52-2.8,2.83-5.53,2.83-4.35,0-8.09-3.61-8.09-9.44Zm13.75-.07v-.07c0-2.39-1.65-4.15-3.74-4.15s-3.74,1.72-3.74,4.15v.07c0,2.43,1.69,4.15,3.74,4.15s3.74-1.72,3.74-4.15Z"/>
    <path class="cls-3" d="m323.49,261.05v-11.9h6.4v9.88c0,1.99,1.04,3.07,2.6,3.07s2.7-1.08,2.7-3.07v-9.88h6.37v18.23h-6.37v-2.53c-1.18,1.52-2.86,2.93-5.46,2.93-3.88,0-6.24-2.6-6.24-6.74Z"/>
    <path class="cls-3" d="m344.28,258.36v-.07c0-5.16,3.98-9.5,9.74-9.5,3.74,0,6.24,1.62,7.79,4.04l-4.31,3.24c-.91-1.18-1.89-1.92-3.4-1.92-2.09,0-3.61,1.85-3.61,4.08v.07c0,2.36,1.48,4.15,3.64,4.15,1.55,0,2.53-.71,3.51-1.89l4.28,3.1c-1.69,2.49-4.11,4.18-8.09,4.18-5.53,0-9.54-4.31-9.54-9.47Z"/>
    <path class="cls-3" d="m365.31,261.73v-7.45h-2.16v-5.12h2.16v-4.62h6.37v4.62h4.25v5.12h-4.25v6.2c0,1.28.57,1.82,1.75,1.82.84,0,1.65-.24,2.43-.61v4.99c-1.15.64-2.66,1.08-4.45,1.08-3.84,0-6.1-1.69-6.1-6.03Z"/>
    <path class="cls-3" d="m378.73,242.79h6.64v4.72h-6.64v-4.72Zm.13,6.37h6.37v18.23h-6.37v-18.23Z"/>
    <path class="cls-3" d="m388.13,258.36v-.07c0-5.19,4.25-9.54,10.08-9.54s10.04,4.28,10.04,9.47v.07c0,5.19-4.25,9.54-10.11,9.54s-10.01-4.28-10.01-9.47Zm13.92,0v-.07c0-2.26-1.65-4.15-3.91-4.15s-3.81,1.85-3.81,4.08v.07c0,2.22,1.62,4.11,3.88,4.11s3.84-1.85,3.84-4.04Z"/>
    <path class="cls-3" d="m410.95,249.16h6.4v2.56c1.18-1.52,2.86-2.97,5.46-2.97,3.88,0,6.2,2.56,6.2,6.71v11.93h-6.37v-9.88c0-2.02-1.05-3.1-2.6-3.1s-2.7,1.08-2.7,3.1v9.88h-6.4v-18.23Z"/>
    <path class="cls-3" d="m448.05,265.17v2.22h-6.4v-24.6h6.4v8.8c1.25-1.52,2.8-2.83,5.53-2.83,4.35,0,8.09,3.61,8.09,9.44v.07c0,5.93-3.74,9.54-8.06,9.54-2.76,0-4.38-1.25-5.56-2.63Zm7.35-6.88v-.07c0-2.43-1.69-4.15-3.74-4.15s-3.74,1.72-3.74,4.15v.07c0,2.43,1.65,4.15,3.74,4.15s3.74-1.69,3.74-4.15Z"/>
    <path class="cls-3" d="m476.03,249.16h6.57l-6.67,17.8c-1.58,4.28-3.3,5.93-6.94,5.93-2.26,0-4.15-.61-5.83-1.58l1.95-4.48c1.04.61,2.09.98,2.8.98.64,0,1.08-.17,1.52-.74l-7.15-17.9h6.67l3.64,10.99,3.44-10.99Z"/>
    <path class="cls-3" d="m493.42,262.47l8.83-6.74c2.19-1.72,3.07-2.83,3.07-4.25,0-1.52-1.04-2.43-2.66-2.43s-2.83.94-4.68,3.07l-4.42-3.67c2.53-3.27,5.06-5.06,9.61-5.06,5.16,0,8.7,3.07,8.7,7.52v.07c0,3.77-1.95,5.73-5.46,8.26l-4.04,2.83h9.74v5.33h-18.67v-4.92Z"/>
    <path class="cls-3" d="m514.72,255.66v-.07c0-6.67,4.25-12.27,10.95-12.27s10.89,5.53,10.89,12.2v.07c0,6.67-4.21,12.27-10.95,12.27s-10.89-5.53-10.89-12.2Zm15.27,0v-.07c0-3.77-1.75-6.5-4.38-6.5s-4.31,2.66-4.31,6.44v.07c0,3.77,1.75,6.47,4.38,6.47s4.31-2.66,4.31-6.4Z"/>
    <path class="cls-3" d="m537.87,263.68l4.15-4.11c1.69,1.72,3.44,2.7,5.63,2.7,1.85,0,3-.94,3-2.39v-.07c0-1.52-1.35-2.43-3.84-2.43h-2.76l-.91-3.4,5.39-4.89h-9v-5.29h17.02v4.65l-5.63,4.85c3.37.74,6.1,2.6,6.1,6.64v.07c0,4.79-3.84,7.85-9.1,7.85-4.55,0-7.72-1.65-10.04-4.18Z"/>
    <path class="cls-3" d="m558.7,264.12l3.74-4.38c1.89,1.62,3.71,2.56,5.73,2.56,2.16,0,3.44-1.08,3.44-2.76v-.07c0-1.72-1.42-2.73-3.47-2.73-1.45,0-2.66.51-3.77,1.18l-3.88-2.19.67-11.93h15.77v5.39h-10.62l-.2,3.57c1.08-.51,2.19-.84,3.77-.84,4.25,0,8.09,2.36,8.09,7.48v.07c0,5.22-4.01,8.39-9.74,8.39-4.18,0-7.08-1.45-9.54-3.74Z"/>
  </g>
  <g>
    <path class="cls-2" d="m281.91,47.82V6.9h-117.1c-.27,0-.53-.04-.79-.1v116.66l4.44-10.8c6.88-16.73,23.36-27.48,41.44-27.05h0v-37.79h72.01Z"/>
    <path class="cls-1" d="m209.9,85.61c-18.08-.43-34.56,10.32-41.44,27.05l-4.44,10.8h0c5.55-2.67,27.7-4.72,35.52-4.72,13.57,0,24.42,3.25,32.55,9.76,8.12,6.5,12.19,15.33,12.19,26.48s-3.91,20.76-11.73,27.57c-7.82,6.82-18.2,10.22-31.16,10.22-10.07,0-19.69-2.32-28.84-6.94-9.15-4.63-18.71-12.42-25.51-25.83l-24.62,27.02c8.73,15.28,21.9,24.96,34.86,30.97,12.96,6.01,27.76,9.02,44.42,9.02,11.93,0,22.83-1.75,32.72-5.24,9.88-3.5,18.35-8.43,25.4-14.81,7.05-6.37,12.49-14.09,16.33-23.13,3.84-9.05,5.76-19.13,5.76-30.24s-1.92-21.54-5.76-30.08c-3.84-8.53-9.29-15.5-16.02-21.29-20.35-17.5-50.23-16.62-50.23-16.62Z"/>
  </g>
  <g>
    <path class="cls-1" d="m143.01,6.8H0v40.91s51.44.07,92.62.11c13.34-16.61,29.88-30.97,50.39-41.02Z"/>
    <path class="cls-2" d="m36.58,222.97h50.29c.11-11.94-8.94-108.08,56.14-175.16V6.8C44.9,54.9,37.59,201.41,36.58,222.97Z"/>
  </g>
  <g>
    <path class="cls-2" d="m512.65,82.1h0c.91-.12,1.83-.19,2.74-.2v-37.48h62.59V3.5h-107.68c-.27,0-.53-.04-.79-.1v116.66l2.29-5.92c6.72-17.35,22.39-29.65,40.85-32.04Z"/>
    <path class="cls-1" d="m581.64,120.11c-3.84-8.53-9.18-15.62-16.02-21.29-6.84-5.66-13.83-10.98-23.16-13.15-8.78-2.04-19.18-3.2-24.15-3.68-1.89-.18-3.79-.15-5.67.1h0c-18.46,2.4-34.13,14.69-40.85,32.04l-2.29,5.92c5.55-2.67,27.7-4.73,35.52-4.73,13.57,0,24.42,3.25,32.55,9.76,8.12,6.5,12.19,15.33,12.19,26.48s-3.91,20.76-11.73,27.57c-7.82,6.82-18.2,10.22-31.16,10.22-10.07,0-24.5-3.85-33.65-8.48,0,0-3.5,17.8-15.51,31.31,0,0,5.83,2.73,5.85,2.74,12.77,5.77,27.3,8.68,43.63,8.68,11.93,0,22.83-1.75,32.72-5.24,9.88-3.5,18.35-8.43,25.4-14.81,7.05-6.37,12.49-14.09,16.33-23.14,3.84-9.05,5.76-19.13,5.76-30.24s-1.92-21.54-5.76-30.08Z"/>
  </g>
</svg>