<?xml version="1.0" encoding="UTF-8" standalone="no"?>
<!-- Generator: Adobe Illustrator 27.4.1, SVG Export Plug-In . SVG Version: 6.00 Build 0)  -->

<svg
   version="1.1"
   id="Layer_1"
   x="0px"
   y="0px"
   width="701px"
   height="350px"
   viewBox="0 0 701 350"
   style="enable-background:new 0 0 701 350;"
   xml:space="preserve"
   sodipodi:docname="slider-countries-mobile-updated.svg"
   inkscape:version="1.2.2 (732a01da63, 2022-12-09)"
   xmlns:inkscape="http://www.inkscape.org/namespaces/inkscape"
   xmlns:sodipodi="http://sodipodi.sourceforge.net/DTD/sodipodi-0.dtd"
   xmlns="http://www.w3.org/2000/svg"
   xmlns:svg="http://www.w3.org/2000/svg"><defs
   id="defs1550" /><sodipodi:namedview
   id="namedview1548"
   pagecolor="#ffffff"
   bordercolor="#666666"
   borderopacity="1.0"
   inkscape:showpageshadow="2"
   inkscape:pageopacity="0.0"
   inkscape:pagecheckerboard="0"
   inkscape:deskcolor="#d1d1d1"
   showgrid="false"
   inkscape:zoom="1.7261056"
   inkscape:cx="350.5"
   inkscape:cy="174.96033"
   inkscape:window-width="1920"
   inkscape:window-height="1017"
   inkscape:window-x="-8"
   inkscape:window-y="-8"
   inkscape:window-maximized="1"
   inkscape:current-layer="Layer_1" />
<style
   type="text/css"
   id="style1333">
	.st0{fill:#FFFFFF;}
	.st1{enable-background:new    ;}
	.st2{fill:#0D3A4D;}
	.st3{fill:#00B4CD;}
	.st4{opacity:0.846;fill:url(#Rectangle_314_00000182509747258182759630000017299634639956319122_);enable-background:new    ;}
	.st5{opacity:0.846;fill:url(#Rectangle_315_00000054969138652914795720000000097386264965091208_);enable-background:new    ;}
</style>
<path
   id="Rectangle_311"
   class="st0"
   style="fill:#ffffff"
   d="M 0,0 H 700 V 350 H 0 Z" />
<g
   id="Mask_Group_33"
   transform="translate(-131 -4900)">
	<g
   id="Component_9_1"
   transform="translate(199 4927)">
		<g
   class="st1"
   id="g1350">
			<path
   class="st2"
   d="M112.1,9v25.2h-5.8V23.9H94.8v10.3H89V9h5.8v9.9h11.4V9H112.1z"
   id="path1336" />
			<path
   class="st2"
   d="M137.2,14.8v19.4h-5.3v-2.3c-1.5,1.7-3.6,2.6-6,2.6c-4.9,0-8.3-2.7-8.3-8.7V14.9h5.6V25     c0,3.2,1.4,4.7,3.9,4.7c2.6,0,4.5-1.7,4.5-5.2v-9.6L137.2,14.8L137.2,14.8z"
   id="path1338" />
			<path
   class="st2"
   d="M162.2,23.1v11.1h-5.6V24c0-3.1-1.4-4.6-3.9-4.6c-2.7,0-4.6,1.7-4.6,5.2v9.6h-5.6V14.8h5.4v2.3     c1.5-1.7,3.8-2.6,6.4-2.6C158.8,14.5,162.2,17.2,162.2,23.1z"
   id="path1340" />
			<path
   class="st2"
   d="M187.5,14.8v16.1c0,7.2-3.9,10.5-10.9,10.5c-3.7,0-7.2-0.9-9.5-2.7l2.2-4c1.7,1.3,4.4,2.2,6.8,2.2     c4,0,5.7-1.8,5.7-5.3v-0.8c-1.5,1.6-3.6,2.4-6.1,2.4c-5.4,0-9.7-3.7-9.7-9.4s4.3-9.4,9.7-9.4c2.7,0,4.9,0.9,6.4,2.8v-2.5h5.4     V14.8z M181.9,23.9c0-2.8-2.1-4.8-5.1-4.8s-5.1,1.9-5.1,4.8s2.2,4.8,5.1,4.8S181.9,26.7,181.9,23.9z"
   id="path1342" />
			<path
   class="st2"
   d="M209.8,23.1v11.1h-5.3v-2.4c-1,1.8-3.1,2.7-5.9,2.7c-4.5,0-7.2-2.5-7.2-5.9s2.4-5.8,8.3-5.8h4.5     c0-2.4-1.4-3.8-4.5-3.8c-2.1,0-4.2,0.7-5.6,1.8l-2-3.9c2.1-1.5,5.3-2.3,8.4-2.3C206.4,14.5,209.8,17.3,209.8,23.1z M204.2,28.1     v-2h-3.9c-2.6,0-3.5,1-3.5,2.3c0,1.4,1.2,2.3,3.2,2.3S203.6,29.8,204.2,28.1z"
   id="path1344" />
			<path
   class="st2"
   d="M226.9,14.5v5.2c-0.5,0-0.8-0.1-1.3-0.1c-3.1,0-5.1,1.7-5.1,5.4v9.1h-5.6V14.7h5.4v2.6     C221.6,15.5,223.9,14.5,226.9,14.5z"
   id="path1346" />
			<path
   class="st2"
   d="M250.2,14.8l-8.7,20.6c-1.9,4.7-4.5,6.1-8,6.1c-2,0-4.1-0.6-5.4-1.8l2.1-4c0.9,0.8,2.1,1.2,3.2,1.2     c1.5,0,2.4-0.7,3.2-2.4l0.1-0.2l-8.4-19.5h5.8l5.4,13.1l5.5-13.1L250.2,14.8L250.2,14.8z"
   id="path1348" />
		</g>
		<g
   class="st1"
   id="g1364">
			<path
   class="st2"
   d="M110.8,81.1c0,5.6-4.2,9.1-10.9,9.1h-5.1v6.9H89V71.9h10.9C106.6,72,110.8,75.5,110.8,81.1z M104.9,81.1     c0-2.8-1.8-4.4-5.4-4.4h-4.8v8.7h4.8C103.1,85.5,104.9,83.9,104.9,81.1z"
   id="path1352" />
			<path
   class="st2"
   d="M113.1,87.5c0-5.8,4.5-10,10.7-10c6.2,0,10.6,4.1,10.6,10s-4.5,10-10.6,10S113.1,93.3,113.1,87.5z      M128.7,87.5c0-3.3-2.1-5.4-4.9-5.4s-5,2-5,5.4s2.2,5.4,5,5.4S128.7,90.9,128.7,87.5z"
   id="path1354" />
			<path
   class="st2"
   d="M138.1,70.5h5.6v26.7h-5.6V70.5z"
   id="path1356" />
			<path
   class="st2"
   d="M166.1,86.1v11.1h-5.3v-2.4c-1,1.8-3.1,2.7-5.9,2.7c-4.5,0-7.2-2.5-7.2-5.9s2.4-5.8,8.3-5.8h4.5     c0-2.4-1.4-3.8-4.5-3.8c-2.1,0-4.2,0.7-5.6,1.8l-2-3.9c2.1-1.5,5.3-2.3,8.4-2.3C162.7,77.5,166.1,80.3,166.1,86.1z M160.5,91.1     v-2h-3.9c-2.6,0-3.5,1-3.5,2.3c0,1.4,1.2,2.3,3.2,2.3C158.2,93.7,159.8,92.8,160.5,91.1z"
   id="path1358" />
			<path
   class="st2"
   d="M191,86.1v11.1h-5.6V87c0-3.1-1.4-4.6-3.9-4.6c-2.7,0-4.6,1.7-4.6,5.2v9.6h-5.6V77.8h5.4v2.3     c1.5-1.7,3.8-2.6,6.4-2.6C187.5,77.5,191,80.2,191,86.1z"
   id="path1360" />
			<path
   class="st2"
   d="M216,70.5v26.7h-5.4V95c-1.4,1.7-3.5,2.5-6,2.5c-5.5,0-9.7-3.9-9.7-10s4.2-10,9.7-10c2.4,0,4.4,0.8,5.8,2.3     v-9.4h5.6V70.5z M210.5,87.5c0-3.3-2.2-5.4-4.9-5.4c-2.8,0-5,2-5,5.4s2.2,5.4,5,5.4C208.3,92.9,210.5,90.9,210.5,87.5z"
   id="path1362" />
		</g>
		<g
   class="st1"
   id="g1384">
			<path
   class="st2"
   d="M105.6,154.8H93.9l-2.2,5.4h-6L96.9,135h5.8l11.3,25.2h-6.1L105.6,154.8z M103.7,150.4l-4-9.6l-4,9.6H103.7z     "
   id="path1366" />
			<path
   class="st2"
   d="M135.3,140.8v19.4H130v-2.3c-1.5,1.7-3.6,2.6-6,2.6c-4.9,0-8.3-2.7-8.3-8.7v-10.9h5.6V151     c0,3.2,1.4,4.7,3.9,4.7c2.6,0,4.5-1.7,4.5-5.2v-9.6L135.3,140.8L135.3,140.8z"
   id="path1368" />
			<path
   class="st2"
   d="M138.7,158.4l1.9-4c1.7,1.1,4.4,1.9,6.7,1.9c2.6,0,3.6-0.7,3.6-1.8c0-3.2-11.7,0.1-11.7-7.7     c0-3.7,3.3-6.3,9-6.3c2.7,0,5.6,0.6,7.5,1.7l-1.9,4c-1.9-1.1-3.8-1.4-5.6-1.4c-2.5,0-3.6,0.8-3.6,1.8c0,3.3,11.7,0.1,11.7,7.7     c0,3.6-3.3,6.2-9.1,6.2C143.8,160.5,140.5,159.6,138.7,158.4z"
   id="path1370" />
			<path
   class="st2"
   d="M172.1,159.3c-1.2,0.8-2.8,1.2-4.6,1.2c-4.6,0-7.2-2.3-7.2-6.9v-8h-3v-4.3h3v-4.7h5.6v4.7h4.8v4.3H166v7.9     c0,1.7,0.9,2.6,2.4,2.6c0.8,0,1.7-0.3,2.3-0.7L172.1,159.3z"
   id="path1372" />
			<path
   class="st2"
   d="M187.3,140.5v5.2c-0.5,0-0.8-0.1-1.3-0.1c-3.1,0-5.1,1.7-5.1,5.4v9.1h-5.6v-19.4h5.4v2.6     C182,141.5,184.3,140.5,187.3,140.5z"
   id="path1374" />
			<path
   class="st2"
   d="M207.7,149.1v11.1h-5.3v-2.4c-1,1.8-3.1,2.7-5.9,2.7c-4.5,0-7.2-2.5-7.2-5.9s2.4-5.8,8.3-5.8h4.5     c0-2.4-1.4-3.8-4.5-3.8c-2.1,0-4.2,0.7-5.6,1.8l-2-3.9c2.1-1.5,5.3-2.3,8.4-2.3C204.3,140.5,207.7,143.3,207.7,149.1z      M202.1,154.1v-2h-3.9c-2.6,0-3.5,1-3.5,2.3c0,1.4,1.2,2.3,3.2,2.3C199.8,156.7,201.5,155.8,202.1,154.1z"
   id="path1376" />
			<path
   class="st2"
   d="M212.8,133.5h5.6v26.7h-5.6V133.5z"
   id="path1378" />
			<path
   class="st2"
   d="M222.9,135c0-1.8,1.4-3.1,3.5-3.1s3.5,1.3,3.5,3c0,1.9-1.4,3.2-3.5,3.2S222.9,136.8,222.9,135z M223.6,140.8     h5.6v19.4h-5.6V140.8z"
   id="path1380" />
			<path
   class="st2"
   d="M251.6,149.1v11.1h-5.3v-2.4c-1,1.8-3.1,2.7-5.9,2.7c-4.5,0-7.2-2.5-7.2-5.9s2.4-5.8,8.3-5.8h4.5     c0-2.4-1.4-3.8-4.5-3.8c-2.1,0-4.2,0.7-5.6,1.8l-2-3.9c2.1-1.5,5.3-2.3,8.4-2.3C248.2,140.5,251.6,143.3,251.6,149.1z M246,154.1     v-2h-3.9c-2.6,0-3.5,1-3.5,2.3c0,1.4,1.2,2.3,3.2,2.3C243.7,156.7,245.3,155.8,246,154.1z"
   id="path1382" />
		</g>
		<g
   class="st1"
   id="g1402">
			<path
   class="st2"
   d="M111.9,223.2v-15.1l-7.4,12.5h-2.6l-7.4-12.1v14.7H89V198h4.8l9.4,15.7l9.3-15.7h4.8l0.1,25.2H111.9z"
   id="path1386" />
			<path
   class="st2"
   d="M140.1,212.1v11.1h-5.3v-2.4c-1,1.8-3.1,2.7-5.9,2.7c-4.5,0-7.2-2.5-7.2-5.9s2.4-5.8,8.3-5.8h4.5     c0-2.4-1.4-3.8-4.5-3.8c-2.1,0-4.2,0.7-5.6,1.8l-2-3.9c2.1-1.5,5.3-2.3,8.4-2.3C136.7,203.5,140.1,206.3,140.1,212.1z      M134.5,217.1v-2h-3.9c-2.6,0-3.5,1-3.5,2.3c0,1.4,1.2,2.3,3.2,2.3C132.2,219.7,133.8,218.8,134.5,217.1z"
   id="path1388" />
			<path
   class="st2"
   d="M145.2,196.5h5.6v26.7h-5.6V196.5z"
   id="path1390" />
			<path
   class="st2"
   d="M173.2,212.1v11.1h-5.3v-2.4c-1,1.8-3.1,2.7-5.9,2.7c-4.5,0-7.2-2.5-7.2-5.9s2.4-5.8,8.3-5.8h4.5     c0-2.4-1.4-3.8-4.5-3.8c-2.1,0-4.2,0.7-5.6,1.8l-2-3.9c2.1-1.5,5.3-2.3,8.4-2.3C169.7,203.5,173.2,206.3,173.2,212.1z      M167.5,217.1v-2h-3.9c-2.6,0-3.5,1-3.5,2.3c0,1.4,1.2,2.3,3.2,2.3S166.9,218.8,167.5,217.1z"
   id="path1392" />
			<path
   class="st2"
   d="M197.1,203.8l-8.7,20.6c-1.9,4.7-4.5,6.1-8,6.1c-2,0-4.1-0.6-5.4-1.8l2.1-4c0.9,0.8,2.1,1.2,3.2,1.2     c1.5,0,2.4-0.7,3.2-2.4l0.1-0.2l-8.4-19.5h5.8l5.4,13.1l5.5-13.1L197.1,203.8L197.1,203.8z"
   id="path1394" />
			<path
   class="st2"
   d="M197.2,221.4l1.9-4c1.7,1.1,4.4,1.9,6.7,1.9c2.6,0,3.6-0.7,3.6-1.8c0-3.2-11.7,0.1-11.7-7.7     c0-3.7,3.3-6.3,9-6.3c2.7,0,5.6,0.6,7.5,1.7l-1.9,4c-1.9-1.1-3.8-1.4-5.6-1.4c-2.5,0-3.6,0.8-3.6,1.8c0,3.3,11.7,0.1,11.7,7.7     c0,3.6-3.3,6.2-9.1,6.2C202.3,223.5,199,222.6,197.2,221.4z"
   id="path1396" />
			<path
   class="st2"
   d="M217.5,198c0-1.8,1.4-3.1,3.5-3.1s3.5,1.3,3.5,3c0,1.9-1.4,3.2-3.5,3.2S217.5,199.8,217.5,198z M218.2,203.8     h5.6v19.4h-5.6V203.8z"
   id="path1398" />
			<path
   class="st2"
   d="M246.2,212.1v11.1h-5.3v-2.4c-1,1.8-3.1,2.7-5.9,2.7c-4.5,0-7.2-2.5-7.2-5.9s2.4-5.8,8.3-5.8h4.5     c0-2.4-1.4-3.8-4.5-3.8c-2.1,0-4.2,0.7-5.6,1.8l-2-3.9c2.1-1.5,5.3-2.3,8.4-2.3C242.8,203.5,246.2,206.3,246.2,212.1z      M240.6,217.1v-2h-3.9c-2.6,0-3.5,1-3.5,2.3c0,1.4,1.2,2.3,3.2,2.3C238.3,219.7,239.9,218.8,240.6,217.1z"
   id="path1400" />
		</g>
		<g
   class="st1"
   id="g1430">
			<path
   class="st2"
   d="M87.4,273.6c0-7.6,5.8-13,13.7-13c4.4,0,8,1.6,10.4,4.5l-3.7,3.5c-1.7-1.9-3.8-3-6.3-3     c-4.7,0-8.1,3.3-8.1,8.1s3.3,8.1,8.1,8.1c2.5,0,4.6-1,6.3-3l3.7,3.5c-2.4,2.9-6,4.5-10.4,4.5C93.2,286.6,87.4,281.2,87.4,273.6z"
   id="path1404" />
			<path
   class="st2"
   d="M134.8,275.1v11.1h-5.6V276c0-3.1-1.4-4.6-3.9-4.6c-2.7,0-4.6,1.7-4.6,5.2v9.6H115v-26.7h5.6v9.4     c1.5-1.5,3.7-2.3,6.2-2.3C131.3,266.5,134.8,269.2,134.8,275.1z"
   id="path1406" />
			<path
   class="st2"
   d="M139.2,261c0-1.8,1.4-3.1,3.5-3.1s3.5,1.3,3.5,3c0,1.9-1.4,3.2-3.5,3.2C140.6,264.1,139.2,262.8,139.2,261z      M139.9,266.8h5.6v19.4h-5.6V266.8z"
   id="path1408" />
			<path
   class="st2"
   d="M170.5,275.1v11.1h-5.6V276c0-3.1-1.4-4.6-3.9-4.6c-2.7,0-4.6,1.7-4.6,5.2v9.6h-5.6v-19.4h5.4v2.3     c1.5-1.7,3.8-2.6,6.4-2.6C167,266.5,170.5,269.2,170.5,275.1z"
   id="path1410" />
			<path
   class="st2"
   d="M194.6,278.1H180c0.5,2.4,2.6,3.9,5.5,3.9c2.1,0,3.5-0.6,4.9-1.9l3,3.2c-1.8,2.1-4.5,3.1-8,3.1     c-6.7,0-11.1-4.2-11.1-10s4.4-10,10.3-10c5.7,0,10.1,3.8,10.1,10C194.8,277,194.7,277.6,194.6,278.1z M179.9,274.8h9.5     c-0.4-2.4-2.2-4-4.8-4C182.2,270.8,180.3,272.3,179.9,274.8z"
   id="path1412" />
			<path
   class="st2"
   d="M196.6,284.4l1.9-4c1.7,1.1,4.4,1.9,6.7,1.9c2.6,0,3.6-0.7,3.6-1.8c0-3.2-11.7,0.1-11.7-7.7     c0-3.7,3.3-6.3,9-6.3c2.7,0,5.6,0.6,7.5,1.7l-1.9,4c-1.9-1.1-3.8-1.4-5.6-1.4c-2.5,0-3.6,0.8-3.6,1.8c0,3.3,11.7,0.1,11.7,7.7     c0,3.6-3.3,6.2-9.1,6.2C201.7,286.5,198.4,285.6,196.6,284.4z"
   id="path1414" />
			<path
   class="st2"
   d="M236.5,278.1h-14.6c0.5,2.4,2.6,3.9,5.5,3.9c2.1,0,3.5-0.6,4.9-1.9l3,3.2c-1.8,2.1-4.5,3.1-8,3.1     c-6.7,0-11.1-4.2-11.1-10s4.4-10,10.3-10c5.7,0,10.1,3.8,10.1,10C236.6,277,236.5,277.6,236.5,278.1z M221.8,274.8h9.5     c-0.4-2.4-2.2-4-4.8-4C224,270.8,222.1,272.3,221.8,274.8z"
   id="path1416" />
			<path
   class="st2"
   d="M256.1,265.8H248V261h22v4.8h-8v20.4h-5.8v-20.4H256.1z"
   id="path1418" />
			<path
   class="st2"
   d="M288.9,275.1v11.1h-5.3v-2.4c-1,1.8-3.1,2.7-5.9,2.7c-4.5,0-7.2-2.5-7.2-5.9s2.4-5.8,8.3-5.8h4.5     c0-2.4-1.4-3.8-4.5-3.8c-2.1,0-4.2,0.7-5.6,1.8l-2-3.9c2.1-1.5,5.3-2.3,8.4-2.3C285.5,266.5,288.9,269.3,288.9,275.1z      M283.3,280.1v-2h-3.9c-2.6,0-3.5,1-3.5,2.3c0,1.4,1.2,2.3,3.2,2.3C281,282.7,282.7,281.8,283.3,280.1z"
   id="path1420" />
			<path
   class="st2"
   d="M293.3,261c0-1.8,1.4-3.1,3.5-3.1s3.5,1.3,3.5,3c0,1.9-1.4,3.2-3.5,3.2S293.3,262.8,293.3,261z M294,266.8     h5.6v19.4H294V266.8z"
   id="path1422" />
			<path
   class="st2"
   d="M325.9,276.5c0,6.1-4.2,10-9.6,10c-2.4,0-4.4-0.8-5.8-2.3v9h-5.6v-26.3h5.4v2.2c1.4-1.7,3.5-2.5,6.1-2.5     C321.7,266.5,325.9,270.4,325.9,276.5z M320.2,276.5c0-3.3-2.1-5.4-4.9-5.4s-4.9,2-4.9,5.4s2.1,5.4,4.9,5.4     S320.2,279.9,320.2,276.5z"
   id="path1424" />
			<path
   class="st2"
   d="M348.5,278.1h-14.6c0.5,2.4,2.6,3.9,5.5,3.9c2.1,0,3.5-0.6,4.9-1.9l3,3.2c-1.8,2.1-4.5,3.1-8,3.1     c-6.7,0-11.1-4.2-11.1-10s4.4-10,10.3-10c5.7,0,10.1,3.8,10.1,10C348.7,277,348.6,277.6,348.5,278.1z M333.8,274.8h9.5     c-0.4-2.4-2.2-4-4.8-4C336.1,270.8,334.2,272.3,333.8,274.8z"
   id="path1426" />
			<path
   class="st2"
   d="M351.7,261c0-1.8,1.4-3.1,3.5-3.1s3.5,1.3,3.5,3c0,1.9-1.4,3.2-3.5,3.2S351.7,262.8,351.7,261z M352.4,266.8     h5.6v19.4h-5.6V266.8z"
   id="path1428" />
		</g>
		<g
   class="st1"
   id="g1442">
			<path
   class="st2"
   d="M474,25.5c0,4.2-3.3,8.1-10.4,8.1c-3.5,0-7.2-1-9.6-2.7l2.3-4.5c1.9,1.4,4.6,2.3,7.2,2.3     c2.9,0,4.7-1.2,4.7-3.2c0-1.9-1.4-3.1-4.7-3.1h-2.7v-3.9l5.2-5.9h-10.7V7.9h17.6v3.8l-5.7,6.5C471.7,19,474,21.8,474,25.5z"
   id="path1432" />
			<path
   class="st2"
   d="M497.8,25.9c0,4.8-4.2,7.7-10.7,7.7c-6.4,0-10.6-3-10.6-7.7c0-2.7,1.4-4.7,3.8-5.9c-1.9-1.2-2.9-2.9-2.9-5.2     c0-4.4,4-7.2,9.7-7.2c5.8,0,9.8,2.8,9.8,7.2c0,2.3-1.1,4-3,5.2C496.4,21.2,497.8,23.2,497.8,25.9z M491.9,25.7     c0-2.2-1.8-3.6-4.8-3.6c-2.9,0-4.7,1.4-4.7,3.6c0,2.2,1.8,3.6,4.7,3.6C490.1,29.3,491.9,27.9,491.9,25.7z M483.3,15     c0,1.9,1.5,3.1,3.9,3.1s4-1.2,4-3.1c0-2-1.6-3.2-4-3.2C484.8,11.9,483.3,13,483.3,15z"
   id="path1434" />
			<path
   class="st2"
   d="M500.7,30c0-2.1,1.5-3.5,3.5-3.5s3.5,1.4,3.5,3.5s-1.5,3.5-3.5,3.5S500.7,32,500.7,30z"
   id="path1436" />
			<path
   class="st2"
   d="M529.3,25.3c0,4.5-3.3,8.4-10.5,8.4c-3.5,0-7.2-1-9.6-2.7l2.3-4.5c1.9,1.4,4.5,2.3,7.2,2.3     c2.9,0,4.7-1.2,4.7-3.3c0-2-1.3-3.3-5.9-3.3h-6.4L512.4,8h15.4v4.7h-10.5l-0.4,4.8h2.1C526.4,17.5,529.3,20.8,529.3,25.3z"
   id="path1438" />
			<path
   class="st2"
   d="M541.4,8v25.2h-5.8V12.7h-5V8H541.4z"
   id="path1440" />
		</g>
		<g
   class="st1"
   id="g1454">
			<path
   class="st2"
   d="M474,88.5c0,4.2-3.3,8.1-10.4,8.1c-3.5,0-7.2-1-9.6-2.7l2.3-4.5c1.9,1.4,4.6,2.3,7.2,2.3     c2.9,0,4.7-1.2,4.7-3.2c0-1.9-1.4-3.1-4.7-3.1h-2.7v-3.9l5.2-5.9h-10.7v-4.7h17.6v3.8l-5.7,6.5C471.7,82,474,84.8,474,88.5z"
   id="path1444" />
			<path
   class="st2"
   d="M496.1,71v3.8l-9.4,21.4h-6.3l9-20.4H481v4.1h-5.2V71L496.1,71L496.1,71z"
   id="path1446" />
			<path
   class="st2"
   d="M496.8,93c0-2.1,1.5-3.5,3.5-3.5s3.5,1.4,3.5,3.5s-1.5,3.5-3.5,3.5S496.8,95,496.8,93z"
   id="path1448" />
			<path
   class="st2"
   d="M526.5,83.1c0,8.7-5.2,13.6-12.9,13.6c-2.7,0-5.2-0.6-7-1.7l2.2-4.3c1.4,0.9,3,1.3,4.7,1.3     c4.2,0,6.9-2.5,7.1-7.3c-1.5,1.5-3.6,2.3-6.3,2.3c-4.9,0-8.7-3.1-8.7-7.8c0-5.1,4.2-8.4,9.5-8.4     C522.2,70.6,526.5,74.9,526.5,83.1z M520,78.7c0-2.2-1.6-3.7-4.4-3.7c-2.5,0-4.2,1.4-4.2,3.7s1.7,3.8,4.3,3.8     C518.2,82.4,520,80.9,520,78.7z"
   id="path1450" />
			<path
   class="st2"
   d="M552.4,90.9h-4.1v5.3h-5.7v-5.3H529V87l11.9-16h6.1l-11,15.2h6.8v-4.7h5.5v4.7h4.1L552.4,90.9L552.4,90.9z"
   id="path1452" />
		</g>
		<g
   class="st1"
   id="g1466">
			<path
   class="st2"
   d="M474,151.5c0,4.2-3.3,8.1-10.4,8.1c-3.5,0-7.2-1-9.6-2.7l2.3-4.5c1.9,1.4,4.6,2.3,7.2,2.3     c2.9,0,4.7-1.2,4.7-3.2c0-1.9-1.4-3.1-4.7-3.1h-2.7v-3.9l5.2-5.9h-10.7v-4.7h17.6v3.8l-5.7,6.5C471.7,145,474,147.8,474,151.5z"
   id="path1456" />
			<path
   class="st2"
   d="M497.5,151.2c0,5.1-4.2,8.4-9.5,8.4c-6.9,0-11.3-4.4-11.3-12.5c0-8.7,5.3-13.6,12.9-13.6     c2.7,0,5.3,0.6,7,1.7l-2.2,4.3c-1.4-0.9-3-1.3-4.7-1.3c-4.2,0-6.9,2.5-7.1,7.3c1.5-1.5,3.6-2.2,6.2-2.2     C493.7,143.4,497.5,146.5,497.5,151.2z M491.9,151.5c0-2.3-1.7-3.8-4.3-3.8c-2.6,0-4.4,1.6-4.4,3.8s1.6,3.7,4.4,3.7     C490.1,155.3,491.9,153.8,491.9,151.5z"
   id="path1458" />
			<path
   class="st2"
   d="M499.8,156c0-2.1,1.5-3.5,3.5-3.5c1.9,0,3.5,1.4,3.5,3.5s-1.5,3.5-3.5,3.5C501.4,159.5,499.8,158,499.8,156z     "
   id="path1460" />
			<path
   class="st2"
   d="M528.6,154.4v4.8h-19v-3.8l9.7-9.2c2.2-2.1,2.6-3.4,2.6-4.6c0-2-1.4-3.1-4-3.1c-2.2,0-4,0.8-5.2,2.5     l-4.2-2.7c1.9-2.8,5.5-4.7,10-4.7c5.6,0,9.4,2.9,9.4,7.5c0,2.4-0.7,4.7-4.2,8l-5.8,5.5h10.7V154.4z"
   id="path1462" />
			<path
   class="st2"
   d="M551.8,151.2c0,5.1-4.2,8.4-9.5,8.4c-6.9,0-11.3-4.4-11.3-12.5c0-8.7,5.3-13.6,12.9-13.6     c2.7,0,5.3,0.6,7,1.7l-2.2,4.3c-1.4-0.9-3-1.3-4.7-1.3c-4.2,0-6.9,2.5-7.1,7.3c1.5-1.5,3.6-2.2,6.2-2.2     C548,143.4,551.8,146.5,551.8,151.2z M546.1,151.5c0-2.3-1.7-3.8-4.3-3.8s-4.4,1.6-4.4,3.8s1.6,3.7,4.4,3.7     C544.4,155.3,546.1,153.8,546.1,151.5z"
   id="path1464" />
		</g>
		<g
   class="st1"
   id="g1478">
			<path
   class="st2"
   d="M474,214.5c0,4.2-3.3,8.1-10.4,8.1c-3.5,0-7.2-1-9.6-2.7l2.3-4.5c1.9,1.4,4.6,2.3,7.2,2.3     c2.9,0,4.7-1.2,4.7-3.2c0-1.9-1.4-3.1-4.7-3.1h-2.7v-3.9l5.2-5.9h-10.7v-4.7h17.6v3.8l-5.7,6.5C471.7,208,474,210.8,474,214.5z"
   id="path1468" />
			<path
   class="st2"
   d="M495.1,214.5c0,4.2-3.3,8.1-10.4,8.1c-3.5,0-7.2-1-9.6-2.7l2.3-4.5c1.9,1.4,4.6,2.3,7.2,2.3     c2.9,0,4.7-1.2,4.7-3.2c0-1.9-1.4-3.1-4.7-3.1h-2.7v-3.9l5.2-5.9h-10.7v-4.7H494v3.8l-5.7,6.5C492.8,208,495.1,210.8,495.1,214.5     z"
   id="path1470" />
			<path
   class="st2"
   d="M497.7,219c0-2.1,1.5-3.5,3.5-3.5s3.5,1.4,3.5,3.5s-1.5,3.5-3.5,3.5S497.7,221,497.7,219z"
   id="path1472" />
			<path
   class="st2"
   d="M526.3,214.3c0,4.5-3.3,8.4-10.5,8.4c-3.5,0-7.2-1-9.6-2.7l2.3-4.5c1.9,1.4,4.5,2.3,7.2,2.3     c2.9,0,4.7-1.2,4.7-3.3c0-2-1.3-3.3-5.9-3.3h-6.4l1.3-14.2h15.4v4.7h-10.5l-0.4,4.8h2.1C523.4,206.5,526.3,209.8,526.3,214.3z"
   id="path1474" />
			<path
   class="st2"
   d="M538.4,197v25.2h-5.8v-20.5h-5V197H538.4z"
   id="path1476" />
		</g>
		<g
   class="st1"
   id="g1490">
			<path
   class="st2"
   d="M474.2,280.4v4.8h-19v-3.8l9.7-9.2c2.2-2.1,2.6-3.4,2.6-4.6c0-2-1.4-3.1-4-3.1c-2.2,0-4,0.8-5.2,2.5     l-4.2-2.7c1.9-2.8,5.5-4.7,10-4.7c5.6,0,9.4,2.9,9.4,7.5c0,2.4-0.7,4.7-4.2,8l-5.8,5.5h10.7V280.4z"
   id="path1480" />
			<path
   class="st2"
   d="M497.7,277.9c0,4.8-4.2,7.7-10.7,7.7c-6.4,0-10.6-3-10.6-7.7c0-2.7,1.4-4.7,3.8-5.9     c-1.9-1.2-2.9-2.9-2.9-5.2c0-4.4,4-7.2,9.7-7.2c5.8,0,9.8,2.8,9.8,7.2c0,2.3-1.1,4-3,5.2C496.3,273.2,497.7,275.2,497.7,277.9z      M491.8,277.7c0-2.2-1.8-3.6-4.8-3.6c-2.9,0-4.7,1.4-4.7,3.6c0,2.2,1.8,3.6,4.7,3.6C490,281.3,491.8,279.9,491.8,277.7z      M483.2,267c0,1.9,1.5,3.1,3.9,3.1s4-1.2,4-3.1c0-2-1.6-3.2-4-3.2C484.7,263.9,483.2,265,483.2,267z"
   id="path1482" />
			<path
   class="st2"
   d="M500.6,282c0-2.1,1.5-3.5,3.5-3.5c1.9,0,3.5,1.4,3.5,3.5s-1.5,3.5-3.5,3.5S500.6,284,500.6,282z"
   id="path1484" />
			<path
   class="st2"
   d="M529.2,277.5c0,4.2-3.3,8.1-10.4,8.1c-3.5,0-7.2-1-9.6-2.7l2.3-4.5c1.9,1.4,4.6,2.3,7.2,2.3     c2.9,0,4.7-1.2,4.7-3.2c0-1.9-1.4-3.1-4.7-3.1H516v-3.9l5.2-5.9h-10.7v-4.7H528v3.8l-5.7,6.5C526.9,271,529.2,273.8,529.2,277.5z     "
   id="path1486" />
			<path
   class="st2"
   d="M550.5,277.3c0,4.5-3.3,8.4-10.5,8.4c-3.5,0-7.2-1-9.6-2.7l2.3-4.5c1.9,1.4,4.5,2.3,7.2,2.3     c2.9,0,4.7-1.2,4.7-3.3c0-2-1.3-3.3-5.9-3.3h-6.4l1.3-14.2H549v4.7h-10.5l-0.4,4.8h2.1C547.6,269.5,550.5,272.8,550.5,277.3z"
   id="path1488" />
		</g>
		<g
   class="st1"
   id="g1498">
			<path
   class="st3"
   d="M21.4,26.3c0,4.5-3.3,8.4-10.5,8.4c-3.5,0-7.2-1-9.6-2.7l2.3-4.5c1.9,1.4,4.5,2.3,7.2,2.3     c2.9,0,4.7-1.2,4.7-3.3c0-2-1.3-3.3-5.9-3.3H3.2L4.5,9h15.4v4.7H9.4L9,18.5h2C18.5,18.5,21.4,21.8,21.4,26.3z"
   id="path1492" />
			<path
   class="st3"
   d="M42.3,26.5c0,4.2-3.3,8.1-10.4,8.1c-3.5,0-7.2-1-9.6-2.7l2.3-4.5c1.9,1.4,4.6,2.3,7.2,2.3     c2.9,0,4.7-1.2,4.7-3.2c0-1.9-1.4-3.1-4.7-3.1H29v-3.9l5.2-5.9H23.5V8.9h17.6v3.8l-5.7,6.5C39.9,20,42.3,22.8,42.3,26.5z"
   id="path1494" />
			<path
   class="st3"
   d="M44.8,31c0-2.1,1.5-3.5,3.5-3.5s3.5,1.4,3.5,3.5s-1.5,3.5-3.5,3.5S44.8,33,44.8,31z"
   id="path1496" />
		</g>
		<g
   class="st1"
   id="g1506">
			<path
   class="st3"
   d="M21.4,89.3c0,4.5-3.3,8.4-10.5,8.4c-3.5,0-7.2-1-9.6-2.7l2.3-4.5c1.9,1.4,4.5,2.3,7.2,2.3     c2.9,0,4.7-1.2,4.7-3.3c0-2-1.3-3.3-5.9-3.3H3.2L4.5,72h15.4v4.7H9.4L9,81.5h2C18.5,81.5,21.4,84.8,21.4,89.3z"
   id="path1500" />
			<path
   class="st3"
   d="M46.9,91.9h-4.1v5.3h-5.7v-5.3H23.5V88l11.9-16h6.1l-11,15.2h6.8v-4.7h5.5v4.7h4.1     C46.9,87.2,46.9,91.9,46.9,91.9z"
   id="path1502" />
			<path
   class="st3"
   d="M49.2,94c0-2.1,1.5-3.5,3.5-3.5s3.5,1.4,3.5,3.5s-1.5,3.5-3.5,3.5S49.2,96,49.2,94z"
   id="path1504" />
		</g>
		<g
   class="st1"
   id="g1514">
			<path
   class="st3"
   d="M21.4,152.3c0,4.5-3.3,8.4-10.5,8.4c-3.5,0-7.2-1-9.6-2.7l2.3-4.5c1.9,1.4,4.5,2.3,7.2,2.3     c2.9,0,4.7-1.2,4.7-3.3c0-2-1.3-3.3-5.9-3.3H3.2L4.5,135h15.4v4.7H9.4L9,144.5h2C18.5,144.5,21.4,147.8,21.4,152.3z"
   id="path1508" />
			<path
   class="st3"
   d="M42.7,152.3c0,4.5-3.3,8.4-10.5,8.4c-3.5,0-7.2-1-9.6-2.7l2.3-4.5c1.9,1.4,4.5,2.3,7.2,2.3     c2.9,0,4.7-1.2,4.7-3.3c0-2-1.3-3.3-5.9-3.3h-6.4l1.3-14.2h15.4v4.7H30.6l-0.4,4.8h2.1C39.7,144.5,42.7,147.8,42.7,152.3z"
   id="path1510" />
			<path
   class="st3"
   d="M44.9,157c0-2.1,1.5-3.5,3.5-3.5s3.5,1.4,3.5,3.5s-1.5,3.5-3.5,3.5S44.9,159,44.9,157z"
   id="path1512" />
		</g>
		<g
   class="st1"
   id="g1522">
			<path
   class="st3"
   d="M21.4,215.3c0,4.5-3.3,8.4-10.5,8.4c-3.5,0-7.2-1-9.6-2.7l2.3-4.5c1.9,1.4,4.5,2.3,7.2,2.3     c2.9,0,4.7-1.2,4.7-3.3c0-2-1.3-3.3-5.9-3.3H3.2L4.5,198h15.4v4.7H9.4L9,207.5h2C18.5,207.5,21.4,210.8,21.4,215.3z"
   id="path1516" />
			<path
   class="st3"
   d="M44.6,215.2c0,5.1-4.2,8.4-9.5,8.4c-6.9,0-11.3-4.4-11.3-12.5c0-8.7,5.3-13.6,12.9-13.6c2.7,0,5.3,0.6,7,1.7     l-2.2,4.3c-1.4-0.9-3-1.3-4.7-1.3c-4.2,0-6.9,2.5-7.1,7.3c1.5-1.5,3.6-2.2,6.2-2.2C40.8,207.4,44.6,210.5,44.6,215.2z M39,215.5     c0-2.3-1.7-3.8-4.3-3.8s-4.4,1.6-4.4,3.8s1.6,3.7,4.4,3.7C37.2,219.3,39,217.8,39,215.5z"
   id="path1518" />
			<path
   class="st3"
   d="M46.9,220c0-2.1,1.5-3.5,3.5-3.5s3.5,1.4,3.5,3.5s-1.5,3.5-3.5,3.5S46.9,222,46.9,220z"
   id="path1520" />
		</g>
		<g
   class="st1"
   id="g1530">
			<path
   class="st3"
   d="M21.4,278.3c0,4.5-3.3,8.4-10.5,8.4c-3.5,0-7.2-1-9.6-2.7l2.3-4.5c1.9,1.4,4.5,2.3,7.2,2.3     c2.9,0,4.7-1.2,4.7-3.3c0-2-1.3-3.3-5.9-3.3H3.2L4.5,261h15.4v4.7H9.4L9,270.5h2C18.5,270.5,21.4,273.8,21.4,278.3z"
   id="path1524" />
			<path
   class="st3"
   d="M43.1,261v3.8l-9.3,21.4h-6.3l9-20.4h-8.4v4.1h-5.2V261L43.1,261L43.1,261z"
   id="path1526" />
			<path
   class="st3"
   d="M43.8,283c0-2.1,1.5-3.5,3.5-3.5s3.5,1.4,3.5,3.5s-1.5,3.5-3.5,3.5S43.8,285,43.8,283z"
   id="path1528" />
		</g>
	</g>
</g>
<linearGradient
   id="Rectangle_314_00000026151348297509147280000008232633206545107101_"
   gradientUnits="userSpaceOnUse"
   x1="-496.7886"
   y1="1.6933"
   x2="-496.7886"
   y2="2.6626"
   gradientTransform="matrix(700 0 0 163 348102 -276)">
	<stop
   offset="0"
   style="stop-color:#FFFFFF"
   id="stop1534" />
	<stop
   offset="1"
   style="stop-color:#FFFFFF;stop-opacity:0"
   id="stop1536" />
</linearGradient>
<path
   id="Rectangle_314"
   style="opacity:0.846;fill:url(#Rectangle_314_00000026151348297509147280000008232633206545107101_);enable-background:new"
   d="M 0,0 H 700 V 158 H 0 Z" />
<linearGradient
   id="Rectangle_315_00000018239153601891958750000008089413725743319718_"
   gradientUnits="userSpaceOnUse"
   x1="-496.7886"
   y1="1.7712"
   x2="-496.7886"
   y2="2.8039"
   gradientTransform="matrix(700 0 0 153 348102 -79)">
	<stop
   offset="0"
   style="stop-color:#FFFFFF;stop-opacity:0"
   id="stop1540" />
	<stop
   offset="1"
   style="stop-color:#FFFFFF"
   id="stop1542" />
</linearGradient>
<path
   id="Rectangle_315"
   style="opacity:0.846;fill:url(#Rectangle_315_00000018239153601891958750000008089413725743319718_);enable-background:new"
   d="M 0,192 H 700 V 350 H 0 Z" />
<path
   id="Polygon_1"
   class="st2"
   d="M29,175L0,192v-34L29,175z" />
</svg>
