<?xml version="1.0" encoding="utf-8"?>
<!-- Generator: Adobe Illustrator 27.4.1, SVG Export Plug-In . SVG Version: 6.00 Build 0)  -->
<svg version="1.1" id="Layer_1" xmlns="http://www.w3.org/2000/svg" xmlns:xlink="http://www.w3.org/1999/xlink" x="0px" y="0px"
	 width="701px" height="350px" viewBox="0 0 701 350" style="enable-background:new 0 0 701 350;" xml:space="preserve">
<style type="text/css">
	.st0{fill:#0D3A4D;}
	.st1{fill:#00B4CD;}
	.st2{opacity:0.846;fill:url(#Rectangle_314_00000153703748740040088100000011064548728101686687_);enable-background:new    ;}
	.st3{opacity:0.846;fill:url(#Rectangle_315_00000152241220676722013030000013358695656699783840_);enable-background:new    ;}
</style>
<g>
	<g>
		<path class="st0" d="M161,59.9c2,1.1,4.3,1.7,6.9,1.7c1.9,0,3.9-0.5,5.9-1.4s3.7-2.2,5.1-3.7l-4.8-5.1c-0.8,0.9-1.7,1.6-2.8,2.1
			c-1,0.5-2,0.8-2.9,0.8c-1,0-1.9-0.3-2.7-0.8s-1.4-1.3-1.9-2.2c-0.4-0.9-0.7-2-0.7-3.1c0-1.2,0.2-2.2,0.7-3.1
			c0.4-0.9,1.1-1.6,1.9-2.1c0.8-0.5,1.7-0.8,2.7-0.8s2,0.3,3,1s1.9,1.5,2.7,2.5l4.8-5.7c-1.3-1.4-2.9-2.5-4.9-3.4
			c-1.9-0.9-3.9-1.3-5.8-1.3c-2.6,0-5,0.6-7,1.7c-2.1,1.1-3.7,2.7-4.9,4.7s-1.8,4.2-1.8,6.7s0.6,4.8,1.7,6.8S159,58.7,161,59.9z"/>
		<polygon class="st0" points="198.5,55 189.9,55 198.1,46 198.1,41.3 180,41.3 180,47.4 187.9,47.4 179.7,56.3 179.7,61 198.5,61 
					"/>
		<path class="st0" d="M204.7,60c1.6,0.8,3.5,1.2,5.7,1.2c1.9,0,3.6-0.3,5.1-0.9s2.8-1.5,3.8-2.7l-4.2-4.1c-1.2,1.2-2.6,1.8-4,1.8
			c-0.8,0-1.5-0.2-2-0.6c-0.6-0.4-1-1-1.2-1.7h12.8c0-0.2,0-0.6,0-1c0-2.2-0.4-4.1-1.3-5.8c-0.8-1.6-2.1-2.9-3.6-3.8
			c-1.6-0.9-3.5-1.3-5.6-1.3s-3.9,0.4-5.5,1.3c-1.6,0.8-2.8,2-3.7,3.6c-0.9,1.5-1.3,3.3-1.3,5.4c0,2,0.4,3.8,1.3,5.3
			C201.9,58,203.1,59.2,204.7,60z M208.7,47.2c0.4-0.5,1-0.8,1.7-0.8s1.3,0.3,1.7,0.8s0.6,1.2,0.6,2h-4.9
			C207.9,48.4,208.2,47.7,208.7,47.2z"/>
		<path class="st0" d="M226.8,60c1.6,0.8,3.4,1.2,5.4,1.2c2.3,0,4.2-0.5,5.9-1.4c1.6-1,2.8-2.3,3.5-4.1l-6.6-3
			c-0.4,1.4-1.2,2.1-2.4,2.1c-0.8,0-1.4-0.3-1.9-1s-0.7-1.6-0.7-2.7c0-1.1,0.2-2,0.7-2.6c0.5-0.7,1.1-1,1.9-1c1.2,0,2,0.6,2.5,1.9
			l6.4-2.7c-0.8-1.8-2-3.2-3.7-4.2c-1.6-1-3.5-1.5-5.7-1.5c-2.1,0-3.9,0.4-5.5,1.3c-1.6,0.8-2.8,2-3.6,3.6c-0.9,1.5-1.3,3.3-1.3,5.4
			c0,2,0.4,3.8,1.3,5.3C224,58,225.2,59.2,226.8,60z"/>
		<path class="st0" d="M251.8,51.2c0-1,0.2-1.7,0.7-2.3s1.1-0.9,1.9-0.9c0.7,0,1.3,0.2,1.7,0.7c0.4,0.5,0.6,1.1,0.6,2V61h8.1V48.4
			c0-1.5-0.3-2.8-0.9-3.9c-0.6-1.1-1.4-2-2.5-2.6s-2.3-0.9-3.7-0.9c-1.3,0-2.4,0.3-3.4,0.8s-1.9,1.3-2.5,2.4v-9.8h-8.1V61h8.1
			L251.8,51.2L251.8,51.2z"/>
		<path class="st0" d="M283.6,54.4h3.1l3,6.6h9.4l-5-8.2c1.3-0.8,2.3-1.9,3-3.2c0.7-1.4,1-2.9,1-4.8c0-2.9-0.9-5.1-2.8-6.7
			c-1.9-1.6-4.5-2.4-8-2.4h-12.2V61h8.4v-6.6H283.6z M283.6,42.1h3.9c0.9,0,1.6,0.3,2.1,0.8s0.7,1.2,0.7,2.2s-0.2,1.7-0.7,2.2
			s-1.2,0.8-2.1,0.8h-3.9V42.1z"/>
		<path class="st0" d="M305.1,60c1.6,0.8,3.5,1.2,5.7,1.2c1.9,0,3.6-0.3,5.1-0.9s2.8-1.5,3.8-2.7l-4.2-4.1c-1.2,1.2-2.6,1.8-4,1.8
			c-0.8,0-1.5-0.2-2-0.6c-0.6-0.4-1-1-1.2-1.7h12.8c0-0.2,0-0.6,0-1c0-2.2-0.4-4.1-1.3-5.8c-0.8-1.6-2.1-2.9-3.6-3.8
			c-1.6-0.9-3.5-1.3-5.6-1.3s-3.9,0.4-5.5,1.3c-1.6,0.8-2.8,2-3.7,3.6c-0.9,1.5-1.3,3.3-1.3,5.4c0,2,0.4,3.8,1.3,5.3
			C302.2,58,303.5,59.2,305.1,60z M309,47.2c0.4-0.5,1-0.8,1.7-0.8s1.3,0.3,1.7,0.8c0.4,0.5,0.6,1.2,0.6,2h-4.9
			C308.2,48.4,308.6,47.7,309,47.2z"/>
		<path class="st0" d="M331.9,59c0.6,0.7,1.4,1.3,2.3,1.7s1.9,0.6,2.9,0.6c1.8,0,3.3-0.4,4.7-1.2c1.3-0.8,2.4-2,3.1-3.5
			s1.1-3.3,1.1-5.3c0-2.1-0.4-3.9-1.1-5.4s-1.8-2.7-3.2-3.6c-1.4-0.8-3-1.3-4.8-1.3c-2,0-3.7,0.8-5,2.3v-2h-8.1V68h8.1V59z
			 M332.7,48.3c0.5-0.7,1.2-1,2.1-1s1.6,0.3,2.1,1s0.8,1.6,0.8,2.8s-0.3,2.1-0.8,2.8s-1.3,1-2.1,1c-0.9,0-1.6-0.3-2.1-1
			s-0.8-1.6-0.8-2.8C331.9,49.9,332.2,49,332.7,48.3z"/>
		<path class="st0" d="M351.2,60.4c1,0.6,2.2,0.9,3.6,0.9c1.2,0,2.4-0.3,3.3-0.8c1-0.5,1.8-1.3,2.4-2.3V61h8.1V41.3h-8.1v9.8
			c0,1-0.2,1.7-0.6,2.3s-1,0.9-1.8,0.9c-0.6,0-1.2-0.2-1.6-0.7s-0.6-1.1-0.6-2V41.3h-8.1v12.6c0,1.5,0.3,2.8,0.9,3.9
			C349.4,58.9,350.2,59.8,351.2,60.4z"/>
		<path class="st0" d="M380.9,59c0.6,0.7,1.4,1.3,2.3,1.7s1.9,0.6,2.9,0.6c1.8,0,3.3-0.4,4.7-1.2c1.3-0.8,2.4-2,3.1-3.5
			s1.1-3.3,1.1-5.3c0-2.1-0.4-3.9-1.1-5.4s-1.8-2.7-3.2-3.6c-1.4-0.8-3-1.3-4.8-1.3c-2,0-3.7,0.8-5,2.3v-9h-8.1V61h8.1V59z
			 M381.7,48.3c0.5-0.7,1.2-1,2.1-1s1.6,0.3,2.1,1s0.8,1.6,0.8,2.8s-0.3,2.1-0.8,2.8s-1.3,1-2.1,1c-0.9,0-1.6-0.3-2.1-1
			s-0.8-1.6-0.8-2.8C380.9,49.9,381.2,49,381.7,48.3z"/>
		<rect x="397.7" y="34.3" class="st0" width="8.1" height="26.7"/>
		<rect x="409.9" y="41.3" class="st0" width="8.1" height="19.7"/>
		<path class="st0" d="M413.9,39.8c1.2,0,2.2-0.4,3-1.2s1.2-1.8,1.2-3s-0.4-2.2-1.2-3c-0.8-0.8-1.8-1.2-3-1.2s-2.2,0.4-3,1.2
			c-0.8,0.8-1.2,1.8-1.2,3s0.4,2.2,1.2,3C411.7,39.4,412.7,39.8,413.9,39.8z"/>
		<path class="st0" d="M431.3,47.6c1.2,0,2,0.6,2.5,1.9l6.4-2.7c-0.8-1.8-2-3.2-3.7-4.2c-1.6-1-3.5-1.5-5.7-1.5
			c-2.1,0-3.9,0.4-5.5,1.3c-1.6,0.8-2.8,2-3.6,3.6s-1.3,3.3-1.3,5.4c0,2,0.4,3.8,1.3,5.3s2.1,2.7,3.6,3.5c1.6,0.8,3.4,1.2,5.4,1.2
			c2.3,0,4.2-0.5,5.8-1.4c1.6-1,2.8-2.3,3.5-4.1l-6.6-3c-0.4,1.4-1.2,2.1-2.4,2.1c-0.8,0-1.4-0.3-1.9-1s-0.7-1.6-0.7-2.7
			c0-1.1,0.2-2,0.7-2.6C429.9,47.9,430.5,47.6,431.3,47.6z"/>
		<path class="st0" d="M174.3,110.5c1.3-0.4,2.3-1.1,3.1-2.1s1.2-2.1,1.2-3.3c0-1.3-0.4-2.4-1.2-3.3s-2-1.7-3.5-2.2
			s-3.3-0.8-5.3-0.8h-12.8V124h13.4c2,0,3.8-0.3,5.3-0.9s2.7-1.4,3.5-2.5s1.3-2.3,1.3-3.7c0-1.6-0.5-3-1.4-4.1
			C177.1,111.6,175.9,110.9,174.3,110.5z M164.1,104.9h4c0.6,0,1,0.2,1.4,0.5c0.3,0.3,0.5,0.8,0.5,1.3c0,0.6-0.2,1-0.5,1.3
			s-0.8,0.5-1.4,0.5h-4V104.9z M170,117.3c-0.5,0.4-1.1,0.6-1.9,0.6h-4V114h4c0.8,0,1.4,0.2,1.9,0.5s0.7,0.8,0.7,1.3
			C170.7,116.5,170.4,117,170,117.3z"/>
		<path class="st0" d="M191.1,104c-2.1,0-3.9,0.4-5.5,1.3c-1.6,0.8-2.8,2-3.7,3.6c-0.9,1.5-1.3,3.3-1.3,5.4c0,2,0.4,3.8,1.3,5.3
			c0.9,1.5,2.1,2.7,3.7,3.5s3.5,1.2,5.7,1.2c1.9,0,3.6-0.3,5.1-0.9s2.8-1.5,3.8-2.7l-4.2-4.1c-1.2,1.2-2.6,1.8-4,1.8
			c-0.8,0-1.5-0.2-2-0.6c-0.6-0.4-1-1-1.2-1.7h12.8c0-0.2,0-0.6,0-1c0-2.2-0.4-4.1-1.3-5.8c-0.8-1.6-2.1-2.9-3.6-3.8
			C195.1,104.5,193.3,104,191.1,104z M188.6,112.2c0.2-0.9,0.5-1.5,0.9-2.1c0.4-0.5,1-0.8,1.7-0.8s1.3,0.3,1.7,0.8s0.6,1.2,0.6,2
			L188.6,112.2L188.6,112.2z"/>
		<rect x="204.3" y="97.3" class="st0" width="8.1" height="26.7"/>
		<path class="st0" d="M218.2,111.3c1.1-0.4,2.2-0.7,3.2-0.9c1.1-0.2,2-0.3,2.8-0.3c1,0,1.7,0.2,2.2,0.6s0.8,0.9,0.8,1.6h-4.5
			c-2.5,0-4.4,0.6-5.7,1.6s-1.9,2.5-1.9,4.4s0.6,3.4,1.7,4.5c1.2,1.1,2.8,1.7,4.8,1.7c2.5,0,4.3-0.8,5.5-2.5v2.1h8v-12.7
			c0-2.3-0.8-4.1-2.4-5.4c-1.6-1.3-3.8-1.9-6.7-1.9c-1.5,0-3,0.2-4.7,0.5s-3.3,0.8-5,1.4L218.2,111.3z M227.3,117.7
			c-0.3,0.5-0.7,0.9-1.2,1.1c-0.5,0.3-1,0.4-1.5,0.4c-0.6,0-1-0.1-1.3-0.5c-0.3-0.3-0.5-0.7-0.5-1.3c0-1.1,0.6-1.6,1.7-1.6h2.8
			V117.7z"/>
		<path class="st0" d="M238.6,104.3V124h8.1v-9.4c0-1.1,0.4-1.9,1.2-2.5s1.9-0.9,3.3-0.9c0.5,0,1,0,1.5,0.1V104
			c-1.3,0-2.4,0.3-3.4,0.8c-1,0.6-1.9,1.4-2.6,2.4v-2.9C246.7,104.3,238.6,104.3,238.6,104.3z"/>
		<path class="st0" d="M263.2,116.5c-0.4-0.5-0.6-1.1-0.6-2v-10.2h-8.1v12.6c0,1.5,0.3,2.8,0.9,3.9c0.6,1.1,1.4,2,2.4,2.6
			s2.2,0.9,3.6,0.9c1.2,0,2.4-0.3,3.3-0.8c1-0.5,1.8-1.3,2.4-2.3v2.7h8.1v-19.7h-8.1v9.8c0,1-0.2,1.7-0.6,2.3
			c-0.4,0.6-1,0.9-1.8,0.9C264.2,117.2,263.6,117,263.2,116.5z"/>
		<path class="st0" d="M288.4,118.8c-0.2,0.1-0.5,0.2-0.9,0.2c-2.2,0-4.6-0.8-7.3-2.4l-2.4,5c2.7,1.9,5.9,2.8,9.6,2.8
			c1.8,0,3.4-0.3,4.7-0.8s2.4-1.3,3.1-2.3s1.1-2.2,1.1-3.5s-0.4-2.4-1.1-3.3c-0.8-0.8-1.6-1.5-2.6-1.9s-2.2-0.8-3.6-1.2
			c-1-0.3-1.7-0.5-2.2-0.7c-0.4-0.2-0.6-0.4-0.6-0.7c0-0.2,0.1-0.3,0.3-0.5c0.2-0.1,0.5-0.2,0.8-0.2c1.5,0,3.7,0.7,6.7,2.2l2.7-5
			c-3-1.7-6-2.5-9.1-2.5c-1.7,0-3.2,0.3-4.6,0.8c-1.3,0.6-2.3,1.4-3,2.4s-1.1,2.2-1.1,3.6s0.4,2.5,1.1,3.3s1.6,1.5,2.6,1.9
			s2.2,0.8,3.6,1.2c0.9,0.2,1.6,0.5,2,0.6c0.4,0.2,0.6,0.4,0.6,0.7C288.7,118.6,288.6,118.7,288.4,118.8z"/>
		<polygon class="st0" points="161.3,187 169.7,187 169.7,168.4 176.9,168.4 176.9,161.8 154.2,161.8 154.2,168.4 161.3,168.4 		"/>
		<path class="st0" d="M178.5,167.3v12.6c0,1.5,0.3,2.8,0.9,3.9c0.6,1.1,1.4,2,2.4,2.6s2.2,0.9,3.6,0.9c1.2,0,2.4-0.3,3.3-0.8
			c1-0.5,1.8-1.3,2.4-2.3v2.7h8.1v-19.7h-8.1v9.8c0,1-0.2,1.7-0.6,2.3c-0.4,0.6-1,0.9-1.8,0.9c-0.6,0-1.2-0.2-1.6-0.7
			s-0.6-1.1-0.6-2v-10.2H178.5z"/>
		<path class="st0" d="M203.2,187h8.1v-9.4c0-1.1,0.4-1.9,1.2-2.5s1.9-0.9,3.3-0.9c0.5,0,1,0,1.5,0.1V167c-1.3,0-2.4,0.3-3.4,0.8
			c-1,0.6-1.9,1.4-2.6,2.4v-2.9h-8.1V187z"/>
		<polygon class="st0" points="219.9,160.3 219.9,187 228,187 228,181.8 229,180.8 232,187 241.6,187 234.5,174.9 241.7,167.3 
			232.6,167.3 228,172.4 228,160.3 		"/>
		<path class="st0" d="M257.1,168.4c-1.6-0.9-3.5-1.3-5.6-1.3s-3.9,0.4-5.5,1.3c-1.6,0.8-2.8,2-3.7,3.6c-0.9,1.5-1.3,3.3-1.3,5.4
			c0,2,0.4,3.8,1.3,5.3c0.9,1.5,2.1,2.7,3.7,3.5s3.5,1.2,5.7,1.2c1.9,0,3.6-0.3,5.1-0.9c1.5-0.6,2.8-1.5,3.8-2.7l-4.2-4.1
			c-1.2,1.2-2.6,1.8-4,1.8c-0.8,0-1.5-0.2-2-0.6c-0.6-0.4-1-1-1.2-1.7H262c0-0.2,0-0.6,0-1c0-2.2-0.4-4.1-1.3-5.8
			C259.9,170.5,258.7,169.2,257.1,168.4z M249,175.2c0.2-0.9,0.5-1.5,0.9-2.1c0.4-0.5,1-0.8,1.7-0.8s1.3,0.3,1.7,0.8s0.6,1.2,0.6,2
			H249V175.2z"/>
		<path class="st0" d="M273.6,178.5l-3.9-11.2h-8.3l8.2,19.1l-0.3,0.5c-0.4,0.7-1,1-1.9,1s-1.8-0.4-2.6-1.2l-3.4,5.3
			c1.1,0.8,2.1,1.4,3.2,1.7c1.1,0.4,2.3,0.6,3.6,0.6c2.1,0,3.9-0.5,5.3-1.5s2.5-2.5,3.3-4.5l8.1-21.1h-8.1L273.6,178.5z"/>
		<path class="st0" d="M163.5,246.4h9.5l1.3,3.6h8.9l-10.3-25.2h-8.6L153.6,250h8.6L163.5,246.4z M168.3,233.1l2.6,7.4h-5.3
			L168.3,233.1z"/>
		<rect x="184.9" y="223.3" class="st0" width="8.1" height="26.7"/>
		<path class="st0" d="M196.7,234.4c-0.7,1.4-1,3-1,4.9s0.3,3.6,1,5s1.7,2.6,2.9,3.3c1.2,0.8,2.6,1.2,4.2,1.2c2,0,3.7-0.7,4.9-2.1
			v1.9c0,0.8-0.3,1.4-1,1.8c-0.6,0.4-1.5,0.7-2.7,0.7c-1,0-2-0.2-3.1-0.5s-2.1-0.7-2.9-1.3l-2.6,5.4c1.1,0.7,2.5,1.4,4.1,1.8
			c1.6,0.5,3.4,0.7,5.2,0.7c2.2,0,4.1-0.4,5.7-1.1c1.7-0.7,3-1.8,3.9-3.1c0.9-1.4,1.4-2.9,1.4-4.7v-18.1h-8.1v1.8
			c-1.3-1.4-3-2.1-5.1-2.1c-1.5,0-2.9,0.4-4.1,1.2C198.3,231.9,197.4,233,196.7,234.4z M204,236.9c0.5-0.6,1.2-1,2-1s1.5,0.3,2,1
			c0.5,0.6,0.7,1.5,0.7,2.6s-0.3,1.9-0.8,2.6c-0.5,0.6-1.2,1-2,1s-1.5-0.3-2-1c-0.5-0.6-0.8-1.5-0.8-2.6
			C203.3,238.4,203.5,237.6,204,236.9z"/>
		<path class="st0" d="M220.5,245.5c0.9,1.5,2.1,2.7,3.7,3.5s3.5,1.2,5.7,1.2c1.9,0,3.6-0.3,5.1-0.9s2.8-1.5,3.8-2.7l-4.2-4.1
			c-1.2,1.2-2.6,1.8-4,1.8c-0.8,0-1.5-0.2-2-0.6c-0.6-0.4-1-1-1.2-1.7h12.8c0-0.2,0-0.6,0-1c0-2.2-0.4-4.1-1.3-5.8
			c-0.8-1.6-2.1-2.9-3.6-3.8c-1.6-0.9-3.5-1.3-5.6-1.3s-3.9,0.4-5.5,1.3c-1.6,0.8-2.8,2-3.7,3.6c-0.9,1.5-1.3,3.3-1.3,5.4
			C219.3,242.3,219.7,244,220.5,245.5z M228.2,236.2c0.4-0.5,1-0.8,1.7-0.8s1.3,0.3,1.7,0.8s0.6,1.2,0.6,2h-4.9
			C227.4,237.4,227.7,236.7,228.2,236.2z"/>
		<path class="st0" d="M242.8,230.3V250h8.1v-9.4c0-1.1,0.4-1.9,1.2-2.5s1.9-0.9,3.3-0.9c0.5,0,1,0,1.5,0.1V230
			c-1.3,0-2.4,0.3-3.4,0.8c-1,0.6-1.9,1.4-2.6,2.4v-2.9L242.8,230.3L242.8,230.3z"/>
		<path class="st0" d="M263.2,220.6c-1.2,0-2.2,0.4-3,1.2s-1.2,1.8-1.2,3s0.4,2.2,1.2,3c0.8,0.8,1.8,1.2,3,1.2s2.2-0.4,3-1.2
			s1.2-1.8,1.2-3s-0.4-2.2-1.2-3S264.4,220.6,263.2,220.6z"/>
		<rect x="259.3" y="230.3" class="st0" width="8.1" height="19.7"/>
		<path class="st0" d="M271.8,239.7c-1.3,1-1.9,2.5-1.9,4.4s0.6,3.4,1.7,4.5c1.2,1.1,2.8,1.7,4.8,1.7c2.5,0,4.3-0.8,5.5-2.5v2.1h8
			v-12.7c0-2.3-0.8-4.1-2.4-5.4c-1.6-1.3-3.8-1.9-6.7-1.9c-1.5,0-3,0.2-4.7,0.5s-3.3,0.8-5,1.4l1.8,5.4c1.1-0.4,2.2-0.7,3.2-0.9
			c1.1-0.2,2-0.3,2.8-0.3c1,0,1.7,0.2,2.2,0.6c0.5,0.4,0.8,0.9,0.8,1.6h-4.5C275,238.2,273.1,238.7,271.8,239.7z M279.2,241.9h2.8
			v1.8c-0.3,0.5-0.7,0.9-1.2,1.1c-0.5,0.3-1,0.4-1.5,0.4c-0.6,0-1-0.1-1.3-0.5c-0.3-0.3-0.5-0.7-0.5-1.3
			C277.5,242.4,278.1,241.9,279.2,241.9z"/>
		<path class="st0" d="M163.5,309.4h9.5l1.3,3.6h8.9l-10.3-25.2h-8.6L153.6,313h8.6L163.5,309.4z M168.3,296.1l2.6,7.4h-5.3
			L168.3,296.1z"/>
		<path class="st0" d="M192.8,303.6c0-1.1,0.4-1.9,1.2-2.5s1.9-0.9,3.3-0.9c0.5,0,1,0,1.5,0.1V293c-1.3,0-2.4,0.3-3.4,0.8
			c-1,0.6-1.9,1.4-2.6,2.4v-2.9h-8.1V313h8.1V303.6z"/>
		<path class="st0" d="M212.8,295.1c-1.3-1.4-3-2.1-5.1-2.1c-1.5,0-2.9,0.4-4.1,1.2c-1.2,0.8-2.2,1.9-2.8,3.3c-0.7,1.4-1,3-1,4.9
			s0.3,3.6,1,5s1.7,2.6,2.9,3.3c1.2,0.8,2.6,1.2,4.2,1.2c2,0,3.7-0.7,4.9-2.1v1.9c0,0.8-0.3,1.4-1,1.8c-0.6,0.4-1.5,0.7-2.7,0.7
			c-1,0-2-0.2-3.1-0.5s-2.1-0.7-2.9-1.3l-2.6,5.4c1.1,0.7,2.5,1.4,4.1,1.8c1.6,0.5,3.4,0.7,5.2,0.7c2.2,0,4.1-0.4,5.7-1.1
			c1.7-0.7,3-1.8,3.9-3.1c0.9-1.4,1.4-2.9,1.4-4.7v-18.1h-8.1v1.8H212.8z M212,305.1c-0.5,0.6-1.2,1-2,1s-1.5-0.3-2-1
			c-0.5-0.6-0.8-1.5-0.8-2.6s0.2-1.9,0.7-2.6c0.5-0.6,1.2-1,2-1s1.5,0.3,2,1c0.5,0.6,0.7,1.5,0.7,2.6
			C212.8,303.6,212.5,304.4,212,305.1z"/>
		<path class="st0" d="M239.4,294.4c-1.6-0.9-3.5-1.3-5.6-1.3s-3.9,0.4-5.5,1.3c-1.6,0.8-2.8,2-3.7,3.6c-0.9,1.5-1.3,3.3-1.3,5.4
			c0,2,0.4,3.8,1.3,5.3c0.9,1.5,2.1,2.7,3.7,3.5s3.5,1.2,5.7,1.2c1.9,0,3.6-0.3,5.1-0.9s2.8-1.5,3.8-2.7l-4.2-4.1
			c-1.2,1.2-2.6,1.8-4,1.8c-0.8,0-1.5-0.2-2-0.6c-0.6-0.4-1-1-1.2-1.7h12.8c0-0.2,0-0.6,0-1c0-2.2-0.4-4.1-1.3-5.8
			C242.2,296.5,241,295.2,239.4,294.4z M231.3,301.2c0.2-0.9,0.5-1.5,0.9-2.1c0.4-0.5,1-0.8,1.7-0.8s1.3,0.3,1.7,0.8s0.6,1.2,0.6,2
			h-4.9V301.2z"/>
		<path class="st0" d="M254.9,296.1v-2.8h-8.1V313h8.1v-9.8c0-1,0.2-1.7,0.7-2.3c0.5-0.6,1.1-0.9,1.9-0.9c0.7,0,1.3,0.2,1.7,0.7
			c0.4,0.5,0.6,1.1,0.6,2V313h8.1v-12.6c0-1.5-0.3-2.8-0.9-3.9s-1.4-2-2.5-2.6s-2.3-0.9-3.7-0.9c-1.3,0-2.4,0.3-3.4,0.8
			C256.5,294.3,255.6,295.1,254.9,296.1z"/>
		<path class="st0" d="M269.7,299.5h2.7v7.2c0,2,0.7,3.7,2,4.9s3.1,1.8,5.3,1.8c1.1,0,2.1-0.1,3.2-0.3s1.9-0.5,2.5-0.9l-1.4-5.5
			c-0.9,0.3-1.6,0.5-2,0.5c-0.5,0-0.9-0.1-1.2-0.4c-0.3-0.3-0.4-0.7-0.4-1.2v-5.9h4.6v-5.1h-4.6v-5.5h-8.1v5.5h-2.7v4.9H269.7z"/>
		<path class="st0" d="M291.9,283.6c-1.2,0-2.2,0.4-3,1.2c-0.8,0.8-1.2,1.8-1.2,3s0.4,2.2,1.2,3c0.8,0.8,1.8,1.2,3,1.2
			s2.2-0.4,3-1.2c0.8-0.8,1.2-1.8,1.2-3s-0.4-2.2-1.2-3C294.1,284,293.1,283.6,291.9,283.6z"/>
		<rect x="288" y="293.3" class="st0" width="8.1" height="19.7"/>
		<path class="st0" d="M308.1,303.2c0-1,0.2-1.7,0.7-2.3c0.5-0.6,1.1-0.9,1.9-0.9c0.7,0,1.3,0.2,1.7,0.7c0.4,0.5,0.6,1.1,0.6,2V313
			h8.1v-12.6c0-1.5-0.3-2.8-0.9-3.9s-1.4-2-2.5-2.6s-2.3-0.9-3.7-0.9c-1.3,0-2.4,0.3-3.4,0.8s-1.9,1.3-2.5,2.4v-2.8H300V313h8.1
			V303.2z"/>
		<path class="st0" d="M329.7,313.4c2.5,0,4.3-0.8,5.5-2.5v2.1h8v-12.7c0-2.3-0.8-4.1-2.4-5.4s-3.8-1.9-6.7-1.9
			c-1.5,0-3,0.2-4.7,0.5s-3.3,0.8-5,1.4l1.8,5.4c1.1-0.4,2.2-0.7,3.2-0.9c1.1-0.2,2-0.3,2.8-0.3c1,0,1.7,0.2,2.2,0.6
			s0.8,0.9,0.8,1.6h-4.5c-2.5,0-4.4,0.6-5.7,1.6s-1.9,2.5-1.9,4.4s0.6,3.4,1.7,4.5C326,312.8,327.6,313.4,329.7,313.4z M332.4,304.9
			h2.8v1.8c-0.3,0.5-0.7,0.9-1.2,1.1c-0.5,0.3-1,0.4-1.5,0.4c-0.6,0-1-0.1-1.3-0.5c-0.3-0.3-0.5-0.7-0.5-1.3
			C330.7,305.4,331.3,304.9,332.4,304.9z"/>
		<path class="st0" d="M164.2,368.9c-0.3,0.4-0.8,0.5-1.4,0.5c-0.7,0-1.5-0.2-2.4-0.7s-1.9-1.2-2.8-2.1l-3.8,5.4
			c2.7,2.9,5.9,4.4,9.8,4.4c2.9,0,5.2-0.8,6.9-2.3c1.7-1.6,2.6-3.7,2.6-6.6v-16.7h-17v6.6h8.6v9.9
			C164.7,368,164.5,368.5,164.2,368.9z"/>
		<path class="st0" d="M177,365.7c-1.3,1-1.9,2.5-1.9,4.4s0.6,3.4,1.7,4.5c1.2,1.1,2.8,1.7,4.8,1.7c2.5,0,4.3-0.8,5.5-2.5v2.1h8
			v-12.7c0-2.3-0.8-4.1-2.4-5.4c-1.6-1.3-3.8-1.9-6.7-1.9c-1.5,0-3,0.2-4.7,0.5s-3.3,0.8-5,1.4l1.8,5.4c1.1-0.4,2.2-0.7,3.2-0.9
			c1.1-0.2,2-0.3,2.8-0.3c1,0,1.7,0.2,2.2,0.6s0.8,0.9,0.8,1.6h-4.5C180.2,364.2,178.3,364.7,177,365.7z M184.3,367.9h2.8v1.8
			c-0.3,0.5-0.7,0.9-1.2,1.1c-0.5,0.3-1,0.4-1.5,0.4c-0.6,0-1-0.1-1.3-0.5c-0.3-0.3-0.5-0.7-0.5-1.3
			C182.6,368.4,183.2,367.9,184.3,367.9z"/>
		<path class="st0" d="M198.7,356.3V383h8.1v-9c0.6,0.7,1.4,1.3,2.3,1.7c0.9,0.4,1.9,0.6,2.9,0.6c1.8,0,3.3-0.4,4.7-1.2
			c1.3-0.8,2.4-2,3.1-3.5c0.7-1.5,1.1-3.3,1.1-5.3c0-2.1-0.4-3.9-1.1-5.4c-0.7-1.5-1.8-2.7-3.2-3.6c-1.4-0.8-3-1.3-4.8-1.3
			c-2,0-3.7,0.8-5,2.3v-2L198.7,356.3L198.7,356.3z M207.6,363.3c0.5-0.7,1.2-1,2.1-1c0.9,0,1.6,0.3,2.1,1s0.8,1.6,0.8,2.8
			c0,1.2-0.3,2.1-0.8,2.8c-0.5,0.7-1.3,1-2.1,1c-0.9,0-1.6-0.3-2.1-1s-0.8-1.6-0.8-2.8S207.1,364,207.6,363.3z"/>
		<path class="st0" d="M223.9,365.7c-1.3,1-1.9,2.5-1.9,4.4s0.6,3.4,1.7,4.5c1.2,1.1,2.8,1.7,4.8,1.7c2.5,0,4.3-0.8,5.5-2.5v2.1h8
			v-12.7c0-2.3-0.8-4.1-2.4-5.4c-1.6-1.3-3.8-1.9-6.7-1.9c-1.5,0-3,0.2-4.7,0.5s-3.3,0.8-5,1.4l1.8,5.4c1.1-0.4,2.2-0.7,3.2-0.9
			c1.1-0.2,2-0.3,2.8-0.3c1,0,1.7,0.2,2.2,0.6s0.8,0.9,0.8,1.6h-4.5C227.1,364.2,225.2,364.7,223.9,365.7z M231.3,367.9h2.8v1.8
			c-0.3,0.5-0.7,0.9-1.2,1.1c-0.5,0.3-1,0.4-1.5,0.4c-0.6,0-1-0.1-1.3-0.5c-0.3-0.3-0.5-0.7-0.5-1.3
			C229.5,368.4,230.1,367.9,231.3,367.9z"/>
		<path class="st0" d="M245.4,356.3V376h8.1v-9.8c0-1,0.2-1.7,0.7-2.3c0.5-0.6,1.1-0.9,1.9-0.9c0.7,0,1.3,0.2,1.7,0.7
			c0.4,0.5,0.6,1.1,0.6,2V376h8.1v-12.6c0-1.5-0.3-2.8-0.9-3.9s-1.4-2-2.5-2.6s-2.3-0.9-3.7-0.9c-1.3,0-2.4,0.3-3.4,0.8
			s-1.9,1.3-2.5,2.4v-2.8h-8.1V356.3z"/>
		<path class="st0" d="M161,437.9c2,1.1,4.3,1.7,6.9,1.7c1.9,0,3.9-0.5,5.9-1.4s3.7-2.2,5.1-3.7l-4.8-5.1c-0.8,0.9-1.7,1.6-2.8,2.1
			c-1,0.5-2,0.8-2.9,0.8c-1,0-1.9-0.3-2.7-0.8s-1.4-1.3-1.9-2.2c-0.4-0.9-0.7-2-0.7-3.1c0-1.2,0.2-2.2,0.7-3.1
			c0.4-0.9,1.1-1.6,1.9-2.1c0.8-0.5,1.7-0.8,2.7-0.8s2,0.3,3,1s1.9,1.5,2.7,2.5l4.8-5.7c-1.3-1.4-2.9-2.5-4.9-3.4
			c-1.9-0.9-3.9-1.3-5.8-1.3c-2.6,0-5,0.6-7,1.7c-2.1,1.1-3.7,2.7-4.9,4.7s-1.8,4.2-1.8,6.7s0.6,4.8,1.7,6.8S159,436.7,161,437.9z"
			/>
		<path class="st0" d="M180.9,412.3V439h8.1v-9.8c0-1,0.2-1.7,0.7-2.3c0.5-0.6,1.1-0.9,1.9-0.9c0.7,0,1.3,0.2,1.7,0.7s0.6,1.1,0.6,2
			V439h8.1v-12.6c0-1.5-0.3-2.8-0.9-3.9c-0.6-1.1-1.4-2-2.5-2.6s-2.3-0.9-3.7-0.9c-1.3,0-2.4,0.3-3.4,0.8s-1.9,1.3-2.5,2.4v-9.8
			h-8.1V412.3z"/>
		<rect x="205.5" y="419.3" class="st0" width="8.1" height="19.7"/>
		<path class="st0" d="M209.4,417.8c1.2,0,2.2-0.4,3-1.2c0.8-0.8,1.2-1.8,1.2-3s-0.4-2.2-1.2-3s-1.8-1.2-3-1.2s-2.2,0.4-3,1.2
			c-0.8,0.8-1.2,1.8-1.2,3s0.4,2.2,1.2,3C207.3,417.4,208.2,417.8,209.4,417.8z"/>
		<path class="st0" d="M217.5,439h8.1v-9.8c0-1,0.2-1.7,0.7-2.3c0.5-0.6,1.1-0.9,1.9-0.9c0.7,0,1.3,0.2,1.7,0.7s0.6,1.1,0.6,2V439
			h8.1v-12.6c0-1.5-0.3-2.8-0.9-3.9c-0.6-1.1-1.4-2-2.5-2.6s-2.3-0.9-3.7-0.9c-1.3,0-2.4,0.3-3.4,0.8s-1.9,1.3-2.5,2.4v-2.8h-8.1
			L217.5,439L217.5,439z"/>
		<path class="st0" d="M260.7,439v-12.7c0-2.3-0.8-4.1-2.4-5.4s-3.8-1.9-6.7-1.9c-1.5,0-3,0.2-4.7,0.5s-3.3,0.8-5,1.4l1.8,5.4
			c1.1-0.4,2.2-0.7,3.2-0.9c1.1-0.2,2-0.3,2.8-0.3c1,0,1.7,0.2,2.2,0.6s0.8,0.9,0.8,1.6h-4.5c-2.5,0-4.4,0.6-5.7,1.6
			s-1.9,2.5-1.9,4.4s0.6,3.4,1.7,4.5c1.2,1.1,2.8,1.7,4.8,1.7c2.5,0,4.3-0.8,5.5-2.5v2.1h8.1V439z M251.6,433.8
			c-0.5,0.3-1,0.4-1.5,0.4c-0.6,0-1-0.1-1.3-0.5c-0.3-0.3-0.5-0.7-0.5-1.3c0-1.1,0.6-1.6,1.7-1.6h2.8v1.8
			C252.5,433.2,252.1,433.6,251.6,433.8z"/>
		<path class="st0" d="M161.1,501.2c1.8,0.9,3.9,1.4,6.3,1.4c2.4,0,4.5-0.5,6.2-1.4c1.8-0.9,3.2-2.2,4.1-3.9c1-1.7,1.5-3.6,1.5-5.8
			v-14.8h-8.4v14.8c0,1.2-0.3,2.2-1,3s-1.5,1.1-2.4,1.1c-1,0-1.9-0.4-2.6-1.2c-0.7-0.8-1.1-1.8-1.1-3v-14.8h-8.4v14.8
			c0,2.2,0.5,4.1,1.5,5.8C157.9,499,159.3,500.3,161.1,501.2z"/>
		<path class="st0" d="M190.8,492.2c0-1,0.2-1.7,0.7-2.3c0.5-0.6,1.1-0.9,1.9-0.9c0.7,0,1.3,0.2,1.7,0.7s0.6,1.1,0.6,2V502h8.1
			v-12.6c0-1.5-0.3-2.8-0.9-3.9c-0.6-1.1-1.4-2-2.5-2.6s-2.3-0.9-3.7-0.9c-1.3,0-2.4,0.3-3.4,0.8s-1.9,1.3-2.5,2.4v-2.8h-8.1V502
			h8.1L190.8,492.2L190.8,492.2z"/>
		<rect x="207.2" y="482.3" class="st0" width="8.1" height="19.7"/>
		<path class="st0" d="M211.2,480.8c1.2,0,2.2-0.4,3-1.2c0.8-0.8,1.2-1.8,1.2-3s-0.4-2.2-1.2-3s-1.8-1.2-3-1.2s-2.2,0.4-3,1.2
			c-0.8,0.8-1.2,1.8-1.2,3s0.4,2.2,1.2,3C209,480.4,210,480.8,211.2,480.8z"/>
		<path class="st0" d="M222.3,500.5c1.3,1.2,3.1,1.8,5.3,1.8c1.1,0,2.1-0.1,3.2-0.3s1.9-0.5,2.5-0.9l-1.4-5.5
			c-0.9,0.3-1.6,0.5-2,0.5c-0.5,0-0.9-0.1-1.2-0.4s-0.4-0.7-0.4-1.2v-5.9h4.6v-5.1h-4.6V478h-8.1v5.5h-2.7v5.1h2.7v7.2
			C220.3,497.7,220.9,499.3,222.3,500.5z"/>
		<path class="st0" d="M255.4,492.9c0-2.2-0.4-4.1-1.3-5.8c-0.8-1.6-2.1-2.9-3.6-3.8c-1.6-0.9-3.5-1.3-5.6-1.3s-3.9,0.4-5.5,1.3
			c-1.6,0.8-2.8,2-3.7,3.6c-0.9,1.5-1.3,3.3-1.3,5.4c0,2,0.4,3.8,1.3,5.3c0.9,1.5,2.1,2.7,3.7,3.5s3.5,1.2,5.7,1.2
			c1.9,0,3.6-0.3,5.1-0.9s2.8-1.5,3.8-2.7l-4.2-4.1c-1.2,1.2-2.6,1.8-4,1.8c-0.8,0-1.5-0.2-2-0.6c-0.6-0.4-1-1-1.2-1.7h12.8
			C255.4,493.7,255.4,493.4,255.4,492.9z M242.4,490.2c0.2-0.9,0.5-1.5,0.9-2.1c0.4-0.5,1-0.8,1.7-0.8s1.3,0.3,1.7,0.8
			s0.6,1.2,0.6,2h-4.9V490.2z"/>
		<path class="st0" d="M265.3,482c-1.8,0-3.3,0.4-4.7,1.2c-1.3,0.8-2.4,2-3.1,3.5s-1.1,3.3-1.1,5.3c0,2.1,0.4,3.9,1.1,5.4
			s1.8,2.7,3.2,3.6c1.4,0.8,3,1.3,4.8,1.3c2,0,3.7-0.8,5-2.3v2h8.1v-26.7h-8.1v9c-0.6-0.7-1.4-1.3-2.3-1.7
			C267.3,482.2,266.4,482,265.3,482z M269.7,489.5c0.5,0.7,0.8,1.6,0.8,2.8s-0.3,2.1-0.8,2.8c-0.5,0.7-1.2,1-2.1,1s-1.6-0.3-2.1-1
			s-0.8-1.6-0.8-2.8s0.3-2.1,0.8-2.8c0.5-0.7,1.3-1,2.1-1C268.5,488.4,269.2,488.8,269.7,489.5z"/>
		<path class="st0" d="M300,482.5c1.1,0,2.4,0.3,4.1,0.9s3.2,1.3,4.6,2.1l3-6.4c-1.4-0.9-3.1-1.6-5.1-2.2s-3.9-0.8-5.9-0.8
			c-2.2,0-4.1,0.3-5.7,1s-2.9,1.6-3.8,2.9s-1.3,2.7-1.3,4.4c0,1.7,0.4,3.1,1.3,4.1s1.9,1.8,3.1,2.3s2.7,1,4.4,1.4
			c1.5,0.4,2.5,0.7,3.2,1s1,0.8,1,1.4c0,0.5-0.2,0.8-0.5,1.1c-0.4,0.2-0.9,0.3-1.5,0.3c-1.3,0-2.9-0.4-4.8-1.2
			c-1.9-0.8-3.5-1.7-4.8-2.8l-3.1,6.3c1.7,1.3,3.6,2.3,5.9,3s4.5,1.1,6.8,1.1c2,0,3.8-0.3,5.4-0.9s2.9-1.5,3.8-2.8
			c0.9-1.2,1.4-2.8,1.4-4.6c0-1.8-0.4-3.2-1.3-4.3c-0.9-1.1-1.9-1.9-3.1-2.4s-2.7-1-4.5-1.5c-1.4-0.4-2.5-0.7-3.2-1s-1-0.8-1-1.3
			C298.5,482.9,299,482.5,300,482.5z"/>
		<path class="st0" d="M314.9,477.9v5.5h-2.7v5.1h2.7v7.2c0,2,0.7,3.7,2,4.9s3.1,1.8,5.3,1.8c1.1,0,2.1-0.1,3.2-0.3s1.9-0.5,2.5-0.9
			l-1.4-5.5c-0.9,0.3-1.6,0.5-2,0.5c-0.5,0-0.9-0.1-1.2-0.4c-0.3-0.3-0.4-0.7-0.4-1.2v-5.9h4.6v-5.1h-4.6v-5.5h-8V477.9z"/>
		<path class="st0" d="M335.3,482.4c-1.7,0.3-3.3,0.8-5,1.4l1.8,5.4c1.1-0.4,2.2-0.7,3.2-0.9c1.1-0.2,2-0.3,2.8-0.3
			c1,0,1.7,0.2,2.2,0.6s0.8,0.9,0.8,1.6h-4.5c-2.5,0-4.4,0.6-5.7,1.6s-1.9,2.5-1.9,4.4s0.6,3.4,1.7,4.5c1.2,1.1,2.8,1.7,4.8,1.7
			c2.5,0,4.3-0.8,5.5-2.5v2.1h8v-12.7c0-2.3-0.8-4.1-2.4-5.4s-3.8-1.9-6.7-1.9C338.5,481.9,337,482.1,335.3,482.4z M341.1,495.7
			c-0.3,0.5-0.7,0.9-1.2,1.1c-0.5,0.3-1,0.4-1.5,0.4c-0.6,0-1-0.1-1.3-0.5c-0.3-0.3-0.5-0.7-0.5-1.3c0-1.1,0.6-1.6,1.7-1.6h2.8
			V495.7z"/>
		<path class="st0" d="M363.2,496.1c-0.5,0-0.9-0.1-1.2-0.4c-0.3-0.3-0.4-0.7-0.4-1.2v-5.9h4.6v-5.1h-4.6V478h-8.1v5.5h-2.7v5.1h2.7
			v7.2c0,2,0.7,3.7,2,4.9s3.1,1.8,5.3,1.8c1.1,0,2.1-0.1,3.2-0.3c1-0.2,1.9-0.5,2.5-0.9l-1.4-5.5
			C364.3,495.9,363.6,496.1,363.2,496.1z"/>
		<path class="st0" d="M372.6,501c1.6,0.8,3.5,1.2,5.7,1.2c1.9,0,3.6-0.3,5.1-0.9s2.8-1.5,3.8-2.7l-4.2-4.1c-1.2,1.2-2.6,1.8-4,1.8
			c-0.8,0-1.5-0.2-2-0.6c-0.6-0.4-1-1-1.2-1.7h12.8c0-0.2,0-0.6,0-1c0-2.2-0.4-4.1-1.3-5.8s-2.1-2.9-3.6-3.8
			c-1.6-0.9-3.5-1.3-5.6-1.3s-3.9,0.4-5.5,1.3c-1.6,0.8-2.8,2-3.7,3.6c-0.9,1.5-1.3,3.3-1.3,5.4c0,2,0.4,3.8,1.3,5.3
			S371,500.2,372.6,501z M376.5,488.2c0.4-0.5,1-0.8,1.7-0.8s1.3,0.3,1.7,0.8c0.4,0.5,0.6,1.2,0.6,2h-4.9
			C375.8,489.4,376.1,488.7,376.5,488.2z"/>
		<path class="st0" d="M398.2,487.5c0.2-0.1,0.5-0.2,0.8-0.2c1.5,0,3.7,0.7,6.7,2.2l2.7-5c-3-1.7-6-2.5-9.1-2.5
			c-1.7,0-3.2,0.3-4.6,0.8c-1.3,0.6-2.3,1.4-3,2.4s-1.1,2.2-1.1,3.6s0.4,2.5,1.1,3.3s1.6,1.5,2.6,1.9s2.2,0.8,3.6,1.2
			c0.9,0.2,1.6,0.5,2,0.6c0.4,0.2,0.6,0.4,0.6,0.7c0,0.2-0.1,0.3-0.3,0.4c-0.2,0.1-0.5,0.2-0.9,0.2c-2.2,0-4.6-0.8-7.3-2.4l-2.4,5
			c2.7,1.9,5.9,2.8,9.6,2.8c1.8,0,3.4-0.3,4.7-0.8c1.3-0.6,2.4-1.3,3.1-2.3s1.1-2.2,1.1-3.5s-0.4-2.4-1.1-3.3
			c-0.8-0.8-1.6-1.5-2.6-1.9s-2.2-0.8-3.6-1.2c-1-0.3-1.7-0.5-2.2-0.7c-0.4-0.2-0.6-0.4-0.6-0.7C397.9,487.7,398,487.6,398.2,487.5z
			"/>
		<polygon class="st0" points="180.3,539.8 172,539.8 172,549.6 164.2,549.6 164.2,539.8 155.8,539.8 155.8,565 164.2,565 
			164.2,555.9 172,555.9 172,565 180.3,565 		"/>
		<path class="st0" d="M204.3,565v-19.7h-8.1v9.8c0,1-0.2,1.7-0.6,2.3c-0.4,0.6-1,0.9-1.8,0.9c-0.6,0-1.2-0.2-1.6-0.7
			s-0.6-1.1-0.6-2v-10.2h-8.1V558c0,1.5,0.3,2.8,0.9,3.9c0.6,1.1,1.4,2,2.4,2.6s2.2,0.9,3.6,0.9c1.2,0,2.4-0.3,3.3-0.8
			c1-0.5,1.8-1.3,2.4-2.3v2.7H204.3z"/>
		<path class="st0" d="M216.4,555.2c0-1,0.2-1.7,0.7-2.3s1.1-0.9,1.9-0.9c0.7,0,1.3,0.2,1.7,0.7s0.6,1.1,0.6,2V565h8.1v-12.6
			c0-1.5-0.3-2.8-0.9-3.9c-0.6-1.1-1.4-2-2.5-2.6s-2.3-0.9-3.7-0.9c-1.3,0-2.4,0.3-3.4,0.8s-1.9,1.3-2.5,2.4v-2.8h-8.1V565h8.1
			L216.4,555.2L216.4,555.2z"/>
		<path class="st0" d="M247.2,571.2c1.7-0.7,3-1.8,3.9-3.1c0.9-1.4,1.4-2.9,1.4-4.7v-18.1h-8.1v1.8c-1.3-1.4-3-2.1-5.1-2.1
			c-1.5,0-2.9,0.4-4.1,1.2c-1.2,0.8-2.2,1.9-2.8,3.3c-0.7,1.4-1,3-1,4.9s0.3,3.6,1,5s1.7,2.6,2.9,3.3c1.2,0.8,2.6,1.2,4.2,1.2
			c2,0,3.7-0.7,4.9-2.1v1.9c0,0.8-0.3,1.4-1,1.8c-0.6,0.4-1.5,0.7-2.7,0.7c-1,0-2-0.2-3.1-0.5s-2.1-0.7-2.9-1.3l-2.6,5.4
			c1.1,0.7,2.5,1.4,4.1,1.8c1.6,0.5,3.4,0.7,5.2,0.7C243.6,572.3,245.6,572,247.2,571.2z M243.7,557.1c-0.5,0.6-1.2,1-2,1
			s-1.5-0.3-2-1c-0.5-0.6-0.8-1.5-0.8-2.6s0.2-1.9,0.7-2.6c0.5-0.6,1.2-1,2-1s1.5,0.3,2,1c0.5,0.6,0.7,1.5,0.7,2.6
			C244.4,555.6,244.2,556.4,243.7,557.1z"/>
		<path class="st0" d="M261.5,565.4c2.5,0,4.3-0.8,5.5-2.5v2.1h8v-12.7c0-2.3-0.8-4.1-2.4-5.4c-1.6-1.3-3.8-1.9-6.7-1.9
			c-1.5,0-3,0.2-4.7,0.5s-3.3,0.8-5,1.4l1.8,5.4c1.1-0.4,2.2-0.7,3.2-0.9c1.1-0.2,2-0.3,2.8-0.3c1,0,1.7,0.2,2.2,0.6
			c0.5,0.4,0.8,0.9,0.8,1.6h-4.5c-2.5,0-4.4,0.6-5.7,1.6s-1.9,2.5-1.9,4.4s0.6,3.4,1.7,4.5C257.9,564.8,259.5,565.4,261.5,565.4z
			 M264.3,556.9h2.8v1.8c-0.3,0.5-0.7,0.9-1.2,1.1c-0.5,0.3-1,0.4-1.5,0.4c-0.6,0-1-0.1-1.3-0.5c-0.3-0.3-0.5-0.7-0.5-1.3
			C262.5,557.4,263.1,556.9,264.3,556.9z"/>
		<path class="st0" d="M286.6,555.6c0-1.1,0.4-1.9,1.2-2.5c0.8-0.6,1.9-0.9,3.3-0.9c0.5,0,1,0,1.5,0.1V545c-1.3,0-2.4,0.3-3.4,0.8
			c-1,0.6-1.9,1.4-2.6,2.4v-2.9h-8.1V565h8.1V555.6z"/>
		<path class="st0" d="M308.4,566.4l8.1-21.1h-8.1l-3.2,11.2l-3.9-11.2H293l8.2,19.1l-0.3,0.5c-0.4,0.7-1,1-1.9,1s-1.8-0.4-2.6-1.2
			L293,570c1.1,0.8,2.1,1.4,3.2,1.7c1.1,0.4,2.3,0.6,3.6,0.6c2.1,0,3.9-0.5,5.3-1.5C306.4,569.9,307.5,568.4,308.4,566.4z"/>
		<path class="st0" d="M164.2,621.4h3.5c3.3,0,5.8-0.8,7.6-2.5s2.7-4.1,2.7-7.1c0-2.9-0.9-5.1-2.7-6.7c-1.8-1.6-4.3-2.4-7.6-2.4
			h-11.8V628h8.4L164.2,621.4L164.2,621.4z M164.2,609.1h3.1c0.9,0,1.6,0.3,2.1,0.8s0.7,1.2,0.7,2.2s-0.2,1.7-0.7,2.2
			s-1.2,0.8-2.1,0.8h-3.1V609.1z"/>
		<path class="st0" d="M184.5,627c1.7,0.8,3.6,1.3,5.9,1.3s4.2-0.4,5.9-1.3c1.7-0.8,3-2,3.9-3.5s1.4-3.3,1.4-5.3s-0.5-3.8-1.4-5.3
			s-2.2-2.7-3.9-3.5s-3.6-1.2-5.9-1.2s-4.2,0.4-5.9,1.2s-3,2-3.9,3.5s-1.4,3.3-1.4,5.3s0.5,3.8,1.4,5.3S182.8,626.2,184.5,627z
			 M188.2,615.5c0.5-0.7,1.3-1,2.1-1c0.9,0,1.6,0.3,2.1,1s0.8,1.6,0.8,2.8s-0.3,2.1-0.8,2.8s-1.3,1-2.1,1c-0.9,0-1.6-0.3-2.1-1
			s-0.8-1.6-0.8-2.8S187.7,616.2,188.2,615.5z"/>
		<rect x="204.2" y="601.3" class="st0" width="8.1" height="26.7"/>
		<path class="st0" d="M216.9,617.7c-1.3,1-1.9,2.5-1.9,4.4s0.6,3.4,1.7,4.5c1.2,1.1,2.8,1.7,4.8,1.7c2.5,0,4.3-0.8,5.5-2.5v2.1h8
			v-12.7c0-2.3-0.8-4.1-2.4-5.4c-1.6-1.3-3.8-1.9-6.7-1.9c-1.5,0-3,0.2-4.7,0.5s-3.3,0.8-5,1.4l1.8,5.4c1.1-0.4,2.2-0.7,3.2-0.9
			c1.1-0.2,2-0.3,2.8-0.3c1,0,1.7,0.2,2.2,0.6c0.5,0.4,0.8,0.9,0.8,1.6h-4.5C220.1,616.2,218.2,616.7,216.9,617.7z M224.3,619.9h2.8
			v1.8c-0.3,0.5-0.7,0.9-1.2,1.1c-0.5,0.3-1,0.4-1.5,0.4c-0.6,0-1-0.1-1.3-0.5c-0.3-0.3-0.5-0.7-0.5-1.3
			C222.6,620.4,223.2,619.9,224.3,619.9z"/>
		<path class="st0" d="M246.6,618.2c0-1,0.2-1.7,0.7-2.3s1.1-0.9,1.9-0.9c0.7,0,1.3,0.2,1.7,0.7s0.6,1.1,0.6,2V628h8.1v-12.6
			c0-1.5-0.3-2.8-0.9-3.9c-0.6-1.1-1.4-2-2.5-2.6s-2.3-0.9-3.7-0.9c-1.3,0-2.4,0.3-3.4,0.8s-1.9,1.3-2.5,2.4v-2.8h-8.1V628h8.1
			L246.6,618.2L246.6,618.2z"/>
		<path class="st0" d="M283.7,601.3h-8.1v9c-0.6-0.7-1.4-1.3-2.3-1.7s-1.9-0.6-2.9-0.6c-1.8,0-3.3,0.4-4.7,1.2
			c-1.3,0.8-2.4,2-3.1,3.5s-1.1,3.3-1.1,5.3c0,2.1,0.4,3.9,1.1,5.4s1.8,2.7,3.2,3.6c1.4,0.8,3,1.3,4.8,1.3c2,0,3.7-0.8,5-2.3v2h8.1
			V601.3z M274.9,621c-0.5,0.7-1.2,1-2.1,1s-1.6-0.3-2.1-1s-0.8-1.6-0.8-2.8s0.3-2.1,0.8-2.8s1.3-1,2.1-1c0.9,0,1.6,0.3,2.1,1
			s0.8,1.6,0.8,2.8S275.4,620.3,274.9,621z"/>
		<path class="st0" d="M163.5,687.4h9.5l1.3,3.6h8.9l-10.3-25.2h-8.6L153.6,691h8.6L163.5,687.4z M168.3,674.1l2.6,7.4h-5.3
			L168.3,674.1z"/>
		<path class="st0" d="M190.4,691.4c1.2,0,2.4-0.3,3.3-0.8c1-0.5,1.8-1.3,2.4-2.3v2.7h8.1v-19.7h-8.1v9.8c0,1-0.2,1.7-0.6,2.3
			c-0.4,0.6-1,0.9-1.8,0.9c-0.6,0-1.2-0.2-1.6-0.7s-0.6-1.1-0.6-2v-10.2h-8.1V684c0,1.5,0.3,2.8,0.9,3.9c0.6,1.1,1.4,2,2.4,2.6
			C187.8,691,189,691.4,190.4,691.4z"/>
		<path class="st0" d="M224.1,688.2c0.7-1,1.1-2.2,1.1-3.5s-0.4-2.4-1.1-3.3c-0.8-0.8-1.6-1.5-2.6-1.9s-2.2-0.8-3.6-1.2
			c-1-0.3-1.7-0.5-2.2-0.7c-0.4-0.2-0.6-0.4-0.6-0.7c0-0.2,0.1-0.3,0.3-0.5c0.2-0.1,0.5-0.2,0.8-0.2c1.5,0,3.7,0.7,6.7,2.2l2.7-5
			c-3-1.7-6-2.5-9.1-2.5c-1.7,0-3.2,0.3-4.6,0.8c-1.3,0.6-2.3,1.4-3,2.4s-1.1,2.2-1.1,3.6s0.4,2.5,1.1,3.3s1.6,1.5,2.6,1.9
			s2.2,0.8,3.6,1.2c0.9,0.2,1.6,0.5,2,0.6c0.4,0.2,0.6,0.4,0.6,0.7c0,0.2-0.1,0.3-0.3,0.4c-0.2,0.1-0.5,0.2-0.9,0.2
			c-2.2,0-4.6-0.8-7.3-2.4l-2.4,5c2.7,1.9,5.9,2.8,9.6,2.8c1.8,0,3.4-0.3,4.7-0.8S223.4,689.2,224.1,688.2z"/>
		<path class="st0" d="M229.1,666.9v5.5h-2.7v5.1h2.7v7.2c0,2,0.7,3.7,2,4.9s3.1,1.8,5.3,1.8c1.1,0,2.1-0.1,3.2-0.3s1.9-0.5,2.5-0.9
			l-1.4-5.5c-0.9,0.3-1.6,0.5-2,0.5c-0.5,0-0.9-0.1-1.2-0.4c-0.3-0.3-0.4-0.7-0.4-1.2v-5.9h4.6v-5.1h-4.6v-5.5h-8V666.9z"/>
		<path class="st0" d="M244.6,671.3V691h8.1v-9.4c0-1.1,0.4-1.9,1.2-2.5s1.9-0.9,3.3-0.9c0.5,0,1,0,1.5,0.1V671
			c-1.3,0-2.4,0.3-3.4,0.8c-1,0.6-1.9,1.4-2.6,2.4v-2.9L244.6,671.3L244.6,671.3z"/>
		<path class="st0" d="M279.4,691v-12.7c0-2.3-0.8-4.1-2.4-5.4c-1.6-1.3-3.8-1.9-6.7-1.9c-1.5,0-3,0.2-4.7,0.5s-3.3,0.8-5,1.4
			l1.8,5.4c1.1-0.4,2.2-0.7,3.2-0.9c1.1-0.2,2-0.3,2.8-0.3c1,0,1.7,0.2,2.2,0.6c0.5,0.4,0.8,0.9,0.8,1.6h-4.5
			c-2.5,0-4.4,0.6-5.7,1.6s-1.9,2.5-1.9,4.4s0.6,3.4,1.7,4.5c1.2,1.1,2.8,1.7,4.8,1.7c2.5,0,4.3-0.8,5.5-2.5v2.1L279.4,691
			L279.4,691z M270.2,685.8c-0.5,0.3-1,0.4-1.5,0.4c-0.6,0-1-0.1-1.3-0.5c-0.3-0.3-0.5-0.7-0.5-1.3c0-1.1,0.6-1.6,1.7-1.6h2.8v1.8
			C271.1,685.2,270.7,685.6,270.2,685.8z"/>
		<rect x="283" y="664.3" class="st0" width="8.1" height="26.7"/>
		<path class="st0" d="M299.2,669.8c1.2,0,2.2-0.4,3-1.2s1.2-1.8,1.2-3s-0.4-2.2-1.2-3c-0.8-0.8-1.8-1.2-3-1.2s-2.2,0.4-3,1.2
			s-1.2,1.8-1.2,3s0.4,2.2,1.2,3C297,669.4,298,669.8,299.2,669.8z"/>
		<rect x="295.2" y="671.3" class="st0" width="8.1" height="19.7"/>
		<path class="st0" d="M325.9,691v-12.7c0-2.3-0.8-4.1-2.4-5.4c-1.6-1.3-3.8-1.9-6.7-1.9c-1.5,0-3,0.2-4.7,0.5s-3.3,0.8-5,1.4
			l1.8,5.4c1.1-0.4,2.2-0.7,3.2-0.9c1.1-0.2,2-0.3,2.8-0.3c1,0,1.7,0.2,2.2,0.6c0.5,0.4,0.8,0.9,0.8,1.6h-4.5
			c-2.5,0-4.4,0.6-5.7,1.6s-1.9,2.5-1.9,4.4s0.6,3.4,1.7,4.5c1.2,1.1,2.8,1.7,4.8,1.7c2.5,0,4.3-0.8,5.5-2.5v2.1L325.9,691
			L325.9,691z M316.8,685.8c-0.5,0.3-1,0.4-1.5,0.4c-0.6,0-1-0.1-1.3-0.5c-0.3-0.3-0.5-0.7-0.5-1.3c0-1.1,0.6-1.6,1.7-1.6h2.8v1.8
			C317.7,685.2,317.3,685.6,316.8,685.8z"/>
		<polygon class="st0" points="186,754 186,728.8 177.1,728.8 170.9,741.9 164.7,728.8 155.8,728.8 155.8,754 163.1,754 
			163.1,740.2 168.2,751.6 173.6,751.6 178.7,740.2 178.7,754 		"/>
		<path class="st0" d="M208.4,754v-12.7c0-2.3-0.8-4.1-2.4-5.4c-1.6-1.3-3.8-1.9-6.7-1.9c-1.5,0-3,0.2-4.7,0.5s-3.3,0.8-5,1.4
			l1.8,5.4c1.1-0.4,2.2-0.7,3.2-0.9c1.1-0.2,2-0.3,2.8-0.3c1,0,1.7,0.2,2.2,0.6c0.5,0.4,0.8,0.9,0.8,1.6H196c-2.5,0-4.4,0.6-5.7,1.6
			s-1.9,2.5-1.9,4.4s0.6,3.4,1.7,4.5c1.2,1.1,2.8,1.7,4.8,1.7c2.5,0,4.3-0.8,5.5-2.5v2.1L208.4,754L208.4,754z M199.3,748.8
			c-0.5,0.3-1,0.4-1.5,0.4c-0.6,0-1-0.1-1.3-0.5c-0.3-0.3-0.5-0.7-0.5-1.3c0-1.1,0.6-1.6,1.7-1.6h2.8v1.8
			C200.2,748.2,199.8,748.6,199.3,748.8z"/>
		<rect x="212" y="727.3" class="st0" width="8.1" height="26.7"/>
		<path class="st0" d="M242.9,754v-12.7c0-2.3-0.8-4.1-2.4-5.4c-1.6-1.3-3.8-1.9-6.7-1.9c-1.5,0-3,0.2-4.7,0.5s-3.3,0.8-5,1.4
			l1.8,5.4c1.1-0.4,2.2-0.7,3.2-0.9c1.1-0.2,2-0.3,2.8-0.3c1,0,1.7,0.2,2.2,0.6c0.5,0.4,0.8,0.9,0.8,1.6h-4.5
			c-2.5,0-4.4,0.6-5.7,1.6s-1.9,2.5-1.9,4.4s0.6,3.4,1.7,4.5c1.2,1.1,2.8,1.7,4.8,1.7c2.5,0,4.3-0.8,5.5-2.5v2.1L242.9,754
			L242.9,754z M233.8,748.8c-0.5,0.3-1,0.4-1.5,0.4c-0.6,0-1-0.1-1.3-0.5c-0.3-0.3-0.5-0.7-0.5-1.3c0-1.1,0.6-1.6,1.7-1.6h2.8v1.8
			C234.7,748.2,234.2,748.6,233.8,748.8z"/>
		<path class="st0" d="M249.7,754.9c-0.9,0-1.8-0.4-2.6-1.2l-3.4,5.3c1.1,0.8,2.1,1.4,3.2,1.7c1.1,0.4,2.3,0.6,3.6,0.6
			c2.1,0,3.9-0.5,5.3-1.5s2.5-2.5,3.3-4.5l8.1-21.1h-8.1l-3.2,11.2l-3.9-11.2h-8.3l8.2,19.1l-0.3,0.5
			C251.2,754.5,250.6,754.9,249.7,754.9z"/>
		<path class="st0" d="M275.5,739.5c0.2-0.1,0.5-0.2,0.8-0.2c1.5,0,3.7,0.7,6.7,2.2l2.7-5c-3-1.7-6-2.5-9.1-2.5
			c-1.7,0-3.2,0.3-4.6,0.8c-1.3,0.6-2.3,1.4-3,2.4s-1.1,2.2-1.1,3.6s0.4,2.5,1.1,3.3s1.6,1.5,2.6,1.9s2.2,0.8,3.6,1.2
			c0.9,0.2,1.6,0.5,2,0.6c0.4,0.2,0.6,0.4,0.6,0.7c0,0.2-0.1,0.3-0.3,0.4c-0.2,0.1-0.5,0.2-0.9,0.2c-2.2,0-4.6-0.8-7.3-2.4l-2.4,5
			c2.7,1.9,5.9,2.8,9.6,2.8c1.8,0,3.4-0.3,4.7-0.8s2.4-1.3,3.1-2.3s1.1-2.2,1.1-3.5s-0.4-2.4-1.1-3.3c-0.8-0.8-1.6-1.5-2.6-1.9
			s-2.2-0.8-3.6-1.2c-1-0.3-1.7-0.5-2.2-0.7c-0.4-0.2-0.6-0.4-0.6-0.7C275.2,739.7,275.3,739.6,275.5,739.5z"/>
		<rect x="288.3" y="734.3" class="st0" width="8.1" height="19.7"/>
		<path class="st0" d="M292.3,732.8c1.2,0,2.2-0.4,3-1.2s1.2-1.8,1.2-3s-0.4-2.2-1.2-3c-0.8-0.8-1.8-1.2-3-1.2s-2.2,0.4-3,1.2
			s-1.2,1.8-1.2,3s0.4,2.2,1.2,3C290.1,732.4,291.1,732.8,292.3,732.8z"/>
		<path class="st0" d="M319,754v-12.7c0-2.3-0.8-4.1-2.4-5.4c-1.6-1.3-3.8-1.9-6.7-1.9c-1.5,0-3,0.2-4.7,0.5s-3.3,0.8-5,1.4l1.8,5.4
			c1.1-0.4,2.2-0.7,3.2-0.9c1.1-0.2,2-0.3,2.8-0.3c1,0,1.7,0.2,2.2,0.6c0.5,0.4,0.8,0.9,0.8,1.6h-4.5c-2.5,0-4.4,0.6-5.7,1.6
			s-1.9,2.5-1.9,4.4s0.6,3.4,1.7,4.5c1.2,1.1,2.8,1.7,4.8,1.7c2.5,0,4.3-0.8,5.5-2.5v2.1L319,754L319,754z M309.9,748.8
			c-0.5,0.3-1,0.4-1.5,0.4c-0.6,0-1-0.1-1.3-0.5c-0.3-0.3-0.5-0.7-0.5-1.3c0-1.1,0.6-1.6,1.7-1.6h2.8v1.8
			C310.8,748.2,310.4,748.6,309.9,748.8z"/>
		<path class="st0" d="M165.6,798.9c0.8-0.5,1.7-0.8,2.7-0.8s2,0.3,3,1s1.9,1.5,2.7,2.5l4.8-5.7c-1.3-1.4-2.9-2.5-4.9-3.4
			c-1.9-0.9-3.9-1.3-5.8-1.3c-2.6,0-5,0.6-7,1.7c-2.1,1.1-3.7,2.7-4.9,4.7s-1.8,4.2-1.8,6.7s0.6,4.8,1.7,6.8s2.7,3.6,4.8,4.8
			c2,1.1,4.3,1.7,6.9,1.7c1.9,0,3.9-0.5,5.9-1.4s3.7-2.2,5.1-3.7l-4.8-5.1c-0.8,0.9-1.7,1.6-2.8,2.1c-1,0.5-2,0.8-2.9,0.8
			c-1,0-1.9-0.3-2.7-0.8s-1.4-1.3-1.9-2.2c-0.4-0.9-0.7-2-0.7-3.1c0-1.2,0.2-2.2,0.7-3.1C164.2,800.2,164.8,799.5,165.6,798.9z"/>
		<path class="st0" d="M198.7,797.9c-1.1-0.6-2.3-0.9-3.7-0.9c-1.3,0-2.4,0.3-3.4,0.8s-1.9,1.3-2.5,2.4v-9.8H181V817h8.1v-9.8
			c0-1,0.2-1.7,0.7-2.3s1.1-0.9,1.9-0.9c0.7,0,1.3,0.2,1.7,0.7s0.6,1.1,0.6,2V817h8.1v-12.6c0-1.5-0.3-2.8-0.9-3.9
			C200.6,799.4,199.7,798.5,198.7,797.9z"/>
		<rect x="205.5" y="797.3" class="st0" width="8.1" height="19.7"/>
		<path class="st0" d="M209.4,795.8c1.2,0,2.2-0.4,3-1.2s1.2-1.8,1.2-3s-0.4-2.2-1.2-3s-1.8-1.2-3-1.2s-2.2,0.4-3,1.2
			s-1.2,1.8-1.2,3s0.4,2.2,1.2,3C207.3,795.4,208.2,795.8,209.4,795.8z"/>
		<path class="st0" d="M235.3,797.9c-1.1-0.6-2.3-0.9-3.7-0.9c-1.3,0-2.4,0.3-3.4,0.8s-1.9,1.3-2.5,2.4v-2.8h-8.1V817h8.1v-9.8
			c0-1,0.2-1.7,0.7-2.3s1.1-0.9,1.9-0.9c0.7,0,1.3,0.2,1.7,0.7s0.6,1.1,0.6,2V817h8.1v-12.6c0-1.5-0.3-2.8-0.9-3.9
			C237.2,799.4,236.3,798.5,235.3,797.9z"/>
		<path class="st0" d="M256.8,798.4c-1.6-0.9-3.5-1.3-5.6-1.3s-3.9,0.4-5.5,1.3c-1.6,0.8-2.8,2-3.7,3.6c-0.9,1.5-1.3,3.3-1.3,5.4
			c0,2,0.4,3.8,1.3,5.3c0.9,1.5,2.1,2.7,3.7,3.5s3.5,1.2,5.7,1.2c1.9,0,3.6-0.3,5.1-0.9c1.5-0.6,2.8-1.5,3.8-2.7l-4.2-4.1
			c-1.2,1.2-2.6,1.8-4,1.8c-0.8,0-1.5-0.2-2-0.6c-0.6-0.4-1-1-1.2-1.7h12.8c0-0.2,0-0.6,0-1c0-2.2-0.4-4.1-1.3-5.8
			C259.6,800.5,258.4,799.2,256.8,798.4z M248.6,805.2c0.2-0.9,0.5-1.5,0.9-2.1c0.4-0.5,1-0.8,1.7-0.8s1.3,0.3,1.7,0.8
			s0.6,1.2,0.6,2L248.6,805.2L248.6,805.2z"/>
		<path class="st0" d="M271.3,802.5c0.2-0.1,0.5-0.2,0.8-0.2c1.5,0,3.7,0.7,6.7,2.2l2.7-5c-3-1.7-6-2.5-9.1-2.5
			c-1.7,0-3.2,0.3-4.6,0.8c-1.3,0.6-2.3,1.4-3,2.4s-1.1,2.2-1.1,3.6s0.4,2.5,1.1,3.3s1.6,1.5,2.6,1.9s2.2,0.8,3.6,1.2
			c0.9,0.2,1.6,0.5,2,0.6c0.4,0.2,0.6,0.4,0.6,0.7c0,0.2-0.1,0.3-0.3,0.4c-0.2,0.1-0.5,0.2-0.9,0.2c-2.2,0-4.6-0.8-7.3-2.4l-2.4,5
			c2.7,1.9,5.9,2.8,9.6,2.8c1.8,0,3.4-0.3,4.7-0.8s2.4-1.3,3.1-2.3s1.1-2.2,1.1-3.5s-0.4-2.4-1.1-3.3c-0.8-0.8-1.6-1.5-2.6-1.9
			s-2.2-0.8-3.6-1.2c-1-0.3-1.7-0.5-2.2-0.7c-0.4-0.2-0.6-0.4-0.6-0.7C271,802.7,271.1,802.6,271.3,802.5z"/>
		<path class="st0" d="M298.8,798.4c-1.6-0.9-3.5-1.3-5.6-1.3s-3.9,0.4-5.5,1.3c-1.6,0.8-2.8,2-3.7,3.6c-0.9,1.5-1.3,3.3-1.3,5.4
			c0,2,0.4,3.8,1.3,5.3s2.1,2.7,3.7,3.5s3.5,1.2,5.7,1.2c1.9,0,3.6-0.3,5.1-0.9s2.8-1.5,3.8-2.7l-4.2-4.1c-1.2,1.2-2.6,1.8-4,1.8
			c-0.8,0-1.5-0.2-2-0.6c-0.6-0.4-1-1-1.2-1.7h12.8c0-0.2,0-0.6,0-1c0-2.2-0.4-4.1-1.3-5.8C301.6,800.5,300.3,799.2,298.8,798.4z
			 M290.6,805.2c0.2-0.9,0.5-1.5,0.9-2.1c0.4-0.5,1-0.8,1.7-0.8s1.3,0.3,1.7,0.8c0.4,0.5,0.6,1.2,0.6,2L290.6,805.2L290.6,805.2z"/>
		<polygon class="st0" points="334.3,791.8 311.6,791.8 311.6,798.4 318.7,798.4 318.7,817 327.1,817 327.1,798.4 334.3,798.4 		"/>
		<path class="st0" d="M350.5,798.9c-1.6-1.3-3.8-1.9-6.7-1.9c-1.5,0-3,0.2-4.7,0.5s-3.3,0.8-5,1.4l1.8,5.4c1.1-0.4,2.2-0.7,3.2-0.9
			c1.1-0.2,2-0.3,2.8-0.3c1,0,1.7,0.2,2.2,0.6c0.5,0.4,0.8,0.9,0.8,1.6h-4.5c-2.5,0-4.4,0.6-5.7,1.6s-1.9,2.5-1.9,4.4
			s0.6,3.4,1.7,4.5c1.2,1.1,2.8,1.7,4.8,1.7c2.5,0,4.3-0.8,5.5-2.5v2.1h8v-12.7C352.9,802,352.1,800.2,350.5,798.9z M345,810.7
			c-0.3,0.5-0.7,0.9-1.2,1.1c-0.5,0.3-1,0.4-1.5,0.4c-0.6,0-1-0.1-1.3-0.5c-0.3-0.3-0.5-0.7-0.5-1.3c0-1.1,0.6-1.6,1.7-1.6h2.8
			V810.7z"/>
		<rect x="356.4" y="797.3" class="st0" width="8.1" height="19.7"/>
		<path class="st0" d="M360.3,795.8c1.2,0,2.2-0.4,3-1.2s1.2-1.8,1.2-3s-0.4-2.2-1.2-3c-0.8-0.8-1.8-1.2-3-1.2s-2.2,0.4-3,1.2
			s-1.2,1.8-1.2,3s0.4,2.2,1.2,3C358.1,795.4,359.1,795.8,360.3,795.8z"/>
		<path class="st0" d="M386.4,798.3c-1.4-0.8-3-1.3-4.8-1.3c-2,0-3.7,0.8-5,2.3v-2h-8.1V824h8.1v-9c0.6,0.7,1.4,1.3,2.3,1.7
			s1.9,0.6,2.9,0.6c1.8,0,3.3-0.4,4.7-1.2c1.3-0.8,2.4-2,3.1-3.5s1.1-3.3,1.1-5.3c0-2.1-0.4-3.9-1.1-5.4S387.8,799.1,386.4,798.3z
			 M381.8,809.8c-0.5,0.7-1.3,1-2.1,1c-0.9,0-1.6-0.3-2.1-1s-0.8-1.6-0.8-2.8s0.3-2.1,0.8-2.8s1.2-1,2.1-1s1.6,0.3,2.1,1
			s0.8,1.6,0.8,2.8C382.6,808.2,382.3,809.1,381.8,809.8z"/>
		<path class="st0" d="M407.9,798.4c-1.6-0.9-3.5-1.3-5.6-1.3s-3.9,0.4-5.5,1.3s-2.8,2-3.7,3.6c-0.9,1.5-1.3,3.3-1.3,5.4
			c0,2,0.4,3.8,1.3,5.3s2.1,2.7,3.7,3.5s3.5,1.2,5.7,1.2c1.9,0,3.6-0.3,5.1-0.9s2.8-1.5,3.8-2.7l-4.2-4.1c-1.2,1.2-2.6,1.8-4,1.8
			c-0.8,0-1.5-0.2-2-0.6c-0.6-0.4-1-1-1.2-1.7h12.8c0-0.2,0-0.6,0-1c0-2.2-0.4-4.1-1.3-5.8C410.7,800.5,409.5,799.2,407.9,798.4z
			 M399.8,805.2c0.2-0.9,0.5-1.5,0.9-2.1c0.4-0.5,1-0.8,1.7-0.8s1.3,0.3,1.7,0.8c0.4,0.5,0.6,1.2,0.6,2L399.8,805.2L399.8,805.2z"/>
		<path class="st0" d="M419.3,795.8c1.2,0,2.2-0.4,3-1.2s1.2-1.8,1.2-3s-0.4-2.2-1.2-3c-0.8-0.8-1.8-1.2-3-1.2s-2.2,0.4-3,1.2
			s-1.2,1.8-1.2,3s0.4,2.2,1.2,3C417.1,795.4,418.1,795.8,419.3,795.8z"/>
		<rect x="415.4" y="797.3" class="st0" width="8.1" height="19.7"/>
		<polygon class="st0" points="532.4,60 540,60 540,55.1 542.9,55.1 542.9,49.2 540,49.2 540,44.3 532.4,44.3 532.4,49.2 
			529.9,49.2 535.6,34.8 527.8,34.8 521.6,49.7 521.6,55.1 532.4,55.1 		"/>
		<polygon class="st0" points="554.5,60 562.1,60 562.1,55.1 565,55.1 565,49.2 562.1,49.2 562.1,44.3 554.5,44.3 554.5,49.2 
			552,49.2 557.7,34.8 549.9,34.8 543.8,49.7 543.8,55.1 554.5,55.1 		"/>
		<path class="st0" d="M571,60.3c1.1,0,2-0.3,2.7-1s1-1.6,1-2.7c0-1.1-0.3-2-1-2.6c-0.7-0.7-1.6-1-2.7-1c-1.1,0-2,0.3-2.6,1
			c-0.7,0.7-1,1.6-1,2.6c0,1.1,0.3,2,1,2.7C569.1,59.9,570,60.3,571,60.3z"/>
		<polygon class="st0" points="579.1,60 587.5,60 587.5,34.8 574.7,34.8 574.7,41.4 579.1,41.4 		"/>
		<path class="st0" d="M596.4,58.8c1.7,1,3.6,1.5,5.9,1.5c1.9,0,3.6-0.4,5-1.1c1.5-0.7,2.6-1.8,3.4-3.1s1.2-2.9,1.2-4.7
			c0-1.6-0.3-3.1-1-4.3s-1.6-2.2-2.8-2.9s-2.6-1-4.2-1c-2.2,0-3.9,0.7-5.1,2.1c0-1.6,0.4-2.7,1.2-3.5s2-1.2,3.6-1.2
			c1.9,0,3.6,0.6,4.9,1.7l3-5.5c-1.1-0.7-2.3-1.2-3.9-1.6c-1.5-0.4-3-0.6-4.6-0.6c-2.4,0-4.5,0.5-6.3,1.6s-3.2,2.6-4.2,4.6
			s-1.5,4.3-1.5,7c0,2.6,0.4,4.8,1.3,6.7C593.5,56.3,594.8,57.8,596.4,58.8z M600.2,49.6c0.4-0.4,1.1-0.7,1.9-0.7
			c0.8,0,1.4,0.2,1.8,0.6c0.4,0.4,0.6,1.1,0.6,1.9c0,1.7-0.8,2.6-2.5,2.6c-0.8,0-1.5-0.2-1.9-0.6c-0.4-0.4-0.6-1.1-0.6-1.9
			C599.5,50.7,599.8,50.1,600.2,49.6z"/>
		<polygon class="st0" points="532.4,123 540,123 540,118.1 542.9,118.1 542.9,112.2 540,112.2 540,107.3 532.4,107.3 532.4,112.2 
			529.9,112.2 535.6,97.8 527.8,97.8 521.6,112.7 521.6,118.1 532.4,118.1 		"/>
		<path class="st0" d="M559.5,107.9l-1.2-0.3l5.9-5.2v-4.7h-18.5v6h8.7l-4.9,4.6v4.3h4.7c1,0,1.8,0.2,2.3,0.6s0.8,1,0.8,1.7
			c0,1.5-1,2.2-3,2.2c-2.4,0-4.7-0.9-6.9-2.8l-3,5.6c1.3,1,2.9,1.8,4.8,2.4c1.9,0.6,3.8,0.9,5.8,0.9c2.1,0,4-0.4,5.5-1.1
			c1.6-0.7,2.8-1.7,3.7-3s1.3-2.7,1.3-4.4c0-1.8-0.5-3.4-1.6-4.6C562.8,109.1,561.3,108.3,559.5,107.9z"/>
		<path class="st0" d="M571,123.3c1.1,0,2-0.3,2.7-1s1-1.6,1-2.7s-0.3-2-1-2.6c-0.7-0.7-1.6-1-2.7-1c-1.1,0-2,0.3-2.6,1
			c-0.7,0.7-1,1.6-1,2.6c0,1.1,0.3,2,1,2.7C569,122.9,569.9,123.3,571,123.3z"/>
		<path class="st0" d="M577.4,103.7c-1,2-1.5,4.3-1.5,7c0,2.6,0.4,4.8,1.3,6.7c0.9,1.9,2.2,3.4,3.8,4.4c1.7,1,3.6,1.5,5.9,1.5
			c1.9,0,3.6-0.4,5-1.1c1.5-0.7,2.6-1.8,3.4-3.1c0.8-1.3,1.2-2.9,1.2-4.7c0-1.6-0.3-3.1-1-4.3c-0.7-1.3-1.6-2.2-2.8-2.9
			s-2.6-1-4.2-1c-2.2,0-3.9,0.7-5.1,2.1c0-1.6,0.4-2.7,1.2-3.5s2-1.2,3.6-1.2c1.9,0,3.6,0.6,4.9,1.7l3-5.5c-1.1-0.7-2.3-1.2-3.9-1.6
			c-1.5-0.4-3-0.6-4.6-0.6c-2.4,0-4.5,0.5-6.3,1.6C579.7,100.1,578.4,101.7,577.4,103.7z M584.8,112.6c0.4-0.4,1.1-0.7,1.9-0.7
			c0.8,0,1.4,0.2,1.8,0.6c0.4,0.4,0.6,1.1,0.6,1.9c0,1.7-0.8,2.6-2.5,2.6c-0.8,0-1.5-0.2-1.9-0.6s-0.6-1.1-0.6-1.9
			C584.2,113.7,584.4,113.1,584.8,112.6z"/>
		<path class="st0" d="M603.1,98.5c-1.5,0.7-2.6,1.7-3.4,3.1c-0.8,1.3-1.2,2.9-1.2,4.7c0,1.6,0.3,3.1,1,4.4s1.6,2.3,2.8,3
			s2.6,1,4.2,1c2.2,0,3.9-0.7,5.1-2.1c0,1.6-0.4,2.7-1.2,3.5s-2,1.2-3.6,1.2c-1.9,0-3.6-0.6-4.9-1.7l-3,5.5c1.1,0.7,2.4,1.2,3.9,1.6
			s3,0.6,4.5,0.6c2.4,0,4.5-0.5,6.3-1.6s3.2-2.6,4.2-4.7c1-2,1.5-4.4,1.5-7s-0.4-4.8-1.3-6.7c-0.9-1.9-2.2-3.4-3.8-4.4
			c-1.7-1-3.6-1.5-5.9-1.5C606.3,97.4,604.6,97.8,603.1,98.5z M610.3,104.4c0.4,0.4,0.6,1.1,0.6,1.9s-0.2,1.4-0.6,1.9
			s-1.1,0.7-1.9,0.7c-1.6,0-2.4-0.8-2.4-2.5s0.8-2.6,2.4-2.6C609.2,103.7,609.9,103.9,610.3,104.4z"/>
		<polygon class="st0" points="532.4,186 540,186 540,181.1 542.9,181.1 542.9,175.2 540,175.2 540,170.3 532.4,170.3 532.4,175.2 
			529.9,175.2 535.6,160.8 527.8,160.8 521.6,175.7 521.6,181.1 532.4,181.1 		"/>
		<path class="st0" d="M554.3,180.2c-2.4,0-4.7-0.9-6.9-2.8l-3,5.6c1.3,1,2.9,1.8,4.8,2.4c1.9,0.6,3.8,0.9,5.8,0.9
			c2.1,0,4-0.4,5.5-1.1c1.6-0.7,2.8-1.7,3.7-3s1.3-2.7,1.3-4.4c0-1.8-0.5-3.4-1.6-4.6c-1.1-1.2-2.5-2-4.3-2.4l-1.2-0.3l5.9-5.2v-4.7
			h-18.5v6h8.7l-4.9,4.6v4.3h4.7c1,0,1.8,0.2,2.3,0.6c0.5,0.4,0.8,1,0.8,1.7C557.3,179.5,556.3,180.2,554.3,180.2z"/>
		<path class="st0" d="M571,186.3c1.1,0,2-0.3,2.7-1s1-1.6,1-2.7c0-1.1-0.3-2-1-2.6c-0.7-0.7-1.6-1-2.7-1c-1.1,0-2,0.3-2.6,1
			c-0.7,0.7-1,1.6-1,2.6c0,1.1,0.3,2,1,2.7C569,185.9,569.9,186.3,571,186.3z"/>
		<path class="st0" d="M585.9,180.2c-2.4,0-4.7-0.9-6.9-2.8l-3,5.6c1.3,1,2.9,1.8,4.8,2.4c1.9,0.6,3.8,0.9,5.8,0.9
			c2.1,0,4-0.4,5.5-1.1c1.6-0.7,2.8-1.7,3.7-3s1.3-2.7,1.3-4.4c0-1.8-0.5-3.4-1.6-4.6c-1.1-1.2-2.5-2-4.3-2.4l-1.2-0.3l5.9-5.2v-4.7
			h-18.5v6h8.7l-4.9,4.6v4.3h4.7c1,0,1.8,0.2,2.3,0.6c0.5,0.4,0.8,1,0.8,1.7C589,179.5,588,180.2,585.9,180.2z"/>
		<path class="st0" d="M617.4,171.3c0.9-1.4,1.3-2.8,1.3-4.1s-0.4-2.5-1.2-3.5s-1.9-1.8-3.3-2.4c-1.4-0.6-3-0.9-4.7-0.9
			c-3.7,0-7.4,1.3-11.3,3.9l3.1,6c1.2-1,2.5-1.8,3.7-2.4c1.2-0.6,2.3-0.9,3.2-0.9c0.6,0,1,0.1,1.3,0.3s0.4,0.6,0.4,1
			s-0.2,0.9-0.5,1.5c-0.4,0.6-0.8,1.2-1.4,1.7l-8.8,9.1v5.3H619v-6.4h-9.2l3.9-3.9C615.3,174.2,616.5,172.7,617.4,171.3z"/>
		<polygon class="st0" points="532.4,249 540,249 540,244.1 542.9,244.1 542.9,238.2 540,238.2 540,233.3 532.4,233.3 532.4,238.2 
			529.9,238.2 535.6,223.8 527.8,223.8 521.6,238.7 521.6,244.1 532.4,244.1 		"/>
		<path class="st0" d="M554.3,234.6l-8.8,9.1v5.3h19.8v-6.4h-9.2l3.9-3.9c1.6-1.6,2.8-3,3.7-4.4s1.3-2.8,1.3-4.1s-0.4-2.5-1.2-3.5
			s-1.9-1.8-3.3-2.4c-1.4-0.6-3-0.9-4.7-0.9c-3.7,0-7.4,1.3-11.3,3.9l3.1,6c1.2-1,2.5-1.8,3.7-2.4c1.2-0.6,2.3-0.9,3.2-0.9
			c0.6,0,1,0.1,1.3,0.3s0.4,0.6,0.4,1s-0.2,0.9-0.5,1.5C555.3,233.5,554.8,234.1,554.3,234.6z"/>
		<path class="st0" d="M571.2,249.3c1.1,0,2-0.3,2.7-1s1-1.6,1-2.7c0-1.1-0.3-2-1-2.6c-0.7-0.7-1.6-1-2.7-1c-1.1,0-2,0.3-2.6,1
			c-0.7,0.7-1,1.6-1,2.6c0,1.1,0.3,2,1,2.7C569.2,248.9,570.1,249.3,571.2,249.3z"/>
		<path class="st0" d="M586.2,234.6l-8.8,9.1v5.3h19.8v-6.4H588l3.9-3.9c1.6-1.6,2.8-3,3.7-4.4s1.3-2.8,1.3-4.1s-0.4-2.5-1.2-3.5
			s-1.9-1.8-3.3-2.4c-1.4-0.6-3-0.9-4.7-0.9c-3.7,0-7.4,1.3-11.3,3.9l3.1,6c1.2-1,2.5-1.8,3.7-2.4c1.2-0.6,2.3-0.9,3.2-0.9
			c0.6,0,1,0.1,1.3,0.3s0.5,0.6,0.5,1s-0.2,0.9-0.5,1.5S586.7,234.1,586.2,234.6z"/>
		<path class="st0" d="M610.8,229.5c1.9,0,3.6,0.6,4.9,1.7l3-5.5c-1.1-0.7-2.3-1.2-3.9-1.6c-1.5-0.4-3-0.6-4.6-0.6
			c-2.4,0-4.5,0.5-6.3,1.6s-3.2,2.6-4.2,4.6s-1.5,4.3-1.5,7c0,2.6,0.4,4.8,1.3,6.7c0.9,1.9,2.2,3.4,3.8,4.4c1.7,1,3.6,1.5,5.9,1.5
			c1.9,0,3.6-0.4,5-1.1c1.5-0.7,2.6-1.8,3.4-3.1s1.2-2.9,1.2-4.7c0-1.6-0.3-3.1-1-4.3s-1.6-2.2-2.8-2.9s-2.6-1-4.2-1
			c-2.2,0-3.9,0.7-5.1,2.1c0-1.6,0.4-2.7,1.2-3.5S609.2,229.5,610.8,229.5z M607.4,238.6c0.4-0.4,1.1-0.7,1.9-0.7
			c0.8,0,1.4,0.2,1.8,0.6c0.4,0.4,0.6,1.1,0.6,1.9c0,1.7-0.8,2.6-2.5,2.6c-0.8,0-1.5-0.2-1.9-0.6c-0.4-0.4-0.6-1.1-0.6-1.9
			C606.7,239.7,606.9,239.1,607.4,238.6z"/>
		<polygon class="st0" points="532.4,312 540,312 540,307.1 542.9,307.1 542.9,301.2 540,301.2 540,296.3 532.4,296.3 532.4,301.2 
			529.9,301.2 535.6,286.8 527.8,286.8 521.6,301.7 521.6,307.1 532.4,307.1 		"/>
		<polygon class="st0" points="547.5,312 555.8,312 555.8,286.8 543.1,286.8 543.1,293.4 547.5,293.4 		"/>
		<path class="st0" d="M561.6,305.9c-0.7,0.7-1,1.6-1,2.6c0,1.1,0.3,2,1,2.7s1.6,1,2.6,1c1.1,0,2-0.3,2.7-1s1-1.6,1-2.7
			s-0.3-2-1-2.6c-0.7-0.7-1.6-1-2.7-1C563.1,304.9,562.3,305.2,561.6,305.9z"/>
		<polygon class="st0" points="572.3,312 580.7,312 580.7,286.8 567.9,286.8 567.9,293.4 572.3,293.4 		"/>
		<path class="st0" d="M603.7,306.1c1-2,1.5-4.4,1.5-7s-0.4-4.8-1.3-6.7c-0.9-1.9-2.2-3.4-3.8-4.4s-3.6-1.5-5.9-1.5
			c-1.9,0-3.6,0.4-5,1.1c-1.5,0.7-2.6,1.7-3.4,3.1c-0.8,1.3-1.2,2.9-1.2,4.7c0,1.6,0.3,3.1,1,4.4s1.6,2.3,2.8,3s2.6,1,4.2,1
			c2.2,0,3.9-0.7,5.1-2.1c0,1.6-0.4,2.7-1.2,3.5s-2,1.2-3.6,1.2c-1.9,0-3.6-0.6-4.9-1.7l-3,5.5c1.1,0.7,2.4,1.2,3.9,1.6
			s3,0.6,4.5,0.6c2.4,0,4.5-0.5,6.3-1.6C601.3,309.6,602.7,308.1,603.7,306.1z M596.3,297.1c-0.4,0.4-1.1,0.7-1.9,0.7
			c-1.6,0-2.4-0.8-2.4-2.5s0.8-2.6,2.4-2.6c0.8,0,1.5,0.2,1.9,0.6s0.6,1.1,0.6,1.9C596.9,296,596.7,296.7,596.3,297.1z"/>
		<polygon class="st0" points="532.4,375 540,375 540,370.1 542.9,370.1 542.9,364.2 540,364.2 540,359.3 532.4,359.3 532.4,364.2 
			529.9,364.2 535.6,349.8 527.8,349.8 521.6,364.7 521.6,370.1 532.4,370.1 		"/>
		<path class="st0" d="M565.3,352.8c-2-2.2-4.8-3.3-8.6-3.3c-3.7,0-6.6,1.1-8.6,3.3s-3,5.4-3,9.5s1,7.3,3,9.6c2,2.2,4.9,3.3,8.6,3.3
			c3.7,0,6.6-1.1,8.6-3.3c2-2.2,3-5.4,3-9.5S567.3,355.1,565.3,352.8z M559.5,366.4c-0.2,1-0.5,1.7-0.9,2.1s-1,0.6-1.8,0.6
			s-1.4-0.2-1.8-0.6c-0.4-0.4-0.7-1.1-0.9-2.1s-0.3-2.3-0.3-4.1c0-1.7,0.1-3.1,0.3-4c0.2-1,0.5-1.7,0.9-2.1s1-0.6,1.8-0.6
			s1.4,0.2,1.8,0.6c0.4,0.4,0.7,1.1,0.9,2.1s0.3,2.3,0.3,4C559.8,364.1,559.7,365.4,559.5,366.4z"/>
		<path class="st0" d="M577.8,371.6c0-1.1-0.3-2-1-2.6c-0.7-0.7-1.6-1-2.7-1c-1.1,0-2,0.3-2.6,1c-0.7,0.7-1,1.6-1,2.6
			c0,1.1,0.3,2,1,2.7s1.6,1,2.6,1c1.1,0,2-0.3,2.7-1S577.8,372.7,577.8,371.6z"/>
		<path class="st0" d="M598.9,364.2c-0.7-1.2-1.6-2-2.8-2.7c0.8-0.6,1.4-1.3,1.8-2.2c0.5-0.9,0.7-1.8,0.7-2.8c0-1.4-0.4-2.7-1.1-3.7
			c-0.8-1.1-1.8-1.9-3.2-2.5s-3-0.9-4.9-0.9c-1.8,0-3.4,0.3-4.8,0.8c-1.4,0.6-2.5,1.4-3.2,2.4c-0.8,1-1.1,2.2-1.1,3.6
			c0,1,0.3,1.9,0.8,2.9s1.2,1.8,2.1,2.4c-1.3,0.6-2.3,1.5-3.1,2.7s-1.2,2.5-1.2,3.8c0,1.5,0.4,2.7,1.3,3.9c0.9,1.1,2.1,2,3.7,2.6
			c1.6,0.6,3.4,0.9,5.5,0.9s4-0.3,5.6-0.9s2.8-1.5,3.7-2.6s1.3-2.5,1.3-3.9C599.9,366.6,599.6,365.3,598.9,364.2z M589.4,354.8
			c1.6,0,2.3,0.7,2.3,2.1c0,1.3-0.8,1.9-2.3,1.9s-2.3-0.6-2.3-1.9C587.1,355.5,587.8,354.8,589.4,354.8z M591.4,368.8
			c-0.5,0.4-1.2,0.6-2.1,0.6c-0.9,0-1.6-0.2-2-0.6c-0.5-0.4-0.7-0.9-0.7-1.7c0-1.6,0.9-2.4,2.8-2.4c0.9,0,1.6,0.2,2.1,0.6
			s0.7,1,0.7,1.8C592.2,367.9,591.9,368.5,591.4,368.8z"/>
		<path class="st0" d="M622,356.2v-6.4h-17.7V365h7.1c1.8,0,2.7,0.7,2.7,2.1c0,0.7-0.2,1.3-0.7,1.6c-0.5,0.4-1.1,0.6-2,0.6
			c-2,0-4.2-1-6.5-2.9l-3,5.7c1.4,1,3.1,1.8,5,2.4s3.7,0.9,5.5,0.9c2.2,0,4-0.4,5.7-1.1c1.6-0.7,2.9-1.8,3.7-3.1
			c0.9-1.4,1.3-2.9,1.3-4.7c0-1.5-0.4-2.8-1.2-4s-2-2-3.5-2.7c-1.5-0.6-3.3-0.9-5.3-0.9H612v-2.7H622z"/>
		<path class="st0" d="M537.4,422.9l-1.2-0.3l5.9-5.2v-4.7h-18.5v6h8.7l-4.9,4.6v4.3h4.7c1,0,1.8,0.2,2.3,0.6s0.8,1,0.8,1.7
			c0,1.5-1,2.2-3,2.2c-2.4,0-4.7-0.9-6.9-2.8l-3,5.6c1.3,1,2.9,1.8,4.8,2.4c1.9,0.6,3.8,0.9,5.8,0.9c2.1,0,4-0.4,5.5-1.1
			c1.6-0.7,2.8-1.7,3.7-3s1.3-2.7,1.3-4.4c0-1.8-0.5-3.4-1.6-4.6C540.6,424.1,539.2,423.3,537.4,422.9z"/>
		<path class="st0" d="M545.2,427.2c-0.8,1.2-1.2,2.5-1.2,3.8c0,1.5,0.4,2.7,1.3,3.9c0.9,1.1,2.1,2,3.7,2.6c1.6,0.6,3.4,0.9,5.5,0.9
			s4-0.3,5.6-0.9s2.8-1.5,3.7-2.6s1.3-2.5,1.3-3.9c0-1.3-0.3-2.6-1-3.7s-1.6-2-2.8-2.7c0.8-0.6,1.4-1.3,1.8-2.2
			c0.5-0.9,0.7-1.8,0.7-2.8c0-1.4-0.4-2.7-1.1-3.7c-0.8-1.1-1.8-1.9-3.2-2.5s-3-0.9-4.9-0.9c-1.8,0-3.4,0.3-4.8,0.8
			c-1.4,0.6-2.5,1.4-3.2,2.4c-0.8,1-1.1,2.2-1.1,3.6c0,1,0.3,1.9,0.8,2.9s1.2,1.8,2.1,2.4C547,425.1,546,426,545.2,427.2z
			 M554.6,417.8c1.6,0,2.3,0.7,2.3,2.1c0,1.3-0.8,1.9-2.3,1.9s-2.3-0.6-2.3-1.9C552.3,418.5,553,417.8,554.6,417.8z M554.6,427.8
			c0.9,0,1.6,0.2,2.1,0.6s0.7,1,0.7,1.8c0,0.7-0.2,1.3-0.7,1.7c-0.5,0.4-1.2,0.6-2.1,0.6c-0.9,0-1.6-0.2-2-0.6
			c-0.5-0.4-0.7-0.9-0.7-1.7C551.8,428.6,552.8,427.8,554.6,427.8z"/>
		<path class="st0" d="M574.2,431.9c-0.7-0.7-1.6-1-2.7-1c-1.1,0-2,0.3-2.6,1c-0.7,0.7-1,1.6-1,2.6c0,1.1,0.3,2,1,2.7s1.6,1,2.6,1
			c1.1,0,2-0.3,2.7-1s1-1.6,1-2.7C575.2,433.5,574.9,432.6,574.2,431.9z"/>
		<path class="st0" d="M595.3,422.3c0.5-0.9,0.7-1.8,0.7-2.8c0-1.4-0.4-2.7-1.1-3.7c-0.8-1.1-1.8-1.9-3.2-2.5s-3-0.9-4.9-0.9
			c-1.8,0-3.4,0.3-4.8,0.8c-1.4,0.6-2.5,1.4-3.2,2.4c-0.8,1-1.1,2.2-1.1,3.6c0,1,0.3,1.9,0.8,2.9s1.2,1.8,2.1,2.4
			c-1.3,0.6-2.3,1.5-3.1,2.7s-1.2,2.5-1.2,3.8c0,1.5,0.4,2.7,1.3,3.9c0.9,1.1,2.1,2,3.7,2.6c1.6,0.6,3.4,0.9,5.5,0.9s4-0.3,5.6-0.9
			s2.8-1.5,3.7-2.6s1.3-2.5,1.3-3.9c0-1.3-0.3-2.6-1-3.7c-0.7-1.2-1.6-2-2.8-2.7C594.3,423.9,594.9,423.2,595.3,422.3z M586.8,417.8
			c1.6,0,2.3,0.7,2.3,2.1c0,1.3-0.8,1.9-2.3,1.9s-2.3-0.6-2.3-1.9C584.5,418.5,585.2,417.8,586.8,417.8z M588.9,431.8
			c-0.5,0.4-1.2,0.6-2.1,0.6c-0.9,0-1.6-0.2-2-0.6c-0.5-0.4-0.7-0.9-0.7-1.7c0-1.6,0.9-2.4,2.8-2.4c0.9,0,1.6,0.2,2.1,0.6
			s0.7,1,0.7,1.8C589.6,430.9,589.3,431.5,588.9,431.8z"/>
		<path class="st0" d="M611.6,412.5c-3.7,0-6.6,1.1-8.6,3.3c-2,2.2-3,5.4-3,9.5s1,7.3,3,9.6c2,2.2,4.9,3.3,8.6,3.3
			c3.7,0,6.6-1.1,8.6-3.3c2-2.2,3-5.4,3-9.5s-1-7.3-3-9.5C618.1,413.6,615.3,412.5,611.6,412.5z M614.3,429.4
			c-0.2,1-0.5,1.7-0.9,2.1s-1,0.6-1.8,0.6s-1.4-0.2-1.8-0.6c-0.4-0.4-0.7-1.1-0.9-2.1s-0.3-2.3-0.3-4.1c0-1.7,0.1-3.1,0.3-4
			c0.2-1,0.5-1.7,0.9-2.1s1-0.6,1.8-0.6s1.4,0.2,1.8,0.6s0.7,1.1,0.9,2.1s0.3,2.3,0.3,4C614.6,427.1,614.5,428.4,614.3,429.4z"/>
		<path class="st0" d="M537.4,485.9l-1.2-0.3l5.9-5.2v-4.7h-18.5v6h8.7l-4.9,4.6v4.3h4.7c1,0,1.8,0.2,2.3,0.6s0.8,1,0.8,1.7
			c0,1.5-1,2.2-3,2.2c-2.4,0-4.7-0.9-6.9-2.8l-3,5.6c1.3,1,2.9,1.8,4.8,2.4c1.9,0.6,3.8,0.9,5.8,0.9c2.1,0,4-0.4,5.5-1.1
			c1.6-0.7,2.8-1.7,3.7-3s1.3-2.7,1.3-4.4c0-1.8-0.5-3.4-1.6-4.6C540.6,487.1,539.2,486.3,537.4,485.9z"/>
		<path class="st0" d="M545.3,497.9c0.9,1.1,2.1,2,3.7,2.6c1.6,0.6,3.4,0.9,5.5,0.9s4-0.3,5.6-0.9s2.8-1.5,3.7-2.6s1.3-2.5,1.3-3.9
			c0-1.3-0.3-2.6-1-3.7s-1.6-2-2.8-2.7c0.8-0.6,1.4-1.3,1.8-2.2c0.5-0.9,0.7-1.8,0.7-2.8c0-1.4-0.4-2.7-1.1-3.7
			c-0.8-1.1-1.8-1.9-3.2-2.5s-3-0.9-4.9-0.9c-1.8,0-3.4,0.3-4.8,0.8c-1.4,0.6-2.5,1.4-3.2,2.4c-0.8,1-1.1,2.2-1.1,3.6
			c0,1,0.3,1.9,0.8,2.9s1.2,1.8,2.1,2.4c-1.3,0.6-2.3,1.5-3.1,2.7s-1.2,2.5-1.2,3.8C544,495.5,544.5,496.8,545.3,497.9z
			 M554.6,480.8c1.6,0,2.3,0.7,2.3,2.1c0,1.3-0.8,1.9-2.3,1.9s-2.3-0.6-2.3-1.9C552.3,481.5,553,480.8,554.6,480.8z M554.6,490.8
			c0.9,0,1.6,0.2,2.1,0.6s0.7,1,0.7,1.8c0,0.7-0.2,1.3-0.7,1.7c-0.5,0.4-1.2,0.6-2.1,0.6c-0.9,0-1.6-0.2-2-0.6
			c-0.5-0.4-0.7-0.9-0.7-1.7C551.8,491.6,552.8,490.8,554.6,490.8z"/>
		<path class="st0" d="M571.5,493.9c-1.1,0-2,0.3-2.6,1c-0.7,0.7-1,1.6-1,2.6c0,1.1,0.3,2,1,2.7s1.6,1,2.6,1c1.1,0,2-0.3,2.7-1
			s1-1.6,1-2.7s-0.3-2-1-2.6C573.5,494.2,572.6,493.9,571.5,493.9z"/>
		<path class="st0" d="M596.8,488.4c-0.8-1.2-2-2-3.5-2.7c-1.5-0.6-3.3-0.9-5.3-0.9h-1.2v-2.7h10v-6.4h-17.7v15.2h7.1
			c1.8,0,2.7,0.7,2.7,2.1c0,0.7-0.2,1.3-0.7,1.6c-0.5,0.4-1.1,0.6-2,0.6c-2,0-4.2-1-6.5-2.9l-3,5.7c1.4,1,3.1,1.8,5,2.4
			s3.7,0.9,5.5,0.9c2.2,0,4.1-0.4,5.7-1.1c1.6-0.7,2.9-1.8,3.7-3.1c0.9-1.4,1.3-2.9,1.3-4.7C598,490.9,597.6,489.6,596.8,488.4z"/>
		<path class="st0" d="M614.4,485.9l-1.2-0.3l5.9-5.2v-4.7h-18.5v6h8.7l-4.9,4.6v4.3h4.7c1,0,1.8,0.2,2.3,0.6s0.8,1,0.8,1.7
			c0,1.5-1,2.2-3,2.2c-2.4,0-4.7-0.9-6.9-2.8l-3,5.6c1.3,1,2.9,1.8,4.8,2.4c1.9,0.6,3.8,0.9,5.8,0.9c2.1,0,4-0.4,5.5-1.1
			c1.6-0.7,2.8-1.7,3.7-3s1.3-2.7,1.3-4.4c0-1.8-0.5-3.4-1.6-4.6C617.6,487.1,616.2,486.3,614.4,485.9z"/>
		<path class="st0" d="M537.4,548.9l-1.2-0.3l5.9-5.2v-4.7h-18.5v6h8.7l-4.9,4.6v4.3h4.7c1,0,1.8,0.2,2.3,0.6c0.5,0.4,0.8,1,0.8,1.7
			c0,1.5-1,2.2-3,2.2c-2.4,0-4.7-0.9-6.9-2.8l-3,5.6c1.3,1,2.9,1.8,4.8,2.4c1.9,0.6,3.8,0.9,5.8,0.9c2.1,0,4-0.4,5.5-1.1
			c1.6-0.7,2.8-1.7,3.7-3s1.3-2.7,1.3-4.4c0-1.8-0.5-3.4-1.6-4.6C540.6,550.1,539.2,549.3,537.4,548.9z"/>
		<path class="st0" d="M549,563.4c1.6,0.6,3.4,0.9,5.5,0.9s4-0.3,5.6-0.9c1.6-0.6,2.8-1.5,3.7-2.6s1.3-2.5,1.3-3.9
			c0-1.3-0.3-2.6-1-3.7s-1.6-2-2.8-2.7c0.8-0.6,1.4-1.3,1.8-2.2c0.5-0.9,0.7-1.8,0.7-2.8c0-1.4-0.4-2.7-1.1-3.7
			c-0.8-1.1-1.8-1.9-3.2-2.5s-3-0.9-4.9-0.9c-1.8,0-3.4,0.3-4.8,0.8c-1.4,0.6-2.5,1.4-3.2,2.4c-0.8,1-1.1,2.2-1.1,3.6
			c0,1,0.3,1.9,0.8,2.9s1.2,1.8,2.1,2.4c-1.3,0.6-2.3,1.5-3.1,2.7s-1.2,2.5-1.2,3.8c0,1.5,0.4,2.7,1.3,3.9
			C546.2,562,547.5,562.8,549,563.4z M554.6,543.8c1.6,0,2.3,0.7,2.3,2.1c0,1.3-0.8,1.9-2.3,1.9s-2.3-0.6-2.3-1.9
			C552.3,544.5,553,543.8,554.6,543.8z M554.6,553.8c0.9,0,1.6,0.2,2.1,0.6c0.5,0.4,0.7,1,0.7,1.8c0,0.7-0.2,1.3-0.7,1.7
			s-1.2,0.6-2.1,0.6c-0.9,0-1.6-0.2-2-0.6c-0.5-0.4-0.7-0.9-0.7-1.7C551.8,554.6,552.8,553.8,554.6,553.8z"/>
		<path class="st0" d="M571.5,564.3c1.1,0,2-0.3,2.7-1s1-1.6,1-2.7c0-1.1-0.3-2-1-2.6c-0.7-0.7-1.6-1-2.7-1c-1.1,0-2,0.3-2.6,1
			c-0.7,0.7-1,1.6-1,2.6c0,1.1,0.3,2,1,2.7C569.5,563.9,570.4,564.3,571.5,564.3z"/>
		<path class="st0" d="M596.8,545.2v-6.4h-17.7V554h7.1c1.8,0,2.7,0.7,2.7,2.1c0,0.7-0.2,1.3-0.7,1.6c-0.5,0.4-1.1,0.6-2,0.6
			c-2,0-4.2-1-6.5-2.9l-3,5.7c1.4,1,3.1,1.8,5,2.4s3.7,0.9,5.5,0.9c2.2,0,4.1-0.4,5.7-1.1c1.6-0.7,2.9-1.8,3.7-3.1
			c0.9-1.4,1.3-2.9,1.3-4.7c0-1.5-0.4-2.8-1.2-4s-2-2-3.5-2.7c-1.5-0.6-3.3-0.9-5.3-0.9h-1.2v-2.7L596.8,545.2L596.8,545.2z"/>
		<polygon class="st0" points="597.9,545.4 602.3,545.4 602.3,564 610.7,564 610.7,538.8 597.9,538.8 		"/>
		<path class="st0" d="M537.4,611.9l-1.2-0.3l5.9-5.2v-4.7h-18.5v6h8.7l-4.9,4.6v4.3h4.7c1,0,1.8,0.2,2.3,0.6c0.5,0.4,0.8,1,0.8,1.7
			c0,1.5-1,2.2-3,2.2c-2.4,0-4.7-0.9-6.9-2.8l-3,5.6c1.3,1,2.9,1.8,4.8,2.4c1.9,0.6,3.8,0.9,5.8,0.9c2.1,0,4-0.4,5.5-1.1
			c1.6-0.7,2.8-1.7,3.7-3s1.3-2.7,1.3-4.4c0-1.8-0.5-3.4-1.6-4.6C540.6,613.1,539.2,612.3,537.4,611.9z"/>
		<polygon class="st0" points="556.8,627 565.5,607.3 565.5,601.8 544.7,601.8 544.7,611.7 552,611.7 552,608.2 556.3,608.2 
			548,627 		"/>
		<path class="st0" d="M571.6,626.3c0.7-0.7,1-1.6,1-2.7c0-1.1-0.3-2-1-2.6c-0.7-0.7-1.6-1-2.7-1c-1.1,0-2,0.3-2.6,1
			c-0.7,0.7-1,1.6-1,2.6c0,1.1,0.3,2,1,2.7s1.6,1,2.6,1C570,627.3,570.9,626.9,571.6,626.3z"/>
		<path class="st0" d="M582.6,627.4c2.4,0,4.5-0.5,6.3-1.6s3.2-2.6,4.2-4.7c1-2,1.5-4.4,1.5-7s-0.4-4.8-1.3-6.7
			c-0.9-1.9-2.2-3.4-3.8-4.4s-3.6-1.5-5.9-1.5c-1.9,0-3.6,0.4-5,1.1c-1.5,0.7-2.6,1.7-3.4,3.1c-0.8,1.3-1.2,2.9-1.2,4.7
			c0,1.6,0.3,3.1,1,4.4c0.7,1.3,1.6,2.3,2.8,3s2.6,1,4.2,1c2.2,0,3.9-0.7,5.1-2.1c0,1.6-0.4,2.7-1.2,3.5s-2,1.2-3.6,1.2
			c-1.9,0-3.6-0.6-4.9-1.7l-3,5.5c1.1,0.7,2.4,1.2,3.9,1.6C579.6,627.2,581.1,627.4,582.6,627.4z M585.6,612.1
			c-0.4,0.4-1.1,0.7-1.9,0.7c-1.6,0-2.4-0.8-2.4-2.5s0.8-2.6,2.4-2.6c0.8,0,1.5,0.2,1.9,0.6c0.4,0.4,0.6,1.1,0.6,1.9
			C586.3,611,586.1,611.7,585.6,612.1z"/>
		<polygon class="st0" points="606.7,611.3 606.7,616.2 604.2,616.2 609.9,601.8 602,601.8 595.9,616.7 595.9,622.1 606.7,622.1 
			606.7,627 614.3,627 614.3,622.1 617.1,622.1 617.1,616.2 614.3,616.2 614.3,611.3 		"/>
		<path class="st0" d="M537.4,674.9l-1.2-0.3l5.9-5.2v-4.7h-18.5v6h8.7l-4.9,4.6v4.3h4.7c1,0,1.8,0.2,2.3,0.6c0.5,0.4,0.8,1,0.8,1.7
			c0,1.5-1,2.2-3,2.2c-2.4,0-4.7-0.9-6.9-2.8l-3,5.6c1.3,1,2.9,1.8,4.8,2.4c1.9,0.6,3.8,0.9,5.8,0.9c2.1,0,4-0.4,5.5-1.1
			c1.6-0.7,2.8-1.7,3.7-3s1.3-2.7,1.3-4.4c0-1.8-0.5-3.4-1.6-4.6C540.6,676.1,539.2,675.3,537.4,674.9z"/>
		<path class="st0" d="M549.4,688.8c1.7,1,3.6,1.5,5.9,1.5c1.9,0,3.6-0.4,5-1.1c1.5-0.7,2.6-1.8,3.4-3.1c0.8-1.3,1.2-2.9,1.2-4.7
			c0-1.6-0.3-3.1-1-4.3c-0.7-1.3-1.6-2.2-2.8-2.9s-2.6-1-4.2-1c-2.2,0-3.9,0.7-5.1,2.1c0-1.6,0.4-2.7,1.2-3.5s2-1.2,3.6-1.2
			c1.9,0,3.6,0.6,4.9,1.7l3-5.5c-1.1-0.7-2.3-1.2-3.9-1.6c-1.5-0.4-3-0.6-4.6-0.6c-2.4,0-4.5,0.5-6.3,1.6s-3.2,2.6-4.2,4.6
			s-1.5,4.3-1.5,7c0,2.6,0.4,4.8,1.3,6.7C546.4,686.3,547.7,687.8,549.4,688.8z M553.1,679.6c0.4-0.4,1.1-0.7,1.9-0.7
			c0.8,0,1.4,0.2,1.8,0.6c0.4,0.4,0.6,1.1,0.6,1.9c0,1.7-0.8,2.6-2.5,2.6c-0.8,0-1.5-0.2-1.9-0.6c-0.4-0.4-0.6-1.1-0.6-1.9
			C552.5,680.7,552.7,680.1,553.1,679.6z"/>
		<path class="st0" d="M571.4,682.9c-1.1,0-2,0.3-2.6,1c-0.7,0.7-1,1.6-1,2.6c0,1.1,0.3,2,1,2.7s1.6,1,2.6,1c1.1,0,2-0.3,2.7-1
			s1-1.6,1-2.7c0-1.1-0.3-2-1-2.6C573.4,683.2,572.5,682.9,571.4,682.9z"/>
		<path class="st0" d="M586.4,675.6l-8.8,9.1v5.3h19.8v-6.4h-9.2l3.9-3.9c1.6-1.6,2.8-3,3.7-4.4s1.3-2.8,1.3-4.1s-0.4-2.5-1.2-3.5
			s-1.9-1.8-3.3-2.4c-1.4-0.6-3-0.9-4.7-0.9c-3.7,0-7.4,1.3-11.3,3.9l3.1,6c1.2-1,2.5-1.8,3.7-2.4c1.2-0.6,2.3-0.9,3.2-0.9
			c0.6,0,1,0.1,1.3,0.3s0.4,0.6,0.4,1s-0.2,0.9-0.5,1.5C587.4,674.5,586.9,675.1,586.4,675.6z"/>
		<path class="st0" d="M611,670.5c1.9,0,3.6,0.6,4.9,1.7l3-5.5c-1.1-0.7-2.3-1.2-3.9-1.6c-1.5-0.4-3-0.6-4.6-0.6
			c-2.4,0-4.5,0.5-6.3,1.6s-3.2,2.6-4.2,4.6s-1.5,4.3-1.5,7c0,2.6,0.4,4.8,1.3,6.7c0.9,1.9,2.2,3.4,3.8,4.4c1.7,1,3.6,1.5,5.9,1.5
			c1.9,0,3.6-0.4,5-1.1c1.5-0.7,2.6-1.8,3.4-3.1c0.8-1.3,1.2-2.9,1.2-4.7c0-1.6-0.3-3.1-1-4.3c-0.7-1.3-1.6-2.2-2.8-2.9
			s-2.6-1-4.2-1c-2.2,0-3.9,0.7-5.1,2.1c0-1.6,0.4-2.7,1.2-3.5C608.2,670.9,609.4,670.5,611,670.5z M607.6,679.6
			c0.4-0.4,1.1-0.7,1.9-0.7c0.8,0,1.4,0.2,1.8,0.6c0.4,0.4,0.6,1.1,0.6,1.9c0,1.7-0.8,2.6-2.5,2.6c-0.8,0-1.5-0.2-1.9-0.6
			c-0.4-0.4-0.6-1.1-0.6-1.9C606.9,680.7,607.1,680.1,607.6,679.6z"/>
		<path class="st0" d="M537.4,737.9l-1.2-0.3l5.9-5.2v-4.7h-18.5v6h8.7l-4.9,4.6v4.3h4.7c1,0,1.8,0.2,2.3,0.6c0.5,0.4,0.8,1,0.8,1.7
			c0,1.5-1,2.2-3,2.2c-2.4,0-4.7-0.9-6.9-2.8l-3,5.6c1.3,1,2.9,1.8,4.8,2.4c1.9,0.6,3.8,0.9,5.8,0.9c2.1,0,4-0.4,5.5-1.1
			c1.6-0.7,2.8-1.7,3.7-3s1.3-2.7,1.3-4.4c0-1.8-0.5-3.4-1.6-4.6C540.6,739.1,539.2,738.3,537.4,737.9z"/>
		<path class="st0" d="M559.5,737.9l-1.2-0.3l5.9-5.2v-4.7h-18.5v6h8.7l-4.9,4.6v4.3h4.7c1,0,1.8,0.2,2.3,0.6c0.5,0.4,0.8,1,0.8,1.7
			c0,1.5-1,2.2-3,2.2c-2.4,0-4.7-0.9-6.9-2.8l-3,5.6c1.3,1,2.9,1.8,4.8,2.4c1.9,0.6,3.8,0.9,5.8,0.9c2.1,0,4-0.4,5.5-1.1
			c1.6-0.7,2.8-1.7,3.7-3s1.3-2.7,1.3-4.4c0-1.8-0.5-3.4-1.6-4.6C562.7,739.1,561.3,738.3,559.5,737.9z"/>
		<path class="st0" d="M571,753.3c1.1,0,2-0.3,2.7-1s1-1.6,1-2.7c0-1.1-0.3-2-1-2.6c-0.7-0.7-1.6-1-2.7-1c-1.1,0-2,0.3-2.6,1
			c-0.7,0.7-1,1.6-1,2.6c0,1.1,0.3,2,1,2.7C569,752.9,569.9,753.3,571,753.3z"/>
		<path class="st0" d="M586.7,753.4c2.2,0,4-0.4,5.7-1.1c1.6-0.7,2.9-1.8,3.7-3.1c0.9-1.4,1.3-2.9,1.3-4.7c0-1.5-0.4-2.8-1.2-4
			s-2-2-3.5-2.7c-1.5-0.6-3.3-0.9-5.3-0.9h-1.2v-2.7h10v-6.4h-17.7V743h7.1c1.8,0,2.7,0.7,2.7,2.1c0,0.7-0.2,1.3-0.7,1.6
			c-0.5,0.4-1.1,0.6-2,0.6c-2,0-4.2-1-6.5-2.9l-3,5.7c1.4,1,3.1,1.8,5,2.4C583.1,753.1,585,753.4,586.7,753.4z"/>
		<polygon class="st0" points="610.1,753 610.1,727.8 597.4,727.8 597.4,734.4 601.8,734.4 601.8,753 		"/>
		<path class="st0" d="M537.8,805.7c1.6-1.6,2.8-3,3.7-4.4s1.3-2.8,1.3-4.1s-0.4-2.5-1.2-3.5s-1.9-1.8-3.3-2.4
			c-1.4-0.6-3-0.9-4.7-0.9c-3.7,0-7.4,1.3-11.3,3.9l3.1,6c1.2-1,2.5-1.8,3.7-2.4s2.3-0.9,3.2-0.9c0.6,0,1,0.1,1.3,0.3s0.5,0.6,0.5,1
			s-0.2,0.9-0.5,1.5c-0.4,0.6-0.8,1.2-1.4,1.7l-8.8,9.1v5.3h19.8v-6.4H534L537.8,805.7z"/>
		<path class="st0" d="M561.5,802.5c0.8-0.6,1.4-1.3,1.8-2.2c0.5-0.9,0.7-1.8,0.7-2.8c0-1.4-0.4-2.7-1.1-3.7
			c-0.8-1.1-1.8-1.9-3.2-2.5s-3-0.9-4.9-0.9c-1.8,0-3.4,0.3-4.8,0.8c-1.4,0.6-2.5,1.4-3.2,2.4c-0.8,1-1.1,2.2-1.1,3.6
			c0,1,0.3,1.9,0.8,2.9s1.2,1.8,2.1,2.4c-1.3,0.6-2.3,1.5-3.1,2.7s-1.2,2.5-1.2,3.8c0,1.5,0.4,2.7,1.3,3.9c0.9,1.1,2.1,2,3.7,2.6
			c1.6,0.6,3.4,0.9,5.5,0.9s4-0.3,5.6-0.9c1.6-0.6,2.8-1.5,3.7-2.6s1.3-2.5,1.3-3.9c0-1.3-0.3-2.6-1-3.7
			C563.6,804,562.7,803.1,561.5,802.5z M554.8,795.8c1.6,0,2.3,0.7,2.3,2.1c0,1.3-0.8,1.9-2.3,1.9s-2.3-0.6-2.3-1.9
			C552.5,796.5,553.3,795.8,554.8,795.8z M556.9,809.8c-0.5,0.4-1.2,0.6-2.1,0.6c-0.9,0-1.6-0.2-2-0.6c-0.5-0.4-0.7-0.9-0.7-1.7
			c0-1.6,0.9-2.4,2.8-2.4c0.9,0,1.6,0.2,2.1,0.6c0.5,0.4,0.7,1,0.7,1.8C557.6,808.9,557.4,809.5,556.9,809.8z"/>
		<path class="st0" d="M571.7,808.9c-1.1,0-2,0.3-2.6,1c-0.7,0.7-1,1.6-1,2.6c0,1.1,0.3,2,1,2.7s1.6,1,2.6,1c1.1,0,2-0.3,2.7-1
			s1-1.6,1-2.7c0-1.1-0.3-2-1-2.6C573.7,809.2,572.8,808.9,571.7,808.9z"/>
		<path class="st0" d="M591.9,800.9l-1.2-0.3l5.9-5.2v-4.7h-18.5v6h8.7l-4.9,4.6v4.3h4.7c1,0,1.8,0.2,2.3,0.6c0.5,0.4,0.8,1,0.8,1.7
			c0,1.5-1,2.2-3,2.2c-2.4,0-4.7-0.9-6.9-2.8l-3,5.6c1.3,1,2.9,1.8,4.8,2.4c1.9,0.6,3.8,0.9,5.8,0.9c2.1,0,4-0.4,5.5-1.1
			c1.6-0.7,2.8-1.7,3.7-3s1.3-2.7,1.3-4.4c0-1.8-0.5-3.4-1.6-4.6C595.1,802.1,593.7,801.3,591.9,800.9z"/>
		<path class="st0" d="M615.5,800.8c-1.5-0.6-3.3-0.9-5.3-0.9H609v-2.7h10v-6.4h-17.7V806h7.1c1.8,0,2.7,0.7,2.7,2.1
			c0,0.7-0.2,1.3-0.7,1.6c-0.5,0.4-1.1,0.6-2,0.6c-2,0-4.2-1-6.5-2.9l-3,5.7c1.4,1,3.1,1.8,5,2.4c1.9,0.6,3.7,0.9,5.5,0.9
			c2.2,0,4-0.4,5.7-1.1c1.6-0.7,2.9-1.8,3.7-3.1c0.9-1.4,1.3-2.9,1.3-4.7c0-1.5-0.4-2.8-1.2-4C618.2,802.3,617.1,801.4,615.5,800.8z
			"/>
	</g>
	<g>
		<polygon class="st1" points="79.4,61 87,61 87,56.1 89.9,56.1 89.9,50.2 87,50.2 87,45.3 79.4,45.3 79.4,50.2 76.9,50.2 
			82.6,35.8 74.8,35.8 68.6,50.7 68.6,56.1 79.4,56.1 		"/>
		<path class="st1" d="M101.1,55.2c-2,0-4.2-1-6.5-2.9l-3,5.7c1.4,1,3.1,1.8,5,2.4c1.9,0.6,3.7,0.9,5.5,0.9c2.2,0,4-0.4,5.7-1.1
			c1.6-0.7,2.9-1.8,3.7-3.1c0.9-1.4,1.3-2.9,1.3-4.7c0-1.5-0.4-2.8-1.2-4c-0.8-1.2-2-2-3.5-2.7c-1.5-0.6-3.3-0.9-5.3-0.9h-1.2v-2.7
			h10v-6.4H94v15.2h7.1c1.8,0,2.7,0.7,2.7,2.1c0,0.7-0.2,1.3-0.7,1.6C102.7,55.1,102,55.2,101.1,55.2z"/>
		<path class="st1" d="M118.6,61.3c1.1,0,2-0.3,2.7-1s1-1.6,1-2.7c0-1.1-0.3-2-1-2.6c-0.7-0.7-1.6-1-2.7-1s-2,0.3-2.6,1
			c-0.7,0.7-1,1.6-1,2.6c0,1.1,0.3,2,1,2.7C116.6,60.9,117.5,61.3,118.6,61.3z"/>
		<polygon class="st1" points="79.4,124 87,124 87,119.1 89.9,119.1 89.9,113.2 87,113.2 87,108.3 79.4,108.3 79.4,113.2 
			76.9,113.2 82.6,98.8 74.8,98.8 68.6,113.7 68.6,119.1 79.4,119.1 		"/>
		<path class="st1" d="M96.4,122.8c1.7,1,3.6,1.5,5.9,1.5c1.9,0,3.6-0.4,5-1.1c1.5-0.7,2.6-1.8,3.4-3.1s1.2-2.9,1.2-4.7
			c0-1.6-0.3-3.1-1-4.3c-0.7-1.3-1.6-2.2-2.8-2.9c-1.2-0.7-2.6-1-4.2-1c-2.2,0-3.9,0.7-5.1,2.1c0-1.6,0.4-2.7,1.2-3.5
			c0.8-0.8,2-1.2,3.6-1.2c1.9,0,3.6,0.6,4.9,1.7l3-5.5c-1.1-0.7-2.3-1.2-3.9-1.6c-1.5-0.4-3-0.6-4.6-0.6c-2.4,0-4.5,0.5-6.3,1.6
			s-3.2,2.6-4.2,4.6s-1.5,4.3-1.5,7c0,2.6,0.4,4.8,1.3,6.7C93.5,120.3,94.7,121.8,96.4,122.8z M100.2,113.6c0.4-0.4,1.1-0.7,1.9-0.7
			s1.4,0.2,1.8,0.6s0.6,1.1,0.6,1.9c0,1.7-0.8,2.6-2.5,2.6c-0.8,0-1.5-0.2-1.9-0.6s-0.6-1.1-0.6-1.9S99.7,114.1,100.2,113.6z"/>
		<path class="st1" d="M118.5,124.3c1.1,0,2-0.3,2.7-1s1-1.6,1-2.7s-0.3-2-1-2.6c-0.7-0.7-1.6-1-2.7-1s-2,0.3-2.6,1
			c-0.7,0.7-1,1.6-1,2.6c0,1.1,0.3,2,1,2.7C116.5,123.9,117.4,124.3,118.5,124.3z"/>
		<polygon class="st1" points="79.4,187 87,187 87,182.1 89.9,182.1 89.9,176.2 87,176.2 87,171.3 79.4,171.3 79.4,176.2 
			76.9,176.2 82.6,161.8 74.8,161.8 68.6,176.7 68.6,182.1 79.4,182.1 		"/>
		<polygon class="st1" points="103.9,187 112.6,167.3 112.6,161.8 91.7,161.8 91.7,171.7 99.1,171.7 99.1,168.2 103.4,168.2 
			95.1,187 		"/>
		<path class="st1" d="M113.3,186.3c0.7,0.7,1.6,1,2.6,1c1.1,0,2-0.3,2.7-1s1-1.6,1-2.7c0-1.1-0.3-2-1-2.6c-0.7-0.7-1.6-1-2.7-1
			s-2,0.3-2.6,1c-0.7,0.7-1,1.6-1,2.6C112.3,184.7,112.6,185.6,113.3,186.3z"/>
		<polygon class="st1" points="79.4,250 87,250 87,245.1 89.9,245.1 89.9,239.2 87,239.2 87,234.3 79.4,234.3 79.4,239.2 
			76.9,239.2 82.6,224.8 74.8,224.8 68.6,239.7 68.6,245.1 79.4,245.1 		"/>
		<path class="st1" d="M96.1,249.4c1.6,0.6,3.4,0.9,5.5,0.9s4-0.3,5.6-0.9c1.6-0.6,2.8-1.5,3.7-2.6c0.9-1.1,1.3-2.5,1.3-3.9
			c0-1.3-0.3-2.6-1-3.7c-0.7-1.2-1.6-2-2.8-2.7c0.8-0.6,1.4-1.3,1.8-2.2c0.5-0.9,0.7-1.8,0.7-2.8c0-1.4-0.4-2.7-1.1-3.7
			c-0.8-1.1-1.8-1.9-3.2-2.5c-1.4-0.6-3-0.9-4.9-0.9c-1.8,0-3.4,0.3-4.8,0.8c-1.4,0.6-2.5,1.4-3.2,2.4c-0.8,1-1.1,2.2-1.1,3.6
			c0,1,0.3,1.9,0.8,2.9s1.2,1.8,2.1,2.4c-1.3,0.6-2.3,1.5-3.1,2.7c-0.8,1.2-1.2,2.5-1.2,3.8c0,1.5,0.4,2.7,1.3,3.9
			C93.3,248,94.5,248.8,96.1,249.4z M101.6,229.8c1.6,0,2.3,0.7,2.3,2.1c0,1.3-0.8,1.9-2.3,1.9s-2.3-0.6-2.3-1.9
			C99.3,230.5,100.1,229.8,101.6,229.8z M101.7,239.8c0.9,0,1.6,0.2,2.1,0.6c0.5,0.4,0.7,1,0.7,1.8c0,0.7-0.2,1.3-0.7,1.7
			s-1.2,0.6-2.1,0.6s-1.6-0.2-2-0.6c-0.5-0.4-0.7-0.9-0.7-1.7C98.9,240.6,99.8,239.8,101.7,239.8z"/>
		<path class="st1" d="M121.2,243.9c-0.7-0.7-1.6-1-2.7-1s-2,0.3-2.6,1c-0.7,0.7-1,1.6-1,2.6c0,1.1,0.3,2,1,2.7s1.6,1,2.6,1
			c1.1,0,2-0.3,2.7-1s1-1.6,1-2.7C122.2,245.5,121.9,244.6,121.2,243.9z"/>
		<polygon class="st1" points="79.4,313 87,313 87,308.1 89.9,308.1 89.9,302.2 87,302.2 87,297.3 79.4,297.3 79.4,302.2 
			76.9,302.2 82.6,287.8 74.8,287.8 68.6,302.7 68.6,308.1 79.4,308.1 		"/>
		<path class="st1" d="M106.8,289c-1.7-1-3.6-1.5-5.9-1.5c-1.9,0-3.6,0.4-5,1.1c-1.5,0.7-2.6,1.7-3.4,3.1c-0.8,1.3-1.2,2.9-1.2,4.7
			c0,1.6,0.3,3.1,1,4.4s1.6,2.3,2.8,3s2.6,1,4.2,1c2.2,0,3.9-0.7,5.1-2.1c0,1.6-0.4,2.7-1.2,3.5c-0.8,0.8-2,1.2-3.6,1.2
			c-1.9,0-3.6-0.6-4.9-1.7l-3,5.5c1.1,0.7,2.4,1.2,3.9,1.6s3,0.6,4.5,0.6c2.4,0,4.5-0.5,6.3-1.6s3.2-2.6,4.2-4.7c1-2,1.5-4.4,1.5-7
			s-0.4-4.8-1.3-6.7C109.8,291.4,108.5,290,106.8,289z M103.1,298.1c-0.4,0.4-1.1,0.7-1.9,0.7c-1.6,0-2.4-0.8-2.4-2.5
			s0.8-2.6,2.4-2.6c0.8,0,1.5,0.2,1.9,0.6s0.6,1.1,0.6,1.9S103.5,297.7,103.1,298.1z"/>
		<path class="st1" d="M121.1,312.3c0.7-0.7,1-1.6,1-2.7s-0.3-2-1-2.6c-0.7-0.7-1.6-1-2.7-1s-2,0.3-2.6,1c-0.7,0.7-1,1.6-1,2.6
			c0,1.1,0.3,2,1,2.7s1.6,1,2.6,1C119.5,313.3,120.4,312.9,121.1,312.3z"/>
		<path class="st1" d="M85.9,360.8c-1.5-0.6-3.3-0.9-5.3-0.9h-1.2v-2.7h10v-6.4H71.8V366H79c1.8,0,2.7,0.7,2.7,2.1
			c0,0.7-0.2,1.3-0.7,1.6c-0.5,0.4-1.1,0.6-2,0.6c-2,0-4.2-1-6.5-2.9l-3,5.7c1.4,1,3.1,1.8,5,2.4s3.7,0.9,5.5,0.9
			c2.2,0,4-0.4,5.7-1.1c1.6-0.7,2.9-1.8,3.7-3.1c0.9-1.4,1.3-2.9,1.3-4.7c0-1.5-0.4-2.8-1.2-4C88.6,362.3,87.5,361.4,85.9,360.8z"/>
		<path class="st1" d="M115.9,363.4c0-4.1-1-7.3-3-9.5s-4.8-3.3-8.6-3.3c-3.7,0-6.6,1.1-8.6,3.3c-2,2.2-3,5.4-3,9.5s1,7.3,3,9.6
			c2,2.2,4.9,3.3,8.6,3.3s6.6-1.1,8.6-3.3C114.9,370.7,115.9,367.5,115.9,363.4z M107.1,367.4c-0.2,1-0.5,1.7-0.9,2.1
			s-1,0.6-1.8,0.6s-1.4-0.2-1.8-0.6s-0.7-1.1-0.9-2.1c-0.2-1-0.3-2.3-0.3-4.1c0-1.7,0.1-3.1,0.3-4c0.2-1,0.5-1.7,0.9-2.1
			s1-0.6,1.8-0.6s1.4,0.2,1.8,0.6s0.7,1.1,0.9,2.1c0.2,1,0.3,2.3,0.3,4C107.3,365.1,107.2,366.4,107.1,367.4z"/>
		<path class="st1" d="M124.4,369.9c-0.7-0.7-1.6-1-2.7-1s-2,0.3-2.6,1c-0.7,0.7-1,1.6-1,2.6c0,1.1,0.3,2,1,2.7s1.6,1,2.6,1
			c1.1,0,2-0.3,2.7-1s1-1.6,1-2.7C125.4,371.5,125,370.6,124.4,369.9z"/>
		<path class="st1" d="M85.9,423.8c-1.5-0.6-3.3-0.9-5.3-0.9h-1.2v-2.7h10v-6.4H71.8V429H79c1.8,0,2.7,0.7,2.7,2.1
			c0,0.7-0.2,1.3-0.7,1.6c-0.5,0.4-1.1,0.6-2,0.6c-2,0-4.2-1-6.5-2.9l-3,5.7c1.4,1,3.1,1.8,5,2.4s3.7,0.9,5.5,0.9
			c2.2,0,4-0.4,5.7-1.1c1.6-0.7,2.9-1.8,3.7-3.1c0.9-1.4,1.3-2.9,1.3-4.7c0-1.5-0.4-2.8-1.2-4C88.6,425.3,87.5,424.4,85.9,423.8z"/>
		<polygon class="st1" points="90.6,420.4 95,420.4 95,439 103.4,439 103.4,413.8 90.6,413.8 		"/>
		<path class="st1" d="M115.5,435.6c0-1.1-0.3-2-1-2.6c-0.7-0.7-1.6-1-2.7-1s-2,0.3-2.6,1c-0.7,0.7-1,1.6-1,2.6c0,1.1,0.3,2,1,2.7
			s1.6,1,2.6,1c1.1,0,2-0.3,2.7-1S115.5,436.7,115.5,435.6z"/>
		<path class="st1" d="M85.9,486.8c-1.5-0.6-3.3-0.9-5.3-0.9h-1.2v-2.7h10v-6.4H71.8V492H79c1.8,0,2.7,0.7,2.7,2.1
			c0,0.7-0.2,1.3-0.7,1.6c-0.5,0.4-1.1,0.6-2,0.6c-2,0-4.2-1-6.5-2.9l-3,5.7c1.4,1,3.1,1.8,5,2.4s3.7,0.9,5.5,0.9
			c2.2,0,4-0.4,5.7-1.1c1.6-0.7,2.9-1.8,3.7-3.1c0.9-1.4,1.3-2.9,1.3-4.7c0-1.5-0.4-2.8-1.2-4C88.6,488.3,87.5,487.4,85.9,486.8z"/>
		<path class="st1" d="M111.2,487.3c0.9-1.4,1.3-2.8,1.3-4.1c0-1.3-0.4-2.5-1.2-3.5c-0.8-1-1.9-1.8-3.3-2.4s-3-0.9-4.7-0.9
			c-3.7,0-7.4,1.3-11.3,3.9l3.1,6c1.2-1,2.5-1.8,3.7-2.4s2.3-0.9,3.2-0.9c0.6,0,1,0.1,1.3,0.3c0.3,0.2,0.5,0.6,0.5,1
			s-0.2,0.9-0.5,1.5s-0.8,1.2-1.4,1.7l-8.8,9.1v5.3h19.8v-6.4h-9.2l3.9-3.9C109.1,490.2,110.4,488.7,111.2,487.3z"/>
		<path class="st1" d="M121.5,495.9c-0.7-0.7-1.6-1-2.7-1s-2,0.3-2.6,1c-0.7,0.7-1,1.6-1,2.6c0,1.1,0.3,2,1,2.7s1.6,1,2.6,1
			c1.1,0,2-0.3,2.7-1s1-1.6,1-2.7C122.5,497.5,122.2,496.6,121.5,495.9z"/>
		<path class="st1" d="M85.9,549.8c-1.5-0.6-3.3-0.9-5.3-0.9h-1.2v-2.7h10v-6.4H71.8V555H79c1.8,0,2.7,0.7,2.7,2.1
			c0,0.7-0.2,1.3-0.7,1.6c-0.5,0.4-1.1,0.6-2,0.6c-2,0-4.2-1-6.5-2.9l-3,5.7c1.4,1,3.1,1.8,5,2.4c1.9,0.6,3.7,0.9,5.5,0.9
			c2.2,0,4-0.4,5.7-1.1c1.6-0.7,2.9-1.8,3.7-3.1c0.9-1.4,1.3-2.9,1.3-4.7c0-1.5-0.4-2.8-1.2-4C88.6,551.3,87.5,550.4,85.9,549.8z"/>
		<path class="st1" d="M102.6,565.4c2.1,0,4-0.4,5.5-1.1c1.6-0.7,2.8-1.7,3.7-3c0.9-1.3,1.3-2.7,1.3-4.4c0-1.8-0.5-3.4-1.6-4.6
			c-1.1-1.2-2.5-2-4.3-2.4l-1.2-0.3l5.9-5.2v-4.7H93.4v6h8.7l-4.9,4.6v4.3h4.7c1,0,1.8,0.2,2.3,0.6c0.5,0.4,0.8,1,0.8,1.7
			c0,1.5-1,2.2-3,2.2c-2.4,0-4.7-0.9-6.9-2.8l-3,5.6c1.3,1,2.9,1.8,4.8,2.4C98.7,565.1,100.6,565.4,102.6,565.4z"/>
		<path class="st1" d="M121.3,564.3c0.7-0.7,1-1.6,1-2.7c0-1.1-0.3-2-1-2.6c-0.7-0.7-1.6-1-2.7-1s-2,0.3-2.6,1c-0.7,0.7-1,1.6-1,2.6
			c0,1.1,0.3,2,1,2.7s1.6,1,2.6,1C119.7,565.3,120.6,564.9,121.3,564.3z"/>
		<path class="st1" d="M85.9,612.8c-1.5-0.6-3.3-0.9-5.3-0.9h-1.2v-2.7h10v-6.4H71.8V618H79c1.8,0,2.7,0.7,2.7,2.1
			c0,0.7-0.2,1.3-0.7,1.6c-0.5,0.4-1.1,0.6-2,0.6c-2,0-4.2-1-6.5-2.9l-3,5.7c1.4,1,3.1,1.8,5,2.4c1.9,0.6,3.7,0.9,5.5,0.9
			c2.2,0,4-0.4,5.7-1.1c1.6-0.7,2.9-1.8,3.7-3.1c0.9-1.4,1.3-2.9,1.3-4.7c0-1.5-0.4-2.8-1.2-4C88.6,614.3,87.5,613.4,85.9,612.8z"/>
		<polygon class="st1" points="102.1,628 109.7,628 109.7,623.1 112.6,623.1 112.6,617.2 109.7,617.2 109.7,612.3 102.1,612.3 
			102.1,617.2 99.6,617.2 105.3,602.8 97.5,602.8 91.4,617.7 91.4,623.1 102.1,623.1 		"/>
		<path class="st1" d="M118.6,628.3c1.1,0,2-0.3,2.7-1s1-1.6,1-2.7c0-1.1-0.3-2-1-2.6c-0.7-0.7-1.6-1-2.7-1s-2,0.3-2.6,1
			c-0.7,0.7-1,1.6-1,2.6c0,1.1,0.3,2,1,2.7C116.6,627.9,117.5,628.3,118.6,628.3z"/>
		<path class="st1" d="M85.9,675.8c-1.5-0.6-3.3-0.9-5.3-0.9h-1.2v-2.7h10v-6.4H71.8V681H79c1.8,0,2.7,0.7,2.7,2.1
			c0,0.7-0.2,1.3-0.7,1.6c-0.5,0.4-1.1,0.6-2,0.6c-2,0-4.2-1-6.5-2.9l-3,5.7c1.4,1,3.1,1.8,5,2.4c1.9,0.6,3.7,0.9,5.5,0.9
			c2.2,0,4-0.4,5.7-1.1c1.6-0.7,2.9-1.8,3.7-3.1c0.9-1.4,1.3-2.9,1.3-4.7c0-1.5-0.4-2.8-1.2-4C88.6,677.3,87.5,676.4,85.9,675.8z"/>
		<path class="st1" d="M101.7,685.2c-2,0-4.2-1-6.5-2.9l-3,5.7c1.4,1,3.1,1.8,5,2.4c1.9,0.6,3.7,0.9,5.5,0.9c2.2,0,4-0.4,5.7-1.1
			c1.6-0.7,2.9-1.8,3.7-3.1c0.9-1.4,1.3-2.9,1.3-4.7c0-1.5-0.4-2.8-1.2-4c-0.8-1.2-2-2-3.5-2.7c-1.5-0.6-3.3-0.9-5.3-0.9h-1.2v-2.7
			h10v-6.4H94.6v15.2h7.1c1.8,0,2.7,0.7,2.7,2.1c0,0.7-0.2,1.3-0.7,1.6C103.3,685.1,102.6,685.2,101.7,685.2z"/>
		<path class="st1" d="M119.2,683.9c-1.1,0-2,0.3-2.6,1c-0.7,0.7-1,1.6-1,2.6c0,1.1,0.3,2,1,2.7s1.6,1,2.6,1c1.1,0,2-0.3,2.7-1
			s1-1.6,1-2.7c0-1.1-0.3-2-1-2.6C121.2,684.2,120.3,683.9,119.2,683.9z"/>
		<path class="st1" d="M85.9,738.8c-1.5-0.6-3.3-0.9-5.3-0.9h-1.2v-2.7h10v-6.4H71.8V744H79c1.8,0,2.7,0.7,2.7,2.1
			c0,0.7-0.2,1.3-0.7,1.6c-0.5,0.4-1.1,0.6-2,0.6c-2,0-4.2-1-6.5-2.9l-3,5.7c1.4,1,3.1,1.8,5,2.4c1.9,0.6,3.7,0.9,5.5,0.9
			c2.2,0,4-0.4,5.7-1.1c1.6-0.7,2.9-1.8,3.7-3.1c0.9-1.4,1.3-2.9,1.3-4.7c0-1.5-0.4-2.8-1.2-4C88.6,740.3,87.5,739.4,85.9,738.8z"/>
		<path class="st1" d="M97,752.8c1.7,1,3.6,1.5,5.9,1.5c1.9,0,3.6-0.4,5-1.1c1.5-0.7,2.6-1.8,3.4-3.1s1.2-2.9,1.2-4.7
			c0-1.6-0.3-3.1-1-4.3c-0.7-1.3-1.6-2.2-2.8-2.9c-1.2-0.7-2.6-1-4.2-1c-2.2,0-3.9,0.7-5.1,2.1c0-1.6,0.4-2.7,1.2-3.5
			c0.8-0.8,2-1.2,3.6-1.2c1.9,0,3.6,0.6,4.9,1.7l3-5.5c-1.1-0.7-2.3-1.2-3.9-1.6c-1.5-0.4-3-0.6-4.6-0.6c-2.4,0-4.5,0.5-6.3,1.6
			s-3.2,2.6-4.2,4.6s-1.5,4.3-1.5,7c0,2.6,0.4,4.8,1.3,6.7C94,750.3,95.3,751.8,97,752.8z M100.8,743.6c0.4-0.4,1.1-0.7,1.9-0.7
			s1.4,0.2,1.8,0.6c0.4,0.4,0.6,1.1,0.6,1.9c0,1.7-0.8,2.6-2.5,2.6c-0.8,0-1.5-0.2-1.9-0.6c-0.4-0.4-0.6-1.1-0.6-1.9
			C100.1,744.7,100.3,744.1,100.8,743.6z"/>
		<path class="st1" d="M119,746.9c-1.1,0-2,0.3-2.6,1c-0.7,0.7-1,1.6-1,2.6c0,1.1,0.3,2,1,2.7s1.6,1,2.6,1c1.1,0,2-0.3,2.7-1
			s1-1.6,1-2.7c0-1.1-0.3-2-1-2.6C121,747.2,120.1,746.9,119,746.9z"/>
		<path class="st1" d="M85.9,801.8c-1.5-0.6-3.3-0.9-5.3-0.9h-1.2v-2.7h10v-6.4H71.8V807H79c1.8,0,2.7,0.7,2.7,2.1
			c0,0.7-0.2,1.3-0.7,1.6c-0.5,0.4-1.1,0.6-2,0.6c-2,0-4.2-1-6.5-2.9l-3,5.7c1.4,1,3.1,1.8,5,2.4c1.9,0.6,3.7,0.9,5.5,0.9
			c2.2,0,4-0.4,5.7-1.1c1.6-0.7,2.9-1.8,3.7-3.1c0.9-1.4,1.3-2.9,1.3-4.7c0-1.5-0.4-2.8-1.2-4C88.6,803.3,87.5,802.4,85.9,801.8z"/>
		<polygon class="st1" points="113.1,791.8 92.3,791.8 92.3,801.7 99.6,801.7 99.6,798.2 104,798.2 95.6,817 104.5,817 113.1,797.3 
					"/>
		<path class="st1" d="M116.6,809.9c-1.1,0-2,0.3-2.6,1c-0.7,0.7-1,1.6-1,2.6c0,1.1,0.3,2,1,2.7s1.6,1,2.6,1c1.1,0,2-0.3,2.7-1
			s1-1.6,1-2.7c0-1.1-0.3-2-1-2.6C118.6,810.2,117.7,809.9,116.6,809.9z"/>
	</g>
</g>
<path id="Polygon_1" class="st0" d="M29,175L0,192v-34L29,175z"/>
<g>
	
		<linearGradient id="Rectangle_314_00000045591117519588921060000017596131722990980531_" gradientUnits="userSpaceOnUse" x1="-248.1443" y1="488.1534" x2="-248.1443" y2="487.1534" gradientTransform="matrix(700 0 0 -163 174051 79569)">
		<stop  offset="0" style="stop-color:#FFFFFF"/>
		<stop  offset="1" style="stop-color:#FFFFFF;stop-opacity:0"/>
	</linearGradient>
	
		<rect id="Rectangle_314" style="opacity:0.846;fill:url(#Rectangle_314_00000045591117519588921060000017596131722990980531_);enable-background:new    ;" width="700" height="163"/>
	
		<linearGradient id="Rectangle_315_00000080907225940146740800000005528780042628429477_" gradientUnits="userSpaceOnUse" x1="-248.1443" y1="488.0981" x2="-248.1443" y2="487.0981" gradientTransform="matrix(700 0 0 -153 174051 74876)">
		<stop  offset="0" style="stop-color:#FFFFFF;stop-opacity:0"/>
		<stop  offset="1" style="stop-color:#FFFFFF"/>
	</linearGradient>
	
		<rect id="Rectangle_315" y="197" style="opacity:0.846;fill:url(#Rectangle_315_00000080907225940146740800000005528780042628429477_);enable-background:new    ;" width="700" height="153"/>
</g>
</svg>
